<?xml version="1.0" encoding="utf-8"?>
<svg width="409.184" height="84.225" viewBox="0 0 409.184 84.225" xmlns="http://www.w3.org/2000/svg">
  <defs>
    <style>.a{fill:none;}.b{fill:#161615;}.c{clip-path:url(#a);}.d{fill:#91b508;}</style>
    <clipPath id="a">
      <rect class="a" width="409.184" height="84.225"/>
    </clipPath>
  </defs>
  <g>
    <path class="b" d="M 131.489 78.596 L 121.217 78.596 L 134.932 40.406 L 146.174 40.406 L 159.889 78.596 L 149.079 78.596 L 146.766 71.496 L 133.803 71.496 L 131.489 78.596 Z M 136.331 63.535 L 144.189 63.535 L 140.263 51.435 L 136.331 63.535 Z"/>
    <path class="b" d="M 163.658 40.404 L 188.132 40.404 L 188.132 49.279 L 173.879 49.279 L 173.879 55.519 L 187.379 55.519 L 187.379 64.396 L 173.879 64.396 L 173.879 78.596 L 163.658 78.596 L 163.658 40.404 Z"/>
    <path class="b" d="M 219.17 49.279 L 203.678 49.279 L 203.678 55.249 L 218.201 55.249 L 218.201 63.802 L 203.678 63.802 L 203.678 69.719 L 219.385 69.719 L 219.385 78.596 L 193.461 78.596 L 193.461 40.405 L 219.173 40.405 L 219.17 49.279 Z"/>
    <g class="c">
      <path class="d" d="M51.069,66.346A9.312,9.312,0,0,1,50.7,47.729a47.916,47.916,0,0,0,24.864-8.164A9.312,9.312,0,0,1,85.972,55.012,66.556,66.556,0,0,1,51.449,66.339c-.126.005-.255.007-.38.007" transform="translate(13.729 12.485)"/>
      <path class="b" d="M44.466,16.151A11.546,11.546,0,1,1,36.851,1.708a11.546,11.546,0,0,1,7.615,14.443" transform="translate(7.195 0.391)"/>
      <path class="d" d="M70.837,28.759a8.205,8.205,0,1,1-5.412-10.264,8.206,8.206,0,0,1,5.412,10.264" transform="translate(18.011 5.958)"/>
      <path class="b" d="M62.515,72.918a66.455,66.455,0,0,1-19.678-2.99A66.271,66.271,0,0,1,.659,30.876a9.312,9.312,0,1,1,17.312-6.868A47.717,47.717,0,0,0,48.343,52.137,48.175,48.175,0,0,0,64.43,54.258a9.311,9.311,0,1,1,.749,18.606q-1.333.054-2.664.054" transform="translate(0 5.959)"/>
      <path class="b" d="M100.012,1.481a8.814,8.814,0,0,1,2.918.453,6.43,6.43,0,0,1,2.2,1.264,5.386,5.386,0,0,1,1.389,1.981A6.866,6.866,0,0,1,107,7.816a6.33,6.33,0,0,1-1.326,4.009,6.523,6.523,0,0,1-3.7,2.293l3.307,4.494a10.21,10.21,0,0,0,2.154,2.137,4.023,4.023,0,0,0,2.37.858h.126l-.5,2.122h-.157a5.26,5.26,0,0,1-3.166-1.03,13.513,13.513,0,0,1-2.95-3.214l-3.65-5.117H95.955v9.268H93.646V1.481Zm-4.057,10.89H99.7a6.665,6.665,0,0,0,1.824-.25,4.549,4.549,0,0,0,1.576-.78,3.862,3.862,0,0,0,1.108-1.389,4.677,4.677,0,0,0,.421-2.075,4.548,4.548,0,0,0-.405-2.012,3.641,3.641,0,0,0-1.092-1.342,4.533,4.533,0,0,0-1.544-.748,6.766,6.766,0,0,0-1.8-.235H95.955Z" transform="translate(30.784 0.487)"/>
      <path class="b" d="M121.529,3.6H110.8v7.863H120.9v2.09H110.8v7.956h10.983v2.122H108.486V1.481h13.043Z" transform="translate(35.662 0.487)"/>
      <path class="b" d="M129.323,1.481a14.748,14.748,0,0,1,4.946.78,10.643,10.643,0,0,1,3.744,2.216A9.8,9.8,0,0,1,140.4,7.925a11.393,11.393,0,0,1,.844,4.446,12.233,12.233,0,0,1-.844,4.617,9.947,9.947,0,0,1-2.386,3.557,10.768,10.768,0,0,1-3.744,2.279,14.222,14.222,0,0,1-4.946.811h-6.677V1.481Zm3.932,19.393a8.525,8.525,0,0,0,3.027-1.826,7.808,7.808,0,0,0,1.9-2.87,10.342,10.342,0,0,0,.655-3.775,9.586,9.586,0,0,0-.655-3.621,7.629,7.629,0,0,0-1.9-2.777,8.587,8.587,0,0,0-3.027-1.778A12.022,12.022,0,0,0,129.26,3.6h-4.306v17.91h4.306a11.749,11.749,0,0,0,3.994-.639" transform="translate(40.317 0.487)"/>
      <path class="b" d="M153.651,3.6H142.918v7.863h10.109v2.09H142.918v7.956H153.9v2.122H140.609V1.481h13.043Z" transform="translate(46.222 0.487)"/>
      <path class="b" d="M158.017,4.273A3.122,3.122,0,0,0,156.894,6.8a3.186,3.186,0,0,0,.327,1.5,3.494,3.494,0,0,0,.937,1.108,7.008,7.008,0,0,0,1.466.874q.859.389,1.888.795,1.28.5,2.434,1.046a8.977,8.977,0,0,1,2.028,1.3,5.525,5.525,0,0,1,1.39,1.81,5.819,5.819,0,0,1,.514,2.558,6.4,6.4,0,0,1-.53,2.668,5.484,5.484,0,0,1-1.483,1.967,6.469,6.469,0,0,1-2.261,1.2,9.813,9.813,0,0,1-2.9.405,12.685,12.685,0,0,1-3.744-.546,9.826,9.826,0,0,1-3.152-1.606l1.217-2a8.558,8.558,0,0,0,2.636,1.451,9.71,9.71,0,0,0,3.261.546,5.359,5.359,0,0,0,3.4-.983,3.6,3.6,0,0,0,1.248-3.011,3.666,3.666,0,0,0-.375-1.717,3.936,3.936,0,0,0-1.03-1.248,7.32,7.32,0,0,0-1.576-.951q-.919-.423-2.044-.828-1.184-.436-2.261-.935a8.05,8.05,0,0,1-1.9-1.217,5.376,5.376,0,0,1-1.311-1.7,5.377,5.377,0,0,1-.484-2.386,5.627,5.627,0,0,1,.469-2.325,4.964,4.964,0,0,1,1.326-1.778,6.225,6.225,0,0,1,2.028-1.14,7.832,7.832,0,0,1,2.574-.405,7.963,7.963,0,0,1,4.2.983,6.324,6.324,0,0,1,2.386,2.481l-1.9,1.185a5.544,5.544,0,0,0-1.7-1.794,5.285,5.285,0,0,0-3.043-.764,4.38,4.38,0,0,0-2.9.935" transform="translate(50.56 0.41)"/>
      <path class="b" d="M190.29,17.808h-4.029L192.412.879H196.8l6.176,16.929h-4.244l-1.169-3.457h-6.1Zm2.218-6.605h4.006l-2-5.985Z" transform="translate(61.229 0.289)"/>
      <path class="b" d="M204.074,8.4a3.025,3.025,0,0,0-.775,2.218,2.838,2.838,0,0,0,.811,2.1,3.06,3.06,0,0,0,2.264.811,5.735,5.735,0,0,0,1.766-.262,10.986,10.986,0,0,0,1.717-.74l.881,3.172a8.153,8.153,0,0,1-2.026.882,9.308,9.308,0,0,1-2.6.334,8.089,8.089,0,0,1-2.789-.453,5.852,5.852,0,0,1-2.11-1.3,5.721,5.721,0,0,1-1.335-2.014,6.952,6.952,0,0,1-.465-2.6A6.857,6.857,0,0,1,199.866,8a5.516,5.516,0,0,1,1.288-1.956,5.889,5.889,0,0,1,2.014-1.264,7.38,7.38,0,0,1,2.659-.453,6.914,6.914,0,0,1,2.777.585,5.553,5.553,0,0,1,2.182,1.633l-2.264,2.385a3.739,3.739,0,0,0-1.05-.906,2.874,2.874,0,0,0-1.525-.405,2.53,2.53,0,0,0-1.872.787" transform="translate(65.552 1.422)"/>
      <path class="b" d="M209.5,8.1a5.812,5.812,0,0,1,1.371-1.99A6.36,6.36,0,0,1,213,4.8a8.016,8.016,0,0,1,5.448,0,6.385,6.385,0,0,1,2.11,1.311,5.811,5.811,0,0,1,1.371,1.99,6.4,6.4,0,0,1,.489,2.515,6.4,6.4,0,0,1-.489,2.515,5.811,5.811,0,0,1-1.371,1.99,6.385,6.385,0,0,1-2.11,1.311,8.016,8.016,0,0,1-5.448,0,6.36,6.36,0,0,1-2.122-1.311,5.812,5.812,0,0,1-1.371-1.99,6.374,6.374,0,0,1-.489-2.515A6.374,6.374,0,0,1,209.5,8.1m4.124,4.649a2.82,2.82,0,0,0,2.086.8,2.767,2.767,0,0,0,2.1-.822A2.959,2.959,0,0,0,218.6,10.6a2.886,2.886,0,0,0-.788-2.1,2.758,2.758,0,0,0-2.074-.811,2.838,2.838,0,0,0-2.1.811,2.874,2.874,0,0,0-.811,2.122,2.888,2.888,0,0,0,.8,2.134" transform="translate(68.708 1.422)"/>
      <path class="b" d="M223.512,21.575a10.867,10.867,0,0,1-2.659-.942l1.264-3.028a9.964,9.964,0,0,0,2.122.811,9.612,9.612,0,0,0,2.336.263,3.206,3.206,0,0,0,2.218-.788,2.781,2.781,0,0,0,.882-2.192v-1a3.953,3.953,0,0,1-1.585,1.323,5.351,5.351,0,0,1-2.349.489,5.8,5.8,0,0,1-2.228-.417A5.042,5.042,0,0,1,221.76,14.9a5.352,5.352,0,0,1-1.145-1.883,7.152,7.152,0,0,1-.405-2.467,6.911,6.911,0,0,1,.441-2.5,5.841,5.841,0,0,1,1.229-1.968,5.573,5.573,0,0,1,1.883-1.288,6.173,6.173,0,0,1,2.432-.465,6.765,6.765,0,0,1,2.122.322,5.36,5.36,0,0,1,1.6.8l.142-.882h3.314v10.9a7.567,7.567,0,0,1-.488,2.85,5.286,5.286,0,0,1-1.371,1.99,5.607,5.607,0,0,1-2.134,1.168,9.568,9.568,0,0,1-2.8.381,15.177,15.177,0,0,1-3.063-.274m1.192-8.989a2.519,2.519,0,0,0,1.967.775,3.055,3.055,0,0,0,1.2-.238,3.3,3.3,0,0,0,.978-.632,2.675,2.675,0,0,0,.643-.93,2.871,2.871,0,0,0,.227-1.132V8.234a4.43,4.43,0,0,0-1.18-.561A5.023,5.023,0,0,0,227,7.448a3.2,3.2,0,0,0-1.2.226,2.687,2.687,0,0,0-.954.644,3.081,3.081,0,0,0-.619.978A3.3,3.3,0,0,0,224,10.548a2.915,2.915,0,0,0,.7,2.038" transform="translate(72.388 1.422)"/>
      <path class="b" d="M232.308,1.3a2.105,2.105,0,0,1,1.12-1.132,2.166,2.166,0,0,1,1.67,0,2.133,2.133,0,0,1,1.286,1.978,2.121,2.121,0,1,1-4.243,0,2.161,2.161,0,0,1,.166-.846m3.743,16.8h-3.7V5.985h3.7Z" transform="translate(76.311 0)"/>
      <path class="b" d="M237.309,16.681V4.569H241V5.928a5.179,5.179,0,0,1,1.537-1.156,4.824,4.824,0,0,1,2.207-.465,3.759,3.759,0,0,1,3.718,2.122,6.156,6.156,0,0,1,.764-.811,4.987,4.987,0,0,1,.966-.668,5.85,5.85,0,0,1,1.168-.464,5.1,5.1,0,0,1,1.4-.179,3.873,3.873,0,0,1,3.218,1.311,5.859,5.859,0,0,1,1.05,3.743v7.32h-3.7v-6.8q0-2.29-1.814-2.289a2.717,2.717,0,0,0-1.394.369,4.421,4.421,0,0,0-1.108.918v7.8h-3.7v-6.8q0-2.29-1.812-2.289a2.648,2.648,0,0,0-1.394.381A4.194,4.194,0,0,0,241,8.956v7.725Z" transform="translate(78.01 1.416)"/>
      <path class="b" d="M254.325,1.3a2.129,2.129,0,0,1,.452-.68,2.151,2.151,0,0,1,.668-.452,2.163,2.163,0,0,1,1.669,0A2.131,2.131,0,0,1,258.4,2.146a2.122,2.122,0,1,1-4.244,0,2.138,2.138,0,0,1,.167-.846m3.743,16.8h-3.7V5.985h3.7Z" transform="translate(83.548 0)"/>
      <path class="b" d="M262.775,16.46a6.177,6.177,0,0,1-2.134-1.288,5.746,5.746,0,0,1-1.383-1.99,6.436,6.436,0,0,1-.489-2.539,7.279,7.279,0,0,1,.465-2.683,5.65,5.65,0,0,1,1.288-1.99,5.419,5.419,0,0,1,1.944-1.228,6.893,6.893,0,0,1,2.432-.417,6.147,6.147,0,0,1,2.312.429,5.144,5.144,0,0,1,1.86,1.264,5.908,5.908,0,0,1,1.24,2.1,8.656,8.656,0,0,1,.453,2.932v.573h-8.226q.383,2.24,3.266,2.24a10.048,10.048,0,0,0,1.932-.178,7.983,7.983,0,0,0,1.669-.513l.764,2.861a10.769,10.769,0,0,1-1.932.632,12.184,12.184,0,0,1-2.695.25,7.984,7.984,0,0,1-2.765-.453m.667-8.821a2.8,2.8,0,0,0-.834,1.431h4.435a2.106,2.106,0,0,0-.763-1.443,2.184,2.184,0,0,0-1.383-.513,2.126,2.126,0,0,0-1.455.525" transform="translate(85.064 1.422)"/>
      <path class="b" d="M269.464,4.569h3.7V5.928a4.981,4.981,0,0,1,3.815-1.621,4.162,4.162,0,0,1,3.4,1.335,5.773,5.773,0,0,1,1.109,3.791v7.248h-3.7v-6.7q0-2.384-2.05-2.384a2.838,2.838,0,0,0-1.43.381,3.992,3.992,0,0,0-1.145.978v7.725h-3.7Z" transform="translate(88.58 1.416)"/>
      <path class="b" d="M285.616,1.974V5.336h3.362V8.579h-3.362v3.194q0,2.408,2.934,2.409h.238l-.429,3.386h-.335a7.008,7.008,0,0,1-4.649-1.264,5.036,5.036,0,0,1-1.454-4.006V8.579H279.8V5.336h2.122l-.072-3.362Z" transform="translate(91.977 0.649)"/>
      <path class="b" d="M288.075,8.1a5.811,5.811,0,0,1,1.371-1.99A6.353,6.353,0,0,1,291.567,4.8a8.023,8.023,0,0,1,5.45,0,6.392,6.392,0,0,1,2.109,1.311A5.794,5.794,0,0,1,300.5,8.1a6.4,6.4,0,0,1,.489,2.515,6.4,6.4,0,0,1-.489,2.515,5.794,5.794,0,0,1-1.371,1.99,6.392,6.392,0,0,1-2.109,1.311,8.023,8.023,0,0,1-5.45,0,6.353,6.353,0,0,1-2.121-1.311,5.811,5.811,0,0,1-1.371-1.99,6.375,6.375,0,0,1-.489-2.515,6.375,6.375,0,0,1,.489-2.515m4.126,4.649a2.815,2.815,0,0,0,2.085.8,2.763,2.763,0,0,0,2.1-.822,2.96,2.96,0,0,0,.788-2.134,2.886,2.886,0,0,0-.788-2.1,2.756,2.756,0,0,0-2.074-.811,2.838,2.838,0,0,0-2.1.811,2.874,2.874,0,0,0-.81,2.122,2.884,2.884,0,0,0,.8,2.134" transform="translate(94.537 1.422)"/>
      <path class="b" d="M187.606,23.879h10.539v3.505h-6.533V30.77h6.2v3.481h-6.2v6.556h-4.006Z" transform="translate(61.671 7.85)"/>
      <path class="b" d="M204.594,39.353a5.445,5.445,0,0,1-2.491.561A5.862,5.862,0,0,1,199.9,39.5a5.1,5.1,0,0,1-1.8-1.217,5.743,5.743,0,0,1-1.2-1.955,7.29,7.29,0,0,1-.441-2.611,6.986,6.986,0,0,1,.477-2.635,5.772,5.772,0,0,1,3.326-3.3,6.842,6.842,0,0,1,2.515-.453,6.617,6.617,0,0,1,1.9.274,5.008,5.008,0,0,1,1.537.728l.12-.763h3.29v7.2a2.744,2.744,0,0,0,.215,1.1,1.657,1.657,0,0,0,.954.811l-1.573,3.219a4.174,4.174,0,0,1-1.741-.74,3.706,3.706,0,0,1-1.145-1.382,4.167,4.167,0,0,1-1.729,1.585m.108-8.524a4.911,4.911,0,0,0-1.359-.191,2.961,2.961,0,0,0-2.277.858,3.131,3.131,0,0,0-.8,2.218,2.643,2.643,0,0,0,2.742,2.838,2.863,2.863,0,0,0,1.18-.239,2.788,2.788,0,0,0,.93-.667,2.882,2.882,0,0,0,.6-1.026,4.077,4.077,0,0,0,.2-1.311V31.282a7.728,7.728,0,0,0-1.216-.453" transform="translate(64.579 8.982)"/>
      <path class="b" d="M208.618,39.681V27.569h3.7v1.359a5.179,5.179,0,0,1,1.537-1.156,4.824,4.824,0,0,1,2.207-.465,3.759,3.759,0,0,1,3.718,2.122,6.153,6.153,0,0,1,.764-.811,4.987,4.987,0,0,1,.966-.668,5.848,5.848,0,0,1,1.168-.464,5.1,5.1,0,0,1,1.4-.179,3.873,3.873,0,0,1,3.218,1.311,5.859,5.859,0,0,1,1.05,3.743v7.32h-3.7v-6.8q0-2.29-1.814-2.289a2.717,2.717,0,0,0-1.394.369,4.421,4.421,0,0,0-1.108.918v7.8h-3.7v-6.8q0-2.29-1.812-2.289a2.648,2.648,0,0,0-1.394.381,4.2,4.2,0,0,0-1.109.978v7.725Z" transform="translate(68.578 8.977)"/>
      <path class="b" d="M225.633,24.3a2.133,2.133,0,0,1,.453-.68,2.16,2.16,0,0,1,.667-.452,2.167,2.167,0,0,1,1.67,0,2.138,2.138,0,0,1,1.288,1.978,2.122,2.122,0,1,1-4.244,0,2.161,2.161,0,0,1,.166-.846m3.744,16.8h-3.7V28.985h3.7Z" transform="translate(74.117 7.561)"/>
      <path class="b" d="M234.991,37.193a3.041,3.041,0,0,0,2,.6l-.405,3.411h-.142a6.589,6.589,0,0,1-4.471-1.252,5.118,5.118,0,0,1-1.4-3.994V23.126h3.7v12.3a2.165,2.165,0,0,0,.715,1.765" transform="translate(75.798 7.602)"/>
      <path class="b" d="M236.579,24.3a2.094,2.094,0,0,1,1.12-1.132,2.163,2.163,0,0,1,1.669,0,2.138,2.138,0,0,1,1.288,1.978,2.122,2.122,0,1,1-4.244,0,2.138,2.138,0,0,1,.167-.846m3.743,16.8h-3.7V28.985h3.7Z" transform="translate(77.715 7.561)"/>
      <path class="b" d="M249.165,39.353a5.445,5.445,0,0,1-2.491.561,5.862,5.862,0,0,1-2.206-.417,5.1,5.1,0,0,1-1.8-1.217,5.743,5.743,0,0,1-1.2-1.955,7.29,7.29,0,0,1-.441-2.611,6.986,6.986,0,0,1,.477-2.635,5.772,5.772,0,0,1,3.326-3.3,6.842,6.842,0,0,1,2.515-.453,6.617,6.617,0,0,1,1.9.274,5.008,5.008,0,0,1,1.537.728l.12-.763h3.29v7.2a2.744,2.744,0,0,0,.215,1.1,1.657,1.657,0,0,0,.954.811L253.78,39.89a4.174,4.174,0,0,1-1.741-.74,3.706,3.706,0,0,1-1.145-1.382,4.167,4.167,0,0,1-1.729,1.585m.108-8.524a4.911,4.911,0,0,0-1.359-.191,2.961,2.961,0,0,0-2.277.858,3.131,3.131,0,0,0-.8,2.218,2.643,2.643,0,0,0,2.742,2.838,2.863,2.863,0,0,0,1.18-.239,2.788,2.788,0,0,0,.93-.667,2.882,2.882,0,0,0,.6-1.026,4.077,4.077,0,0,0,.2-1.311V31.282a7.728,7.728,0,0,0-1.216-.453" transform="translate(79.23 8.982)"/>
      <path class="b" d="M256.836,29.512a3.632,3.632,0,0,1,1.515-1.621,4.158,4.158,0,0,1,1.943-.477h.405l.5,3.29h-.357a4.8,4.8,0,0,0-2.455.573,5.517,5.517,0,0,0-1.551,1.288v7.081h-3.647V27.534h3.647Z" transform="translate(83.23 9.012)"/>
      <path class="b" d="M198.741,50.384h-7.129V53.65h6.676v3.386h-6.676V60.3h7.248v3.505H187.606V46.879h11.135Z" transform="translate(61.671 15.41)"/>
      <path class="b" d="M202.017,53.168a.642.642,0,0,0-.322.6c0,.287.207.529.619.728a13.458,13.458,0,0,0,1.956.679,6.216,6.216,0,0,1,2.539,1.311,3.133,3.133,0,0,1,.894,2.409,3.65,3.65,0,0,1-1.288,2.944,5.8,5.8,0,0,1-3.815,1.084,10.832,10.832,0,0,1-2.731-.31,9.161,9.161,0,0,1-2.254-.93l1.241-2.695a6.343,6.343,0,0,0,1.775.787,7.056,7.056,0,0,0,1.92.287q1.549,0,1.549-.834a.785.785,0,0,0-.525-.692,11.132,11.132,0,0,0-1.859-.619,10.2,10.2,0,0,1-1.455-.513,4.189,4.189,0,0,1-1.144-.739,3.278,3.278,0,0,1-.752-1.038,3.351,3.351,0,0,1-.274-1.406,3.751,3.751,0,0,1,.347-1.634,3.462,3.462,0,0,1,.965-1.228,4.481,4.481,0,0,1,1.491-.775,6.34,6.34,0,0,1,1.919-.274,6.121,6.121,0,0,1,2.826.6,4.8,4.8,0,0,1,1.729,1.383L205.081,54.1a2.544,2.544,0,0,0-.978-.8,2.85,2.85,0,0,0-1.288-.323,1.542,1.542,0,0,0-.8.191" transform="translate(64.962 16.537)"/>
      <path class="b" d="M212.171,50.778a5.5,5.5,0,0,1,2.277-.453,5.655,5.655,0,0,1,2.264.441,4.949,4.949,0,0,1,1.753,1.252A5.73,5.73,0,0,1,219.6,54,7.867,7.867,0,0,1,220,56.6a7.048,7.048,0,0,1-.441,2.539,5.751,5.751,0,0,1-1.252,1.99,5.688,5.688,0,0,1-1.931,1.3,6.392,6.392,0,0,1-2.481.465,5.9,5.9,0,0,1-1.919-.262,5.722,5.722,0,0,1-1.371-.691v5.745h-3.7V50.563h3.7v1.5a3.54,3.54,0,0,1,1.563-1.286m3.218,8.011a2.991,2.991,0,0,0,.775-2.194,2.942,2.942,0,0,0-.763-2.158,2.746,2.746,0,0,0-2.05-.775,2.777,2.777,0,0,0-1.681.513,4.823,4.823,0,0,0-1.109,1.084v3.671a4.4,4.4,0,0,0,1.276.5,6.635,6.635,0,0,0,1.419.143,2.858,2.858,0,0,0,2.134-.787" transform="translate(68.018 16.543)"/>
      <path class="b" d="M221.882,62.46a6.176,6.176,0,0,1-2.134-1.288,5.746,5.746,0,0,1-1.383-1.99,6.437,6.437,0,0,1-.489-2.539,7.28,7.28,0,0,1,.465-2.683,5.65,5.65,0,0,1,1.288-1.99,5.419,5.419,0,0,1,1.944-1.228A6.893,6.893,0,0,1,224,50.325a6.146,6.146,0,0,1,2.312.429,5.144,5.144,0,0,1,1.86,1.264,5.907,5.907,0,0,1,1.24,2.1,8.656,8.656,0,0,1,.453,2.932v.573h-8.226q.383,2.24,3.266,2.24a10.048,10.048,0,0,0,1.932-.178,7.983,7.983,0,0,0,1.669-.513l.764,2.861a10.769,10.769,0,0,1-1.932.632,12.184,12.184,0,0,1-2.695.25,7.983,7.983,0,0,1-2.765-.453m.667-8.821a2.8,2.8,0,0,0-.834,1.431h4.435a2.106,2.106,0,0,0-.763-1.443A2.184,2.184,0,0,0,224,53.114a2.126,2.126,0,0,0-1.455.525" transform="translate(71.621 16.543)"/>
      <path class="b" d="M232.676,54.4a3.025,3.025,0,0,0-.775,2.218,2.838,2.838,0,0,0,.811,2.1,3.06,3.06,0,0,0,2.264.811,5.735,5.735,0,0,0,1.766-.262,10.986,10.986,0,0,0,1.717-.74l.881,3.172a8.153,8.153,0,0,1-2.026.882,9.308,9.308,0,0,1-2.6.334,8.09,8.09,0,0,1-2.789-.453,5.853,5.853,0,0,1-2.11-1.3,5.722,5.722,0,0,1-1.335-2.014,6.952,6.952,0,0,1-.465-2.6A6.857,6.857,0,0,1,228.468,54a5.516,5.516,0,0,1,1.288-1.956,5.889,5.889,0,0,1,2.014-1.264,7.38,7.38,0,0,1,2.659-.453,6.914,6.914,0,0,1,2.777.585,5.553,5.553,0,0,1,2.182,1.633l-2.264,2.385a3.738,3.738,0,0,0-1.05-.906,2.874,2.874,0,0,0-1.525-.405,2.53,2.53,0,0,0-1.872.787" transform="translate(74.954 16.543)"/>
      <path class="b" d="M238.176,47.3a2.105,2.105,0,0,1,1.12-1.132,2.163,2.163,0,0,1,1.669,0,2.131,2.131,0,0,1,1.288,1.978,2.122,2.122,0,1,1-4.244,0,2.138,2.138,0,0,1,.167-.846m3.743,16.8h-3.7V51.985h3.7Z" transform="translate(78.24 15.121)"/>
      <path class="b" d="M250.762,62.353a5.445,5.445,0,0,1-2.491.561,5.862,5.862,0,0,1-2.206-.417,5.1,5.1,0,0,1-1.8-1.217,5.744,5.744,0,0,1-1.2-1.955,7.29,7.29,0,0,1-.441-2.611,6.986,6.986,0,0,1,.477-2.635,5.772,5.772,0,0,1,3.326-3.3,6.842,6.842,0,0,1,2.515-.453,6.617,6.617,0,0,1,1.9.274,5.008,5.008,0,0,1,1.537.728l.12-.763h3.29v7.2a2.744,2.744,0,0,0,.215,1.1,1.657,1.657,0,0,0,.954.811l-1.573,3.219a4.174,4.174,0,0,1-1.741-.74,3.706,3.706,0,0,1-1.145-1.382,4.167,4.167,0,0,1-1.729,1.585m.108-8.524a4.911,4.911,0,0,0-1.359-.191,2.961,2.961,0,0,0-2.277.858,3.131,3.131,0,0,0-.8,2.218,2.643,2.643,0,0,0,2.742,2.838,2.863,2.863,0,0,0,1.18-.239,2.788,2.788,0,0,0,.93-.667,2.882,2.882,0,0,0,.6-1.026,4.077,4.077,0,0,0,.2-1.311V54.282a7.728,7.728,0,0,0-1.216-.453" transform="translate(79.755 16.543)"/>
      <path class="b" d="M259.143,60.193a3.041,3.041,0,0,0,2,.6l-.405,3.411H260.6a6.589,6.589,0,0,1-4.471-1.252,5.118,5.118,0,0,1-1.4-3.994V46.126h3.7v12.3a2.165,2.165,0,0,0,.715,1.765" transform="translate(83.737 15.163)"/>
      <path class="b" d="M260.73,47.3a2.111,2.111,0,0,1,.453-.68,2.145,2.145,0,0,1,.667-.452,2.166,2.166,0,0,1,1.67,0,2.16,2.16,0,0,1,.667.452,2.147,2.147,0,0,1,.619,1.527,2.122,2.122,0,1,1-4.244,0,2.139,2.139,0,0,1,.167-.846m3.743,16.8h-3.7V51.985h3.7Z" transform="translate(85.654 15.121)"/>
      <path class="b" d="M265.228,60.327l5.747-6.747h-5.46V50.5h10.753v2.313l-5.795,6.723h6.08v3.076H265.228Z" transform="translate(87.187 16.602)"/>
      <path class="b" d="M282.863,62.353a5.445,5.445,0,0,1-2.491.561,5.862,5.862,0,0,1-2.206-.417,5.1,5.1,0,0,1-1.8-1.217,5.742,5.742,0,0,1-1.2-1.955,7.289,7.289,0,0,1-.441-2.611,6.986,6.986,0,0,1,.477-2.635,5.771,5.771,0,0,1,3.326-3.3,6.842,6.842,0,0,1,2.515-.453,6.617,6.617,0,0,1,1.9.274,5.008,5.008,0,0,1,1.537.728l.12-.763h3.29v7.2a2.744,2.744,0,0,0,.215,1.1,1.657,1.657,0,0,0,.954.811l-1.573,3.219a4.174,4.174,0,0,1-1.741-.74,3.706,3.706,0,0,1-1.145-1.382,4.167,4.167,0,0,1-1.729,1.585m.108-8.524a4.911,4.911,0,0,0-1.359-.191,2.961,2.961,0,0,0-2.277.858,3.131,3.131,0,0,0-.8,2.218,2.643,2.643,0,0,0,2.742,2.838,2.864,2.864,0,0,0,1.18-.239,2.788,2.788,0,0,0,.93-.667,2.882,2.882,0,0,0,.6-1.026,4.076,4.076,0,0,0,.2-1.311V54.282a7.725,7.725,0,0,0-1.216-.453" transform="translate(90.308 16.543)"/>
      <path class="b" d="M289.775,63.877a5.1,5.1,0,0,1-1.8-1.217,5.744,5.744,0,0,1-1.2-1.955,7.291,7.291,0,0,1-.441-2.611,7.12,7.12,0,0,1,.465-2.635,5.74,5.74,0,0,1,1.311-2.014,5.843,5.843,0,0,1,2-1.288,6.842,6.842,0,0,1,2.515-.453,7.24,7.24,0,0,1,1.634.179,8.731,8.731,0,0,1,1.537.512v-6.27h3.7v17.93h-3.7V62.434a4.222,4.222,0,0,1-1.633,1.383,4.967,4.967,0,0,1-2.182.477,5.857,5.857,0,0,1-2.206-.417m4.292-3.184a2.8,2.8,0,0,0,.93-.667,2.879,2.879,0,0,0,.6-1.026,4.04,4.04,0,0,0,.2-1.311V55.663a7.563,7.563,0,0,0-1.229-.453,5.568,5.568,0,0,0-1.513-.191,2.732,2.732,0,0,0-2.134.858,3.182,3.182,0,0,0-.775,2.218,2.643,2.643,0,0,0,2.742,2.838,2.868,2.868,0,0,0,1.18-.239" transform="translate(94.124 15.163)"/>
      <path class="b" d="M298.356,54.1a5.812,5.812,0,0,1,1.371-1.99,6.36,6.36,0,0,1,2.122-1.311,8.015,8.015,0,0,1,5.448,0,6.385,6.385,0,0,1,2.11,1.311,5.812,5.812,0,0,1,1.371,1.99,6.714,6.714,0,0,1,0,5.031,5.812,5.812,0,0,1-1.371,1.99,6.385,6.385,0,0,1-2.11,1.311,8.015,8.015,0,0,1-5.448,0,6.36,6.36,0,0,1-2.122-1.311,5.812,5.812,0,0,1-1.371-1.99,6.714,6.714,0,0,1,0-5.031m4.124,4.649a2.82,2.82,0,0,0,2.086.8,2.767,2.767,0,0,0,2.1-.822,2.96,2.96,0,0,0,.788-2.134,2.886,2.886,0,0,0-.788-2.1,2.758,2.758,0,0,0-2.074-.811,2.838,2.838,0,0,0-2.1.811,3.216,3.216,0,0,0-.012,4.256" transform="translate(97.916 16.543)"/>
    </g>
  </g>
</svg>