<?xml version="1.0" encoding="UTF-8"?><svg id="a" xmlns="http://www.w3.org/2000/svg" viewBox="0 0 755.3 388.95"><defs><style>.b{fill:#1d1d1b;}.c{fill:#85dfff;}</style></defs><polygon class="c" points="517.06 159.62 71.5 159.62 71.5 338.42 555.41 338.42 555.41 233.55 517.06 233.55 517.06 159.62"/><path class="b" d="M517.06,32.53V125.39H42.24v196.24h492.95v-88.09h182.89V32.53h-201.02Zm-1.04,269.94H61.4V144.56h454.62v157.91Zm182.89-88.09h-162.69V51.69h162.69V214.38Z"/><g><path class="b" d="M165.97,274.21h-44.18l.09-88.89h16.44v72.89h27.65v16Z"/><path class="b" d="M196.2,274.21h-16.27v-88.89h16.27v88.89Z"/><path class="b" d="M294.69,210.34h-18.91l-2.04-2.22c-2.66-2.9-5.82-5.11-9.46-6.62-3.64-1.51-7.44-2.27-11.41-2.27-8.46,0-15.54,3.05-21.22,9.16-5.45,5.87-8.17,12.98-8.17,21.33s2.69,14.9,8.08,20.89c5.74,6.4,12.84,9.6,21.31,9.6,3.97,0,7.71-.7,11.23-2.09,3.52-1.39,6.67-3.57,9.46-6.53l1.51-1.6h19.09l-1.07,2.04c-3.97,7.59-9.56,13.57-16.76,17.96-7.2,4.38-14.92,6.58-23.16,6.58-12.62,0-23.35-4.45-32.18-13.35-9.01-9.08-13.51-20.26-13.51-33.54s4.46-24.28,13.38-33.14c8.92-8.87,19.57-13.3,31.96-13.3,8.36,0,16.15,2.11,23.38,6.33,7.23,4.22,12.86,10.14,16.89,17.75l1.6,3.03Z"/><path class="b" d="M355.05,273.99h-48v-88.89h47.91l.09,16h-31.38v20.45h30.05v16h-29.96l-.09,20.45h31.29l.09,16Z"/><path class="b" d="M458.61,229.72c0,12.8-4.53,23.76-13.6,32.89-9.07,9.13-20.03,13.69-32.89,13.69s-23.71-4.56-32.89-13.69c-9.19-9.13-13.78-20.09-13.78-32.89s4.56-23.94,13.69-33.07c9.13-9.13,20.18-13.69,33.16-13.69s24.09,4.48,32.98,13.42c8.89,8.95,13.33,20.06,13.33,33.34Zm-16.71,0c0-8-2.79-14.96-8.36-20.89-5.75-6.1-12.77-9.16-21.07-9.16s-15.75,2.95-21.65,8.85c-5.9,5.9-8.85,12.96-8.85,21.2s2.96,15.44,8.89,21.25c5.93,5.81,13.01,8.71,21.25,8.71s15.26-2.96,21.07-8.89c5.81-5.93,8.71-12.95,8.71-21.07Z"/></g><g><path class="b" d="M605.45,110.62h-21.44v15.13h20.19v11.84h-20.19v26.97h-12.37V98.78h33.81v11.84Z"/><path class="b" d="M663.53,164.55h-10.92v-6.25l-.92,.91c-2.37,2.44-4.89,4.22-7.56,5.35-2.67,1.13-5.66,1.7-8.95,1.7-6.67,0-12.28-2.52-16.84-7.58-4.56-5.05-6.84-11.03-6.84-17.94s2.42-13.49,7.27-18.83c4.84-5.34,10.78-8,17.79-8,2.94,0,5.68,.58,8.22,1.74,2.54,1.16,4.8,2.99,6.77,5.49l1.05,1.32v-7.04h10.92v49.13Zm-11.25-22.37c.04-.35,.08-.75,.1-1.21,.02-.46,.03-.8,.03-1.01,0-3.67-1.18-6.9-3.55-9.69-2.37-2.79-5.46-4.45-9.27-4.98-.79-.09-1.4-.13-1.84-.13-3.64,0-6.86,1.29-9.67,3.86-2.81,2.58-4.41,5.74-4.8,9.49,0,.31-.01,.64-.03,1.02-.02,.37-.03,.62-.03,.75,0,3.62,1.22,6.87,3.65,9.72,2.43,2.86,5.47,4.51,9.11,4.94,.39,.04,.96,.07,1.71,.07,3.64,0,6.85-1.22,9.64-3.67,2.78-2.45,4.44-5.5,4.97-9.17Z"/></g></svg>