<svg width="132" height="132" viewBox="0 0 132 132" fill="none" xmlns="http://www.w3.org/2000/svg">
<mask id="mask0_208_66" style="mask-type:luminance" maskUnits="userSpaceOnUse" x="1" y="1" width="131" height="130">
<path d="M114.959 108.762C112.861 111.088 109.933 114.103 107.496 116.059C105.661 117.533 103.126 119.38 101.17 120.701C99.9353 121.532 98.2089 122.526 96.8978 123.225C95.0403 124.219 92.4726 125.399 90.5277 126.229C89.2166 126.786 87.4137 127.419 86.0588 127.856C84.2888 128.424 81.8959 129.069 80.0821 129.473C78.4432 129.844 76.247 130.271 74.5862 130.434C71.9857 130.697 68.4892 130.926 65.8669 130.992C64.4137 131.035 62.4688 130.893 61.0047 130.795C59.6498 130.697 57.836 130.522 56.503 130.292C54.1101 129.866 50.9196 129.233 48.5595 128.61C47.3467 128.293 45.7405 127.813 44.5714 127.365C43.4023 126.917 42.102 126.469 40.9985 125.999C39.8949 125.53 38.103 125.224 37.0213 124.678C35.9396 124.131 34.6721 122.952 33.6341 122.351C32.5852 121.739 31.2194 120.865 30.1814 120.221C29.1324 119.565 27.7994 118.582 26.8161 117.839C25.8327 117.096 27.7557 112.498 32.9021 103.977C44.7135 84.4344 69.0574 51.6631 87.2607 30.7877C87.3591 30.8642 87.5011 30.8642 87.5667 30.7877C87.6322 30.7113 87.5995 30.5911 87.5011 30.5146C87.4028 30.4382 87.2608 30.4382 87.1952 30.5146C87.1296 30.5911 87.1624 30.7113 87.2607 30.7877C69.0574 51.6631 44.7244 84.4344 32.9021 103.977C27.7557 112.487 25.8327 117.096 26.8161 117.839C25.8436 117.053 24.5215 116.059 23.5819 115.229C22.3144 114.114 20.6427 112.629 19.4954 111.394C17.8018 109.581 15.6493 107.058 14.0978 105.124C13.2674 104.097 12.3277 102.612 11.5738 101.53C11.5519 101.497 9.20276 97.9908 7.21416 93.7305C6.58043 92.3651 5.78282 90.508 5.24743 89.0988C4.76667 87.8426 4.2094 86.1276 3.7942 84.8495C3.379 83.5933 2.18803 79.333 1.59801 74.8651C1.35763 73.019 1.13909 70.5284 1.04075 68.6714C0.964267 67.2185 1.01891 65.285 1.01891 63.8322C1.01891 61.7457 1.28115 58.9601 1.61986 56.9065C2.11155 53.9243 3.02936 50.0026 3.7942 47.086C4.38423 44.8357 5.60799 41.9518 6.50395 39.7999C7.1049 38.3579 8.11011 36.5118 8.8094 35.1135C9.92389 32.8741 11.8579 30.1432 13.2455 28.0568C14.2507 26.5384 15.7804 24.6376 17.0151 23.3049C19.1458 21.0109 22.0959 18.0397 24.4778 16.0078C26.2697 14.4894 28.7828 12.5778 30.8042 11.3652C32.0826 10.6006 33.7543 9.53005 35.0764 8.84185C36.9557 7.86963 39.5125 6.68987 41.4465 5.83781C43.1947 5.07315 45.5876 4.23204 47.4341 3.74047C48.7671 3.3909 50.5481 2.87743 51.903 2.59342C53.542 2.24385 55.7382 1.82881 57.4099 1.63218C60.3163 1.29355 62.6873 1.05322 66.7738 1.086C68.0413 1.086 69.7239 1.17337 70.9914 1.27168C72.3462 1.38092 74.16 1.55566 75.493 1.77413C76.6949 1.97076 78.312 2.24389 79.503 2.49514C80.7486 2.75731 82.3985 3.12871 83.6113 3.51104C85.8949 4.22109 88.8997 5.28072 91.1396 6.13277C92.2759 6.56973 93.7401 7.26882 94.8218 7.81501C95.9035 8.3612 97.3239 9.104 98.3619 9.7048C99.4108 10.3165 100.777 11.1904 101.804 11.835C102.853 12.4904 104.164 13.4954 105.169 14.2163C105.89 14.7297 107.955 16.2809 111.452 19.6127C112.675 20.7706 114.183 22.4419 115.298 23.6982C116.117 24.6267 117.144 25.9375 117.898 26.9207C119.832 29.4441 121.755 32.5246 122.815 34.4581C123.558 35.8127 125.285 38.9915 126.76 42.935C127.229 44.1912 127.83 45.8953 128.213 47.1843C128.683 48.7901 129.273 50.9421 129.6 52.5806C129.874 53.957 130.234 55.7922 130.409 57.1795C130.638 59.0366 130.879 61.5163 130.966 63.3842C131.119 66.3009 130.933 70.2116 130.649 73.1174C130.442 75.2257 129.928 78.0112 129.502 80.0867C129.196 81.5723 128.606 83.5168 128.213 84.9915C127.612 87.2418 126.421 90.1366 125.503 92.2776C124.52 94.5498 123.001 97.5102 121.69 99.6075C119.996 102.295 117.516 105.747 115.494 108.194C115.352 108.368 115.145 108.609 114.992 108.773L114.959 108.762Z" fill="white"/>
</mask>
<g mask="url(#mask0_208_66)">
<path d="M114.959 108.761C112.468 111.524 106.622 118.002 96.8869 123.213C94.4831 124.502 90.6588 126.348 86.0479 127.834C83.9719 128.5 78.4322 130.018 74.5752 130.412C69.8332 130.903 66.9814 131.187 61.0047 130.772C55.3667 130.379 50.5918 129.112 48.5595 128.576C47.2593 128.238 42.6156 126.905 37.1634 124.218C32.8256 122.066 30.8151 120.646 26.8051 117.806C25.8218 117.063 27.7448 112.464 32.8911 103.943C44.7025 84.4006 69.0465 51.6293 87.2498 30.7539C87.3482 30.8304 87.4902 30.8304 87.5558 30.7539C87.6213 30.6775 87.5885 30.5573 87.4902 30.4808C87.3919 30.4044 87.2498 30.4044 87.1843 30.4808C87.1187 30.5573 87.1515 30.6775 87.2498 30.7539C69.0465 51.6293 44.7135 84.4006 32.8911 103.943C27.7448 112.453 25.8218 117.063 26.8051 117.806C23.7348 115.326 21.5168 113.545 19.4736 111.371C15.3871 107.002 14.7971 106.161 11.5519 101.518C10.0113 99.3225 8.31775 96.1437 7.19234 93.7186C5.97951 91.1297 4.64649 87.5576 3.77238 84.8376C3.35717 83.5813 2.16619 79.321 1.57617 74.8532C0.997069 70.44 0.99707 69.9485 0.99707 63.8202C0.99707 61.7338 1.25931 58.9482 1.59802 56.8945C2.08971 53.9123 3.00753 49.9907 3.77238 47.0741C4.3624 44.8238 5.58613 41.9399 6.48209 39.7879C7.08304 38.346 8.08829 36.4998 8.78758 35.1016C9.90206 32.8622 11.836 30.1313 13.2237 28.0449C13.3766 27.8045 17.1681 22.1788 24.4669 15.9959C33.4593 8.37112 45.7733 2.99665 57.399 1.62026C65.6593 0.64804 71.5923 1.12865 75.1106 1.71853C79.0113 2.36304 86.2774 3.56467 94.7999 7.81402C111.485 16.1379 119.799 28.9952 122.608 34.1403C124.006 36.7074 127.721 43.5238 129.589 52.5906C131.655 62.5967 130.988 69.446 130.638 73.1164C130.234 77.3657 128.999 84.1384 125.492 92.2657C122.083 100.153 117.461 105.778 115.484 108.182C115.342 108.356 115.134 108.597 114.981 108.761" fill="white"/>
<path d="M75.3069 45.0638C73.8319 46.1671 72.3131 48.2317 71.4718 49.8703C56.7758 68.4407 41.5117 89.7093 32.9017 103.954C27.7554 112.464 25.8323 117.073 26.8157 117.816C25.8433 117.03 24.554 115.992 23.5815 115.205C22.3468 114.069 20.686 112.562 19.495 111.371L16.6979 108.323C15.8784 107.308 14.7639 105.986 13.9882 104.948L11.5734 101.507C10.8523 100.327 9.86891 98.7652 9.19147 97.5526L7.2138 93.6965C6.61285 92.3092 5.78246 90.474 5.24707 89.0648L3.79384 84.8155C3.36772 83.1987 2.76678 81.0577 2.40621 79.4191L1.59765 74.8202C1.4119 72.9632 1.13873 70.4835 1.0404 68.6264L1.01855 63.7872C1.1606 61.7117 1.35728 58.9261 1.61951 56.8616L2.51548 51.9349C3.1055 49.7065 3.90311 46.7461 4.61332 44.5504L6.5145 39.7549C7.60714 37.5264 9.10407 34.5771 10.3278 32.4251L13.2451 28.0118C14.3706 26.5808 15.8347 24.6364 17.0148 23.26L20.6314 19.4367C22.4124 17.8309 24.8053 15.7117 26.6737 14.226L30.8038 11.3312C32.6613 10.2388 35.1416 8.77503 37.0537 7.78097L41.457 5.80377C43.249 5.15927 45.62 4.27446 47.4447 3.70642L51.9136 2.55944C53.5635 2.25357 55.7597 1.82754 57.4205 1.59814L61.8019 1.1721C63.2988 1.1284 65.2874 1.03011 66.7844 1.05195L71.0019 1.23764C72.3568 1.39057 74.1597 1.55445 75.5036 1.74016L79.5136 2.4611C80.7482 2.76696 82.3981 3.12751 83.6219 3.47707L87.4243 4.67866C88.5606 5.11561 90.0903 5.66181 91.2157 6.13154L94.8324 7.7919C95.8922 8.35994 97.3345 9.08096 98.3725 9.68176L101.814 11.8118C102.82 12.5219 104.196 13.4505 105.18 14.1933L108.414 16.804C109.649 17.9401 111.309 19.4476 112.5 20.6383L115.297 23.6861C116.117 24.702 117.231 26.0237 118.007 27.0615L120.422 30.5025C121.143 31.6822 122.126 33.2443 122.804 34.4569L124.782 38.3129C125.382 39.7003 126.213 41.5354 126.748 42.9446L128.201 47.194C128.628 48.8107 129.229 50.9627 129.589 52.5903L130.398 57.1893C130.583 59.0463 130.857 61.526 130.955 63.3939L130.977 68.2332C130.835 70.3196 130.638 73.0942 130.376 75.1697L129.48 80.0964C128.89 82.3248 128.092 85.2961 127.382 87.4809L125.481 92.2764C124.388 94.5049 122.891 97.4543 121.668 99.6063L118.75 104.019C117.625 105.45 116.161 107.395 114.981 108.771L111.364 112.595C109.583 114.2 107.201 116.32 105.322 117.805L101.192 120.7C99.334 121.792 96.8646 123.256 94.9525 124.239L90.5492 126.217C88.7682 126.861 86.3863 127.746 84.5725 128.303L80.1036 129.45C78.4537 129.756 76.2684 130.182 74.6076 130.411L70.2262 130.837C68.7292 130.881 66.7406 130.979 65.2437 130.957L61.0262 130.772C59.6713 130.619 57.8685 130.455 56.5245 130.269L52.5145 129.548C51.2798 129.242 49.63 128.882 48.4062 128.532L44.6038 127.331C43.4675 126.894 41.9378 126.348 40.8124 125.878L37.1958 124.218C36.1359 123.649 34.6936 122.918 33.6556 122.317L30.2029 120.187C29.1867 119.477 27.8209 118.548 26.8376 117.805C25.8542 117.062 27.7772 112.464 32.9235 103.943C41.5335 89.6984 56.7976 68.4298 71.4936 49.8594C71.2314 50.5039 70.8817 51.3669 70.6195 52.0114C72.4551 74.6127 89.5549 66.398 91.0846 64.9779C99.4542 57.2002 92.1882 43.0101 82.5839 43.0101C80.9377 43.0101 78.5229 43.6911 75.3397 45.053C79.4808 39.9297 83.5126 35.0904 87.2932 30.7537C83.5236 35.0795 79.4808 39.9188 75.3397 45.053" fill="white"/>
<path d="M76.9903 42.9774C71.986 46.7789 70.1176 48.199 69.8007 51.9786C55.6292 70.0356 41.1846 90.2446 32.8915 103.954C27.7451 112.464 25.8221 117.073 26.8055 117.816C25.833 117.03 24.5437 115.992 23.5713 115.205C22.3366 114.069 20.6758 112.562 19.4848 111.371L16.6876 108.323C15.8682 107.308 14.7537 105.986 13.9779 104.948L11.5632 101.507C10.8421 100.327 9.85865 98.7652 9.18122 97.5526L7.20355 93.6965C6.6026 92.3092 5.77221 90.474 5.23682 89.0648L3.78359 84.8155C3.35746 83.1987 2.75652 81.0577 2.39595 79.4191L1.5874 74.8202C1.40165 72.9632 1.1285 70.4835 1.03016 68.6264L1.0083 63.7872C1.15034 61.7117 1.34702 58.9261 1.60925 56.8616L2.50522 51.9349C3.09525 49.7065 3.89285 46.7461 4.60307 44.5504L6.50428 39.7549C7.59692 37.5264 9.09382 34.5771 10.3176 32.4251L13.2349 28.0118C14.3603 26.5808 15.8245 24.6364 17.0045 23.26L20.6211 19.4367C22.4021 17.8309 24.795 15.7117 26.6634 14.226L30.7936 11.3312C32.6511 10.2388 35.1313 8.77503 37.0435 7.78097L41.4468 5.80377C43.2387 5.15927 45.6097 4.27446 47.4344 3.70642L51.9033 2.55944C53.5532 2.25357 55.7494 1.82754 57.4102 1.59814L61.7917 1.1721C63.2886 1.1284 65.2772 1.03011 66.7741 1.05195L70.9917 1.23764C72.3466 1.39057 74.1494 1.55445 75.4934 1.74016L79.5033 2.4611C80.738 2.76696 82.3879 3.12751 83.6116 3.47707L87.414 4.67866C88.5504 5.11561 90.0801 5.66181 91.2055 6.13154L94.8221 7.7919C95.882 8.35994 97.3242 9.08096 98.3622 9.68176L101.804 11.8118C102.809 12.5219 104.186 13.4505 105.169 14.1933L108.404 16.804C109.638 17.9401 111.299 19.4476 112.49 20.6383L115.287 23.6861C116.107 24.702 117.221 26.0237 117.997 27.0615L120.412 30.5025C121.133 31.6822 122.116 33.2443 122.794 34.4569L124.771 38.3129C125.372 39.7003 126.203 41.5354 126.738 42.9446L128.191 47.194C128.617 48.8107 129.218 50.9627 129.579 52.5903L130.387 57.1893C130.573 59.0463 130.846 61.526 130.945 63.3939L130.967 68.2332C130.825 70.3196 130.628 73.0942 130.366 75.1697L129.47 80.0964C128.88 82.3248 128.082 85.2961 127.372 87.4809L125.471 92.2764C124.378 94.5049 122.881 97.4543 121.657 99.6063L118.74 104.019C117.615 105.45 116.15 107.395 114.97 108.771L111.354 112.595C109.573 114.2 107.191 116.32 105.311 117.805L101.181 120.7C99.3238 121.792 96.8544 123.256 94.9423 124.239L90.539 126.217C88.758 126.861 86.376 127.746 84.5623 128.303L80.0934 129.45C78.4435 129.756 76.2582 130.182 74.5974 130.411L70.2159 130.837C68.719 130.881 66.7304 130.979 65.2335 130.957L61.0159 130.772C59.661 130.619 57.8582 130.455 56.5143 130.269L52.5043 129.548C51.2696 129.242 49.6197 128.882 48.396 128.532L44.5936 127.331C43.4572 126.894 41.9275 126.348 40.8021 125.878L37.1855 124.218C36.1256 123.649 34.6834 122.918 33.6454 122.317L30.1926 120.187C29.1765 119.477 27.8107 118.548 26.8273 117.805C25.844 117.062 27.767 112.464 32.9133 103.943C41.2064 90.2337 55.6511 70.0247 69.8226 51.9677C69.8881 52.9726 69.9865 54.3163 70.052 55.3213C72.3575 70.1667 86.682 71.0406 92.1998 65.1308C100.176 56.5884 92.7679 42.3766 82.9124 42.1691C82.8687 42.1691 77.9081 42.5405 77.0121 42.9774C80.5632 38.6188 84.0159 34.5006 87.272 30.7646C84.0159 34.5006 80.5523 38.6188 77.0121 42.9774" fill="white"/>
<path d="M77.9074 41.8632C75.9953 42.5514 69.7235 45.3806 69.068 52.929C55.1368 70.7347 41.0528 90.4849 32.9017 103.954C27.7554 112.464 25.8323 117.073 26.8157 117.816C25.8433 117.03 24.554 115.992 23.5815 115.205C22.3468 114.069 20.686 112.562 19.495 111.371L16.6979 108.323C15.8784 107.308 14.7639 105.986 13.9882 104.948L11.5734 101.507C10.8523 100.327 9.86891 98.7652 9.19147 97.5526L7.2138 93.6965C6.61285 92.3092 5.78246 90.474 5.24707 89.0648L3.79384 84.8155C3.36772 83.1987 2.76678 81.0577 2.40621 79.4191L1.59765 74.8202C1.4119 72.9632 1.13873 70.4835 1.0404 68.6264L1.01855 63.7872C1.1606 61.7117 1.35728 58.9261 1.61951 56.8616L2.51548 51.9349C3.1055 49.7065 3.90311 46.7461 4.61332 44.5504L6.5145 39.7549C7.60714 37.5264 9.10407 34.5771 10.3278 32.4251L13.2451 28.0118C14.3706 26.5808 15.8347 24.6364 17.0148 23.26L20.6314 19.4367C22.4124 17.8309 24.8053 15.7117 26.6737 14.226L30.8038 11.3312C32.6613 10.2388 35.1416 8.77503 37.0537 7.78097L41.457 5.80377C43.249 5.15927 45.62 4.27446 47.4447 3.70642L51.9136 2.55944C53.5635 2.25357 55.7597 1.82754 57.4205 1.59814L61.8019 1.1721C63.2988 1.1284 65.2874 1.03011 66.7844 1.05195L71.0019 1.23764C72.3568 1.39057 74.1597 1.55445 75.5036 1.74016L79.5136 2.4611C80.7482 2.76696 82.3981 3.12751 83.6219 3.47707L87.4243 4.67866C88.5606 5.11561 90.0903 5.66181 91.2157 6.13154L94.8324 7.7919C95.8922 8.35994 97.3345 9.08096 98.3725 9.68176L101.814 11.8118C102.82 12.5219 104.196 13.4505 105.18 14.1933L108.414 16.804C109.649 17.9401 111.309 19.4476 112.5 20.6383L115.297 23.6861C116.117 24.702 117.231 26.0237 118.007 27.0615L120.422 30.5025C121.143 31.6822 122.126 33.2443 122.804 34.4569L124.782 38.3129C125.382 39.7003 126.213 41.5354 126.748 42.9446L128.201 47.194C128.628 48.8107 129.229 50.9627 129.589 52.5903L130.398 57.1893C130.583 59.0463 130.857 61.526 130.955 63.3939L130.977 68.2332C130.835 70.3196 130.638 73.0942 130.376 75.1697L129.48 80.0964C128.89 82.3248 128.092 85.2961 127.382 87.4809L125.481 92.2764C124.388 94.5049 122.891 97.4543 121.668 99.6063L118.75 104.019C117.625 105.45 116.161 107.395 114.981 108.771L111.364 112.595C109.583 114.2 107.201 116.32 105.322 117.805L101.192 120.7C99.334 121.792 96.8646 123.256 94.9525 124.239L90.5492 126.217C88.7682 126.861 86.3863 127.746 84.5725 128.303L80.1036 129.45C78.4537 129.756 76.2684 130.182 74.6076 130.411L70.2262 130.837C68.7292 130.881 66.7406 130.979 65.2437 130.957L61.0262 130.772C59.6713 130.619 57.8685 130.455 56.5245 130.269L52.5145 129.548C51.2798 129.242 49.63 128.882 48.4062 128.532L44.6038 127.331C43.4675 126.894 41.9378 126.348 40.8124 125.878L37.1958 124.218C36.1359 123.649 34.6936 122.918 33.6556 122.317L30.2029 120.187C29.1867 119.477 27.8209 118.548 26.8376 117.805C25.8542 117.062 27.7772 112.464 32.9235 103.943C41.0637 90.474 55.1587 70.7238 69.0898 52.918C69.1772 53.9339 69.2865 55.2995 69.3739 56.3154C71.4281 69.7188 87.1839 73.5094 93.543 64.9233C101.235 54.5348 91.7948 40.4322 80.9996 41.4263C80.0708 41.5136 78.858 41.7758 77.9293 41.8522C81.1525 37.9087 84.2993 34.1728 87.2822 30.7537C84.2993 34.1728 81.1635 37.9087 77.9293 41.8522" fill="white"/>
<path d="M78.7385 40.8473C69.1998 44.3319 68.6316 50.5366 68.3147 53.8793C54.624 71.4338 40.8896 90.7252 32.8915 103.954C27.7451 112.464 25.8221 117.073 26.8055 117.816C25.833 117.03 24.5437 115.992 23.5713 115.205C22.3366 114.069 20.6758 112.562 19.4848 111.371L16.6876 108.323C15.8682 107.308 14.7537 105.986 13.9779 104.948L11.5632 101.507C10.8421 100.327 9.85865 98.7652 9.18122 97.5526L7.20355 93.6965C6.6026 92.3092 5.77221 90.474 5.23682 89.0648L3.78359 84.8155C3.35746 83.1987 2.75652 81.0577 2.39595 79.4191L1.5874 74.8202C1.40165 72.9632 1.1285 70.4835 1.03016 68.6264L1.0083 63.7872C1.15034 61.7117 1.34702 58.9261 1.60925 56.8616L2.50522 51.9349C3.09525 49.7065 3.89285 46.7461 4.60307 44.5504L6.50428 39.7549C7.59692 37.5264 9.09382 34.5771 10.3176 32.4251L13.2349 28.0118C14.3603 26.5808 15.8245 24.6364 17.0045 23.26L20.6211 19.4367C22.4021 17.8309 24.795 15.7117 26.6634 14.226L30.7936 11.3312C32.6511 10.2388 35.1313 8.77503 37.0435 7.78097L41.4468 5.80377C43.2387 5.15927 45.6097 4.27446 47.4344 3.70642L51.9033 2.55944C53.5532 2.25357 55.7494 1.82754 57.4102 1.59814L61.7917 1.1721C63.2886 1.1284 65.2772 1.03011 66.7741 1.05195L70.9917 1.23764C72.3466 1.39057 74.1494 1.55445 75.4934 1.74016L79.5033 2.4611C80.738 2.76696 82.3879 3.12751 83.6116 3.47707L87.414 4.67866C88.5504 5.11561 90.0801 5.66181 91.2055 6.13154L94.8221 7.7919C95.882 8.35994 97.3242 9.08096 98.3622 9.68176L101.804 11.8118C102.809 12.5219 104.186 13.4505 105.169 14.1933L108.404 16.804C109.638 17.9401 111.299 19.4476 112.49 20.6383L115.287 23.6861C116.107 24.702 117.221 26.0237 117.997 27.0615L120.412 30.5025C121.133 31.6822 122.116 33.2443 122.794 34.4569L124.771 38.3129C125.372 39.7003 126.203 41.5354 126.738 42.9446L128.191 47.194C128.617 48.8107 129.218 50.9627 129.579 52.5903L130.387 57.1893C130.573 59.0463 130.846 61.526 130.945 63.3939L130.967 68.2332C130.825 70.3196 130.628 73.0942 130.366 75.1697L129.47 80.0964C128.88 82.3248 128.082 85.2961 127.372 87.4809L125.471 92.2764C124.378 94.5049 122.881 97.4543 121.657 99.6063L118.74 104.019C117.615 105.45 116.15 107.395 114.97 108.771L111.354 112.595C109.573 114.2 107.191 116.32 105.311 117.805L101.181 120.7C99.3238 121.792 96.8544 123.256 94.9423 124.239L90.539 126.217C88.758 126.861 86.376 127.746 84.5623 128.303L80.0934 129.45C78.4435 129.756 76.2582 130.182 74.5974 130.411L70.2159 130.837C68.719 130.881 66.7304 130.979 65.2335 130.957L61.0159 130.772C59.661 130.619 57.8582 130.455 56.5143 130.269L52.5043 129.548C51.2696 129.242 49.6197 128.882 48.396 128.532L44.5936 127.331C43.4572 126.894 41.9275 126.348 40.8021 125.878L37.1855 124.218C36.1256 123.649 34.6834 122.918 33.6454 122.317L30.1926 120.187C29.1765 119.477 27.8107 118.548 26.8273 117.805C25.844 117.062 27.767 112.464 32.9133 103.943C40.9114 90.7143 54.6459 71.4229 68.3366 53.8684C68.4459 54.9061 68.577 56.2826 68.6862 57.3203C74.4772 75.4101 91.6862 72.0019 96.0131 62.1486C97.805 58.0741 99.0069 39.5255 78.7604 40.8473C81.6996 37.2752 84.5513 33.8888 87.2829 30.7646C84.5622 33.8888 81.6996 37.2752 78.7604 40.8473" fill="white"/>
<path d="M79.5689 39.8423C76.8701 41.8086 73.1988 42.1254 70.9808 44.9C67.8449 48.8216 67.7793 50.2089 67.5717 54.8297C54.1323 72.1329 40.7475 90.9656 32.8915 103.954C27.7451 112.464 25.8221 117.073 26.8055 117.816C25.833 117.03 24.5437 115.992 23.5713 115.205C22.3366 114.069 20.6758 112.562 19.4848 111.371L16.6876 108.323C15.8682 107.308 14.7537 105.986 13.9779 104.948L11.5632 101.507C10.8421 100.327 9.85865 98.7652 9.18122 97.5526L7.20355 93.6965C6.6026 92.3092 5.77221 90.474 5.23682 89.0648L3.78359 84.8155C3.35746 83.1987 2.75652 81.0577 2.39595 79.4191L1.5874 74.8202C1.40165 72.9632 1.1285 70.4835 1.03016 68.6264L1.0083 63.7872C1.15034 61.7117 1.34702 58.9261 1.60925 56.8616L2.50522 51.9349C3.09525 49.7065 3.89285 46.7461 4.60307 44.5504L6.50428 39.7549C7.59692 37.5264 9.09382 34.5771 10.3176 32.4251L13.2349 28.0118C14.3603 26.5808 15.8245 24.6364 17.0045 23.26L20.6211 19.4367C22.4021 17.8309 24.795 15.7117 26.6634 14.226L30.7936 11.3312C32.6511 10.2388 35.1313 8.77503 37.0435 7.78097L41.4468 5.80377C43.2387 5.15927 45.6097 4.27446 47.4344 3.70642L51.9033 2.55944C53.5532 2.25357 55.7494 1.82754 57.4102 1.59814L61.7917 1.1721C63.2886 1.1284 65.2772 1.03011 66.7741 1.05195L70.9917 1.23764C72.3466 1.39057 74.1494 1.55445 75.4934 1.74016L79.5033 2.4611C80.738 2.76696 82.3879 3.12751 83.6116 3.47707L87.414 4.67866C88.5504 5.11561 90.0801 5.66181 91.2055 6.13154L94.8221 7.7919C95.882 8.35994 97.3242 9.08096 98.3622 9.68176L101.804 11.8118C102.809 12.5219 104.186 13.4505 105.169 14.1933L108.404 16.804C109.638 17.9401 111.299 19.4476 112.49 20.6383L115.287 23.6861C116.107 24.702 117.221 26.0237 117.997 27.0615L120.412 30.5025C121.133 31.6822 122.116 33.2443 122.794 34.4569L124.771 38.3129C125.372 39.7003 126.203 41.5354 126.738 42.9446L128.191 47.194C128.617 48.8107 129.218 50.9627 129.579 52.5903L130.387 57.1893C130.573 59.0463 130.846 61.526 130.945 63.3939L130.967 68.2332C130.825 70.3196 130.628 73.0942 130.366 75.1697L129.47 80.0964C128.88 82.3248 128.082 85.2961 127.372 87.4809L125.471 92.2764C124.378 94.5049 122.881 97.4543 121.657 99.6063L118.74 104.019C117.615 105.45 116.15 107.395 114.97 108.771L111.354 112.595C109.573 114.2 107.191 116.32 105.311 117.805L101.181 120.7C99.3238 121.792 96.8544 123.256 94.9423 124.239L90.539 126.217C88.758 126.861 86.376 127.746 84.5623 128.303L80.0934 129.45C78.4435 129.756 76.2582 130.182 74.5974 130.411L70.2159 130.837C68.719 130.881 66.7304 130.979 65.2335 130.957L61.0159 130.772C59.661 130.619 57.8582 130.455 56.5143 130.269L52.5043 129.548C51.2696 129.242 49.6197 128.882 48.396 128.532L44.5936 127.331C43.4572 126.894 41.9275 126.348 40.8021 125.878L37.1855 124.218C36.1256 123.649 34.6834 122.918 33.6454 122.317L30.1926 120.187C29.1765 119.477 27.8107 118.548 26.8273 117.805C25.844 117.062 27.767 112.464 32.9133 103.943C40.7694 90.9546 54.1542 72.1221 67.5936 54.8188C67.6701 55.5179 67.7575 56.4464 67.834 57.1455C74.4881 77.278 91.4677 71.2919 95.8492 64.7157C104.547 51.6728 88.911 36.1937 79.5798 39.8314" fill="white"/>
<path d="M80.3877 38.8482C77.2628 41.0548 72.9468 41.0767 70.3682 44.2992C67.2105 48.2427 67.1231 49.9905 66.839 55.791C53.6509 72.8211 40.6157 91.2059 32.9017 103.954C27.7554 112.464 25.8323 117.073 26.8157 117.816C25.8433 117.03 24.554 115.992 23.5815 115.205C22.3468 114.069 20.686 112.562 19.495 111.371L16.6979 108.323C15.8784 107.308 14.7639 105.986 13.9882 104.948L11.5734 101.507C10.8523 100.327 9.86891 98.7652 9.19147 97.5526L7.2138 93.6965C6.61285 92.3092 5.78246 90.474 5.24707 89.0648L3.79384 84.8155C3.36772 83.1987 2.76678 81.0577 2.40621 79.4191L1.59765 74.8202C1.4119 72.9632 1.13873 70.4835 1.0404 68.6264L1.01855 63.7872C1.1606 61.7117 1.35728 58.9261 1.61951 56.8616L2.51548 51.9349C3.1055 49.7065 3.90311 46.7461 4.61332 44.5504L6.5145 39.7549C7.60714 37.5264 9.10407 34.5771 10.3278 32.4251L13.2451 28.0118C14.3706 26.5808 15.8347 24.6364 17.0148 23.26L20.6314 19.4367C22.4124 17.8309 24.8053 15.7117 26.6737 14.226L30.8038 11.3312C32.6613 10.2388 35.1416 8.77503 37.0537 7.78097L41.457 5.80377C43.249 5.15927 45.62 4.27446 47.4447 3.70642L51.9136 2.55944C53.5635 2.25357 55.7597 1.82754 57.4205 1.59814L61.8019 1.1721C63.2988 1.1284 65.2874 1.03011 66.7844 1.05195L71.0019 1.23764C72.3568 1.39057 74.1597 1.55445 75.5036 1.74016L79.5136 2.4611C80.7482 2.76696 82.3981 3.12751 83.6219 3.47707L87.4243 4.67866C88.5606 5.11561 90.0903 5.66181 91.2157 6.13154L94.8324 7.7919C95.8922 8.35994 97.3345 9.08096 98.3725 9.68176L101.814 11.8118C102.82 12.5219 104.196 13.4505 105.18 14.1933L108.414 16.804C109.649 17.9401 111.309 19.4476 112.5 20.6383L115.297 23.6861C116.117 24.702 117.231 26.0237 118.007 27.0615L120.422 30.5025C121.143 31.6822 122.126 33.2443 122.804 34.4569L124.782 38.3129C125.382 39.7003 126.213 41.5354 126.748 42.9446L128.201 47.194C128.628 48.8107 129.229 50.9627 129.589 52.5903L130.398 57.1893C130.583 59.0463 130.857 61.526 130.955 63.3939L130.977 68.2332C130.835 70.3196 130.638 73.0942 130.376 75.1697L129.48 80.0964C128.89 82.3248 128.092 85.2961 127.382 87.4809L125.481 92.2764C124.388 94.5049 122.891 97.4543 121.668 99.6063L118.75 104.019C117.625 105.45 116.161 107.395 114.981 108.771L111.364 112.595C109.583 114.2 107.201 116.32 105.322 117.805L101.192 120.7C99.334 121.792 96.8646 123.256 94.9525 124.239L90.5492 126.217C88.7682 126.861 86.3863 127.746 84.5725 128.303L80.1036 129.45C78.4537 129.756 76.2684 130.182 74.6076 130.411L70.2262 130.837C68.7292 130.881 66.7406 130.979 65.2437 130.957L61.0262 130.772C59.6713 130.619 57.8685 130.455 56.5245 130.269L52.5145 129.548C51.2798 129.242 49.63 128.882 48.4062 128.532L44.6038 127.331C43.4675 126.894 41.9378 126.348 40.8124 125.878L37.1958 124.218C36.1359 123.649 34.6936 122.918 33.6556 122.317L30.2029 120.187C29.1867 119.477 27.8209 118.548 26.8376 117.805C25.8542 117.062 27.7772 112.464 32.9235 103.943C40.6376 91.195 53.6727 72.8102 66.8608 55.78C68.019 67.6214 84.5069 79.9325 96.4494 65.4039C103.486 56.8396 95.9031 37.9306 82.6931 38.597C82.0048 38.6297 80.9777 38.444 80.4205 38.8482C82.7806 36.008 85.0751 33.299 87.2822 30.7646C85.0751 33.299 82.7696 36.008 80.4205 38.8482" fill="white"/>
<path d="M81.2297 37.8323C77.4819 39.9297 72.7071 40.0171 69.7679 43.6875C65.0696 49.5645 66.1513 56.5775 66.1623 56.6431C53.2036 73.4329 40.4744 91.4134 32.8915 103.954C27.7451 112.464 25.8221 117.073 26.8055 117.816C25.833 117.03 24.5437 115.992 23.5713 115.205C22.3366 114.069 20.6758 112.562 19.4848 111.371L16.6876 108.323C15.8682 107.308 14.7537 105.986 13.9779 104.948L11.5632 101.507C10.8421 100.327 9.85865 98.7652 9.18122 97.5526L7.20355 93.6965C6.6026 92.3092 5.77221 90.474 5.23682 89.0648L3.78359 84.8155C3.35746 83.1987 2.75652 81.0577 2.39595 79.4191L1.5874 74.8202C1.40165 72.9632 1.1285 70.4835 1.03016 68.6264L1.0083 63.7872C1.15034 61.7117 1.34702 58.9261 1.60925 56.8616L2.50522 51.9349C3.09525 49.7065 3.89285 46.7461 4.60307 44.5504L6.50428 39.7549C7.59692 37.5264 9.09382 34.5771 10.3176 32.4251L13.2349 28.0118C14.3603 26.5808 15.8245 24.6364 17.0045 23.26L20.6211 19.4367C22.4021 17.8309 24.795 15.7117 26.6634 14.226L30.7936 11.3312C32.6511 10.2388 35.1313 8.77503 37.0435 7.78097L41.4468 5.80377C43.2387 5.15927 45.6097 4.27446 47.4344 3.70642L51.9033 2.55944C53.5532 2.25357 55.7494 1.82754 57.4102 1.59814L61.7917 1.1721C63.2886 1.1284 65.2772 1.03011 66.7741 1.05195L70.9917 1.23764C72.3466 1.39057 74.1494 1.55445 75.4934 1.74016L79.5033 2.4611C80.738 2.76696 82.3879 3.12751 83.6116 3.47707L87.414 4.67866C88.5504 5.11561 90.0801 5.66181 91.2055 6.13154L94.8221 7.7919C95.882 8.35994 97.3242 9.08096 98.3622 9.68176L101.804 11.8118C102.809 12.5219 104.186 13.4505 105.169 14.1933L108.404 16.804C109.638 17.9401 111.299 19.4476 112.49 20.6383L115.287 23.6861C116.107 24.702 117.221 26.0237 117.997 27.0615L120.412 30.5025C121.133 31.6822 122.116 33.2443 122.794 34.4569L124.771 38.3129C125.372 39.7003 126.203 41.5354 126.738 42.9446L128.191 47.194C128.617 48.8107 129.218 50.9627 129.579 52.5903L130.387 57.1893C130.573 59.0463 130.846 61.526 130.945 63.3939L130.967 68.2332C130.825 70.3196 130.628 73.0942 130.366 75.1697L129.47 80.0964C128.88 82.3248 128.082 85.2961 127.372 87.4809L125.471 92.2764C124.378 94.5049 122.881 97.4543 121.657 99.6063L118.74 104.019C117.615 105.45 116.15 107.395 114.97 108.771L111.354 112.595C109.573 114.2 107.191 116.32 105.311 117.805L101.181 120.7C99.3238 121.792 96.8544 123.256 94.9423 124.239L90.539 126.217C88.758 126.861 86.376 127.746 84.5623 128.303L80.0934 129.45C78.4435 129.756 76.2582 130.182 74.5974 130.411L70.2159 130.837C68.719 130.881 66.7304 130.979 65.2335 130.957L61.0159 130.772C59.661 130.619 57.8582 130.455 56.5143 130.269L52.5043 129.548C51.2696 129.242 49.6197 128.882 48.396 128.532L44.5936 127.331C43.4572 126.894 41.9275 126.348 40.8021 125.878L37.1855 124.218C36.1256 123.649 34.6834 122.918 33.6454 122.317L30.1926 120.187C29.1765 119.477 27.8107 118.548 26.8273 117.805C25.844 117.062 27.767 112.464 32.9133 103.943C40.4962 91.4025 53.2254 73.422 66.1841 56.6321C66.4791 57.5934 66.8725 58.8824 67.1675 59.8437C74.2368 78.1192 93.205 74.3942 98.2967 64.2897C107.311 46.3966 85.338 35.5274 81.2406 37.8214" fill="white"/>
<path d="M82.0813 36.8164C63.5611 39.8313 65.0799 54.502 65.5715 57.4186C52.8205 73.99 40.3644 91.6101 32.9017 103.954C27.7554 112.464 25.8323 117.073 26.8157 117.816C25.8433 117.03 24.554 115.992 23.5815 115.205C22.3468 114.069 20.686 112.562 19.495 111.371L16.6979 108.323C15.8784 107.308 14.7639 105.986 13.9882 104.948L11.5734 101.507C10.8523 100.327 9.86891 98.7652 9.19147 97.5526L7.2138 93.6965C6.61285 92.3092 5.78246 90.474 5.24707 89.0648L3.79384 84.8155C3.36772 83.1987 2.76678 81.0577 2.40621 79.4191L1.59765 74.8202C1.4119 72.9632 1.13873 70.4835 1.0404 68.6264L1.01855 63.7872C1.1606 61.7117 1.35728 58.9261 1.61951 56.8616L2.51548 51.9349C3.1055 49.7065 3.90311 46.7461 4.61332 44.5504L6.5145 39.7549C7.60714 37.5264 9.10407 34.5771 10.3278 32.4251L13.2451 28.0118C14.3706 26.5808 15.8347 24.6364 17.0148 23.26L20.6314 19.4367C22.4124 17.8309 24.8053 15.7117 26.6737 14.226L30.8038 11.3312C32.6613 10.2388 35.1416 8.77503 37.0537 7.78097L41.457 5.80377C43.249 5.15927 45.62 4.27446 47.4447 3.70642L51.9136 2.55944C53.5635 2.25357 55.7597 1.82754 57.4205 1.59814L61.8019 1.1721C63.2988 1.1284 65.2874 1.03011 66.7844 1.05195L71.0019 1.23764C72.3568 1.39057 74.1597 1.55445 75.5036 1.74016L79.5136 2.4611C80.7482 2.76696 82.3981 3.12751 83.6219 3.47707L87.4243 4.67866C88.5606 5.11561 90.0903 5.66181 91.2157 6.13154L94.8324 7.7919C95.8922 8.35994 97.3345 9.08096 98.3725 9.68176L101.814 11.8118C102.82 12.5219 104.196 13.4505 105.18 14.1933L108.414 16.804C109.649 17.9401 111.309 19.4476 112.5 20.6383L115.297 23.6861C116.117 24.702 117.231 26.0237 118.007 27.0615L120.422 30.5025C121.143 31.6822 122.126 33.2443 122.804 34.4569L124.782 38.3129C125.382 39.7003 126.213 41.5354 126.748 42.9446L128.201 47.194C128.628 48.8107 129.229 50.9627 129.589 52.5903L130.398 57.1893C130.583 59.0463 130.857 61.526 130.955 63.3939L130.977 68.2332C130.835 70.3196 130.638 73.0942 130.376 75.1697L129.48 80.0964C128.89 82.3248 128.092 85.2961 127.382 87.4809L125.481 92.2764C124.388 94.5049 122.891 97.4543 121.668 99.6063L118.75 104.019C117.625 105.45 116.161 107.395 114.981 108.771L111.364 112.595C109.583 114.2 107.201 116.32 105.322 117.805L101.192 120.7C99.334 121.792 96.8646 123.256 94.9525 124.239L90.5492 126.217C88.7682 126.861 86.3863 127.746 84.5725 128.303L80.1036 129.45C78.4537 129.756 76.2684 130.182 74.6076 130.411L70.2262 130.837C68.7292 130.881 66.7406 130.979 65.2437 130.957L61.0262 130.772C59.6713 130.619 57.8685 130.455 56.5245 130.269L52.5145 129.548C51.2798 129.242 49.63 128.882 48.4062 128.532L44.6038 127.331C43.4675 126.894 41.9378 126.348 40.8124 125.878L37.1958 124.218C36.1359 123.649 34.6936 122.918 33.6556 122.317L30.2029 120.187C29.1867 119.477 27.8209 118.548 26.8376 117.805C25.8542 117.062 27.7772 112.464 32.9235 103.943C40.3863 91.5991 52.8423 73.9791 65.5934 57.4077C65.9102 58.38 66.3364 59.6689 66.6642 60.6411C74.105 78.8292 93.8818 76.2622 99.5416 64.0057C105.223 51.7055 95.2803 36.2046 82.1031 36.8054C83.8732 34.6972 85.5996 32.6763 87.2713 30.7537C85.5996 32.6763 83.8623 34.6972 82.1031 36.8054" fill="white"/>
<path d="M82.9233 35.8114C78.2468 38.1819 72.3029 37.8105 68.6316 42.3875C63.6492 48.6032 64.414 55.507 64.9713 58.1942C52.4278 74.5362 40.2449 91.7958 32.8915 103.954C27.7451 112.464 25.8221 117.073 26.8055 117.816C25.833 117.03 24.5437 115.992 23.5713 115.205C22.3366 114.069 20.6758 112.562 19.4848 111.371L16.6876 108.323C15.8682 107.308 14.7537 105.986 13.9779 104.948L11.5632 101.507C10.8421 100.327 9.85865 98.7652 9.18122 97.5526L7.20355 93.6965C6.6026 92.3092 5.77221 90.474 5.23682 89.0648L3.78359 84.8155C3.35746 83.1987 2.75652 81.0577 2.39595 79.4191L1.5874 74.8202C1.40165 72.9632 1.1285 70.4835 1.03016 68.6264L1.0083 63.7872C1.15034 61.7117 1.34702 58.9261 1.60925 56.8616L2.50522 51.9349C3.09525 49.7065 3.89285 46.7461 4.60307 44.5504L6.50428 39.7549C7.59692 37.5264 9.09382 34.5771 10.3176 32.4251L13.2349 28.0118C14.3603 26.5808 15.8245 24.6364 17.0045 23.26L20.6211 19.4367C22.4021 17.8309 24.795 15.7117 26.6634 14.226L30.7936 11.3312C32.6511 10.2388 35.1313 8.77503 37.0435 7.78097L41.4468 5.80377C43.2387 5.15927 45.6097 4.27446 47.4344 3.70642L51.9033 2.55944C53.5532 2.25357 55.7494 1.82754 57.4102 1.59814L61.7917 1.1721C63.2886 1.1284 65.2772 1.03011 66.7741 1.05195L70.9917 1.23764C72.3466 1.39057 74.1494 1.55445 75.4934 1.74016L79.5033 2.4611C80.738 2.76696 82.3879 3.12751 83.6116 3.47707L87.414 4.67866C88.5504 5.11561 90.0801 5.66181 91.2055 6.13154L94.8221 7.7919C95.882 8.35994 97.3242 9.08096 98.3622 9.68176L101.804 11.8118C102.809 12.5219 104.186 13.4505 105.169 14.1933L108.404 16.804C109.638 17.9401 111.299 19.4476 112.49 20.6383L115.287 23.6861C116.107 24.702 117.221 26.0237 117.997 27.0615L120.412 30.5025C121.133 31.6822 122.116 33.2443 122.794 34.4569L124.771 38.3129C125.372 39.7003 126.203 41.5354 126.738 42.9446L128.191 47.194C128.617 48.8107 129.218 50.9627 129.579 52.5903L130.387 57.1893C130.573 59.0463 130.846 61.526 130.945 63.3939L130.967 68.2332C130.825 70.3196 130.628 73.0942 130.366 75.1697L129.47 80.0964C128.88 82.3248 128.082 85.2961 127.372 87.4809L125.471 92.2764C124.378 94.5049 122.881 97.4543 121.657 99.6063L118.74 104.019C117.615 105.45 116.15 107.395 114.97 108.771L111.354 112.595C109.573 114.2 107.191 116.32 105.311 117.805L101.181 120.7C99.3238 121.792 96.8544 123.256 94.9423 124.239L90.539 126.217C88.758 126.861 86.376 127.746 84.5623 128.303L80.0934 129.45C78.4435 129.756 76.2582 130.182 74.5974 130.411L70.2159 130.837C68.719 130.881 66.7304 130.979 65.2335 130.957L61.0159 130.772C59.661 130.619 57.8582 130.455 56.5143 130.269L52.5043 129.548C51.2696 129.242 49.6197 128.882 48.396 128.532L44.5936 127.331C43.4572 126.894 41.9275 126.348 40.8021 125.878L37.1855 124.218C36.1256 123.649 34.6834 122.918 33.6454 122.317L30.1926 120.187C29.1765 119.477 27.8107 118.548 26.8273 117.805C25.844 117.062 27.767 112.464 32.9133 103.943C40.2558 91.7848 52.4497 74.5253 64.9931 58.1833C65.3318 59.1555 65.7798 60.4664 66.1294 61.4386C73.909 80.1183 95.6634 76.5899 100.886 63.6234C108.524 44.6488 87.1846 33.6594 82.9451 35.8005" fill="white"/>
<path d="M83.7642 34.8282L83.0431 34.7627C66.0089 36.3467 62.3486 48.7998 64.3918 58.9808C52.0559 75.0824 40.1462 92.0033 32.9129 103.954C27.7666 112.464 25.8436 117.073 26.827 117.816C25.8545 117.03 24.5652 115.992 23.5927 115.205C22.358 114.069 20.6973 112.562 19.5063 111.371L16.7091 108.323C15.8897 107.308 14.7752 105.986 13.9994 104.948L11.5847 101.507C10.8635 100.327 9.88016 98.7652 9.20272 97.5526L7.22505 93.6965C6.6241 92.3092 5.79368 90.474 5.25828 89.0648L3.80509 84.8155C3.37896 83.1987 2.77799 81.0577 2.41742 79.4191L1.60888 74.8202C1.42313 72.9632 1.14998 70.4835 1.05164 68.6264L1.02979 63.7872C1.17183 61.7117 1.36851 58.9261 1.63074 56.8616L2.52669 51.9349C3.11672 49.7065 3.91436 46.7461 4.62457 44.5504L6.52575 39.7549C7.61838 37.5264 9.11529 34.5771 10.339 32.4251L13.2564 28.0118C14.3818 26.5808 15.846 24.6364 17.026 23.26L20.6426 19.4367C22.4236 17.8309 24.8165 15.7117 26.6849 14.226L30.8151 11.3312C32.6726 10.2388 35.1528 8.77503 37.065 7.78097L41.4683 5.80377C43.2602 5.15927 45.6312 4.27446 47.4559 3.70642L51.9248 2.55944C53.5747 2.25357 55.7709 1.82754 57.4317 1.59814L61.8132 1.1721C63.3101 1.1284 65.2987 1.03011 66.7956 1.05195L71.0132 1.23764C72.368 1.39057 74.1709 1.55445 75.5149 1.74016L79.5248 2.4611C80.7595 2.76696 82.4094 3.12751 83.6331 3.47707L87.4355 4.67866C88.5718 5.11561 90.1015 5.66181 91.2269 6.13154L94.8436 7.7919C95.9035 8.35994 97.3457 9.08096 98.3837 9.68176L101.826 11.8118C102.831 12.5219 104.207 13.4505 105.191 14.1933L108.425 16.804C109.66 17.9401 111.321 19.4476 112.512 20.6383L115.309 23.6861C116.128 24.702 117.243 26.0237 118.018 27.0615L120.433 30.5025C121.154 31.6822 122.138 33.2443 122.815 34.4569L124.793 38.3129C125.394 39.7003 126.224 41.5354 126.76 42.9446L128.213 47.194C128.639 48.8107 129.24 50.9627 129.6 52.5903L130.409 57.1893C130.595 59.0463 130.868 61.526 130.966 63.3939L130.988 68.2332C130.846 70.3196 130.649 73.0942 130.387 75.1697L129.491 80.0964C128.901 82.3248 128.103 85.2961 127.393 87.4809L125.492 92.2764C124.399 94.5049 122.903 97.4543 121.679 99.6063L118.761 104.019C117.636 105.45 116.172 107.395 114.992 108.771L111.375 112.595C109.594 114.2 107.212 116.32 105.333 117.805L101.203 120.7C99.3452 121.792 96.8759 123.256 94.9638 124.239L90.5604 126.217C88.7795 126.861 86.3975 127.746 84.5837 128.303L80.1148 129.45C78.465 129.756 76.2797 130.182 74.6189 130.411L70.2374 130.837C68.7405 130.881 66.7519 130.979 65.255 130.957L61.0374 130.772C59.6825 130.619 57.8797 130.455 56.5357 130.269L52.5258 129.548C51.2911 129.242 49.6412 128.882 48.4174 128.532L44.6151 127.331C43.4787 126.894 41.949 126.348 40.8236 125.878L37.207 124.218C36.1471 123.649 34.7048 122.918 33.6668 122.317L30.2141 120.187C29.198 119.477 27.8322 118.548 26.8488 117.805C25.8654 117.062 27.7885 112.464 32.9348 103.943C40.168 91.9815 52.0887 75.0715 64.4137 58.9698C64.7633 59.953 65.244 61.2748 65.5937 62.2579C74.4768 81.7568 96.9742 77.2781 102.295 63.3503C108.512 47.052 93.5106 34.0526 83.797 34.8173" fill="white"/>
<path d="M84.8573 33.5393C81.5138 33.0368 59.1475 35.5055 63.7803 59.7563C51.6629 75.6286 40.0045 92.189 32.8915 103.954C27.7451 112.464 25.8221 117.073 26.8055 117.816C25.833 117.03 24.5437 115.992 23.5713 115.205C22.3366 114.069 20.6758 112.562 19.4848 111.371L16.6876 108.323C15.8682 107.308 14.7537 105.986 13.9779 104.948L11.5632 101.507C10.8421 100.327 9.85865 98.7652 9.18122 97.5526L7.20355 93.6965C6.6026 92.3092 5.77221 90.474 5.23682 89.0648L3.78359 84.8155C3.35746 83.1987 2.75652 81.0577 2.39595 79.4191L1.5874 74.8202C1.40165 72.9632 1.1285 70.4835 1.03016 68.6264L1.0083 63.7872C1.15034 61.7117 1.34702 58.9261 1.60925 56.8616L2.50522 51.9349C3.09525 49.7065 3.89285 46.7461 4.60307 44.5504L6.50428 39.7549C7.59692 37.5264 9.09382 34.5771 10.3176 32.4251L13.2349 28.0118C14.3603 26.5808 15.8245 24.6364 17.0045 23.26L20.6211 19.4367C22.4021 17.8309 24.795 15.7117 26.6634 14.226L30.7936 11.3312C32.6511 10.2388 35.1313 8.77503 37.0435 7.78097L41.4468 5.80377C43.2387 5.15927 45.6097 4.27446 47.4344 3.70642L51.9033 2.55944C53.5532 2.25357 55.7494 1.82754 57.4102 1.59814L61.7917 1.1721C63.2886 1.1284 65.2772 1.03011 66.7741 1.05195L70.9917 1.23764C72.3466 1.39057 74.1494 1.55445 75.4934 1.74016L79.5033 2.4611C80.738 2.76696 82.3879 3.12751 83.6116 3.47707L87.414 4.67866C88.5504 5.11561 90.0801 5.66181 91.2055 6.13154L94.8221 7.7919C95.882 8.35994 97.3242 9.08096 98.3622 9.68176L101.804 11.8118C102.809 12.5219 104.186 13.4505 105.169 14.1933L108.404 16.804C109.638 17.9401 111.299 19.4476 112.49 20.6383L115.287 23.6861C116.107 24.702 117.221 26.0237 117.997 27.0615L120.412 30.5025C121.133 31.6822 122.116 33.2443 122.794 34.4569L124.771 38.3129C125.372 39.7003 126.203 41.5354 126.738 42.9446L128.191 47.194C128.617 48.8107 129.218 50.9627 129.579 52.5903L130.387 57.1893C130.573 59.0463 130.846 61.526 130.945 63.3939L130.967 68.2332C130.825 70.3196 130.628 73.0942 130.366 75.1697L129.47 80.0964C128.88 82.3248 128.082 85.2961 127.372 87.4809L125.471 92.2764C124.378 94.5049 122.881 97.4543 121.657 99.6063L118.74 104.019C117.615 105.45 116.15 107.395 114.97 108.771L111.354 112.595C109.573 114.2 107.191 116.32 105.311 117.805L101.181 120.7C99.3238 121.792 96.8544 123.256 94.9423 124.239L90.539 126.217C88.758 126.861 86.376 127.746 84.5623 128.303L80.0934 129.45C78.4435 129.756 76.2582 130.182 74.5974 130.411L70.2159 130.837C68.719 130.881 66.7304 130.979 65.2335 130.957L61.0159 130.772C59.661 130.619 57.8582 130.455 56.5143 130.269L52.5043 129.548C51.2696 129.242 49.6197 128.882 48.396 128.532L44.5936 127.331C43.4572 126.894 41.9275 126.348 40.8021 125.878L37.1855 124.218C36.1256 123.649 34.6834 122.918 33.6454 122.317L30.1926 120.187C29.1765 119.477 27.8107 118.548 26.8273 117.805C25.844 117.062 27.767 112.464 32.9133 103.943C40.0264 92.1781 51.6739 75.6176 63.8022 59.7454C64.0425 60.4336 64.3703 61.3512 64.6216 62.0394C74.1057 83.166 98.7884 77.7806 103.869 62.4982C110.086 43.7639 90.8121 32.5452 84.8791 33.5393" fill="white"/>
<path d="M86.0366 32.1746C73.657 31.6939 58.3929 40.1817 63.1896 60.5436C51.2799 76.1756 39.8946 92.3864 32.9017 103.966C27.7554 112.475 25.8323 117.085 26.8157 117.828C25.8433 117.041 24.554 116.004 23.5815 115.217C22.3468 114.081 20.686 112.574 19.495 111.383L16.6979 108.335C15.8784 107.319 14.7639 105.997 13.9882 104.96L11.5734 101.519C10.8523 100.339 9.86891 98.7768 9.19147 97.5643L7.2138 93.7082C6.61285 92.3209 5.78246 90.4857 5.24707 89.0765L3.79384 84.8272C3.36772 83.2105 2.76678 81.0694 2.40621 79.4308L1.59765 74.8319C1.4119 72.9749 1.13873 70.4952 1.0404 68.6381L1.01855 63.7989C1.1606 61.7234 1.35728 58.9378 1.61951 56.8732L2.51548 51.9466C3.1055 49.7182 3.90311 46.7578 4.61332 44.5622L6.5145 39.7666C7.60714 37.5382 9.10407 34.5887 10.3278 32.4367L13.2451 28.0235C14.3706 26.5925 15.8347 24.6481 17.0148 23.2717L20.6314 19.4484C22.4124 17.8426 24.8053 15.7234 26.6737 14.2377L30.8038 11.3429C32.6613 10.2505 35.1416 8.78675 37.0537 7.79269L41.457 5.81549C43.249 5.17099 45.62 4.28618 47.4447 3.71814L51.9136 2.57116C53.5635 2.26529 55.7597 1.83926 57.4205 1.60986L61.8019 1.18382C63.2988 1.14012 65.2874 1.04183 66.7844 1.06367L71.0019 1.24936C72.3568 1.40229 74.1597 1.56617 75.5036 1.75188L79.5136 2.47282C80.7482 2.77868 82.3981 3.13916 83.6219 3.48872L87.4243 4.69037C88.5606 5.12733 90.0903 5.67347 91.2157 6.14319L94.8324 7.80362C95.8922 8.37166 97.3345 9.09261 98.3725 9.69342L101.814 11.8236C102.82 12.5336 104.196 13.4621 105.18 14.2049L108.414 16.8157C109.649 17.9518 111.309 19.4593 112.5 20.65L115.297 23.6977C116.117 24.7136 117.231 26.0354 118.007 27.0732L120.422 30.5142C121.143 31.694 122.126 33.2561 122.804 34.4686L124.782 38.3247C125.382 39.712 126.213 41.5472 126.748 42.9563L128.201 47.2057C128.628 48.8224 129.229 50.9744 129.589 52.602L130.398 57.201C130.583 59.058 130.857 61.5377 130.955 63.4057L130.977 68.2449C130.835 70.3313 130.638 73.1059 130.376 75.1815L129.48 80.1081C128.89 82.3365 128.092 85.3078 127.382 87.4926L125.481 92.2881C124.388 94.5166 122.891 97.466 121.668 99.6179L118.75 104.031C117.625 105.462 116.161 107.407 114.981 108.783L111.364 112.606C109.583 114.212 107.201 116.331 105.322 117.817L101.192 120.712C99.334 121.804 96.8646 123.268 94.9525 124.251L90.5492 126.228C88.7682 126.873 86.3863 127.758 84.5725 128.315L80.1036 129.462C78.4537 129.768 76.2684 130.194 74.6076 130.423L70.2262 130.849C68.7292 130.893 66.7406 130.991 65.2437 130.969L61.0262 130.784C59.6713 130.631 57.8685 130.467 56.5245 130.281L52.5145 129.56C51.2798 129.254 49.63 128.894 48.4062 128.544L44.6038 127.342C43.4675 126.906 41.9378 126.359 40.8124 125.89L37.1958 124.229C36.1359 123.661 34.6936 122.929 33.6556 122.329L30.2029 120.198C29.1867 119.488 27.8209 118.56 26.8376 117.817C25.8542 117.074 27.7772 112.475 32.9235 103.955C39.9164 92.3755 51.3126 76.1646 63.2114 60.5327C63.277 60.7293 63.3753 60.9915 63.4409 61.199C74.3454 87.2304 101.202 77.5629 105.791 61.5705C111.517 41.6783 91.0955 31.5082 86.0585 32.1746C86.4628 31.7048 86.8779 31.2351 87.2713 30.7654C86.867 31.2242 86.4628 31.6939 86.0585 32.1746" fill="white"/>
<path d="M87.2064 30.831C69.2762 29.0613 56.6017 44.7697 62.5456 61.3847C50.8762 76.7545 39.7751 92.594 32.9024 103.955C27.7561 112.464 25.833 117.074 26.8164 117.817C22.7081 114.507 22.271 114.158 19.4848 111.383L16.6876 108.335C15.8682 107.319 14.7537 105.997 13.9779 104.96L11.5632 101.519C10.8421 100.339 9.85865 98.7768 9.18122 97.5643L7.20355 93.7082C6.6026 92.3209 5.77221 90.4857 5.23682 89.0765L3.78359 84.8272C3.35746 83.2105 2.75652 81.0694 2.39595 79.4308L1.5874 74.8319C1.40165 72.9749 1.1285 70.4952 1.03016 68.6381L1.0083 63.7989C1.15034 61.7234 1.34702 58.9378 1.60925 56.8732L2.50522 51.9466C3.09525 49.7182 3.89285 46.7578 4.60307 44.5622L6.50428 39.7666C7.59692 37.5382 9.09382 34.5887 10.3176 32.4367L13.2349 28.0235C14.3603 26.5925 15.8245 24.6481 17.0045 23.2717L20.6211 19.4484C22.4021 17.8426 24.795 15.7234 26.6634 14.2377L30.7936 11.3429C32.6511 10.2505 35.1313 8.78675 37.0435 7.79269L41.4468 5.81549C43.2387 5.17099 45.6097 4.28618 47.4344 3.71814L51.9033 2.57116C53.5532 2.26529 55.7494 1.83926 57.4102 1.60986L61.7917 1.18382C63.2886 1.14012 65.2772 1.04183 66.7741 1.06367L70.9917 1.24936C72.3466 1.40229 74.1494 1.56617 75.4934 1.75188L79.5033 2.47282C80.738 2.77868 82.3879 3.13916 83.6116 3.48872L87.414 4.69037C88.5504 5.12733 90.0801 5.67347 91.2055 6.14319L94.8221 7.80362C95.882 8.37166 97.3242 9.09261 98.3622 9.69342L101.804 11.8236C102.809 12.5336 104.186 13.4621 105.169 14.2049L108.404 16.8157C109.638 17.9518 111.299 19.4593 112.49 20.65L115.287 23.6977C116.107 24.7136 117.221 26.0354 117.997 27.0732L120.412 30.5142C121.133 31.694 122.116 33.2561 122.794 34.4686L124.771 38.3247C125.372 39.712 126.203 41.5472 126.738 42.9563L128.191 47.2057C128.617 48.8224 129.218 50.9744 129.579 52.602L130.387 57.201C130.573 59.058 130.846 61.5377 130.945 63.4057L130.967 68.2449C130.825 70.3313 130.628 73.1059 130.366 75.1815L129.47 80.1081C128.88 82.3365 128.082 85.3078 127.372 87.4926L125.471 92.2881C124.378 94.5166 122.881 97.466 121.657 99.6179L118.74 104.031C117.615 105.462 116.15 107.407 114.97 108.783L111.354 112.606C109.573 114.212 107.191 116.331 105.311 117.817L101.181 120.712C99.3238 121.804 96.8544 123.268 94.9423 124.251L90.539 126.228C88.758 126.873 86.376 127.758 84.5623 128.315L80.0934 129.462C78.4435 129.768 76.2582 130.194 74.5974 130.423L70.2159 130.849C68.719 130.893 66.7304 130.991 65.2335 130.969L61.0159 130.784C59.661 130.631 57.8582 130.467 56.5143 130.281L52.5043 129.56C51.2696 129.254 49.6197 128.894 48.396 128.544L44.5936 127.342C43.4572 126.906 41.9275 126.359 40.8021 125.89L37.1855 124.229C36.1256 123.661 34.6834 122.929 33.6454 122.329L30.1926 120.198C29.1765 119.488 27.8107 118.56 26.8273 117.817C25.844 117.074 27.767 112.475 32.9133 103.955C39.786 92.594 50.8872 76.7545 62.5565 61.3847C62.9827 62.3788 63.5508 63.7115 63.9879 64.7056C74.1931 84.8053 102.471 81.9324 107.835 60.2377C108.076 59.2655 113.43 36.3147 87.2174 30.831C87.2501 30.7873 87.2392 30.8091 87.2174 30.831" fill="#FAFAFA"/>
<path d="M32.9017 103.954C27.7554 112.464 25.8323 117.073 26.8157 117.816C25.8433 117.03 24.554 115.992 23.5815 115.205C22.3468 114.069 20.686 112.562 19.495 111.371L16.6979 108.323C15.8784 107.308 14.7639 105.986 13.9882 104.948L11.5734 101.507C10.8523 100.327 9.86891 98.7652 9.19147 97.5526L7.2138 93.6965C6.61285 92.3092 5.78246 90.474 5.24707 89.0648L3.79384 84.8155C3.36772 83.1987 2.76678 81.0577 2.40621 79.4191L1.59765 74.8202C1.4119 72.9632 1.13873 70.4835 1.0404 68.6264L1.01855 63.7872C1.1606 61.7117 1.35728 58.9261 1.61951 56.8616L2.51548 51.9349C3.1055 49.7065 3.90311 46.7461 4.61332 44.5504L6.5145 39.7549C7.60714 37.5264 9.10407 34.5771 10.3278 32.4251L13.2451 28.0118C14.3706 26.5808 15.8347 24.6364 17.0148 23.26L20.6314 19.4367C22.4124 17.8309 24.8053 15.7117 26.6737 14.226L30.8038 11.3312C32.6613 10.2388 35.1416 8.77503 37.0537 7.78097L41.457 5.80377C43.249 5.15927 45.62 4.27446 47.4447 3.70642L51.9136 2.55944C53.5635 2.25357 55.7597 1.82754 57.4205 1.59814L61.8019 1.1721C63.2988 1.1284 65.2874 1.03011 66.7844 1.05195L71.0019 1.23764C72.3568 1.39057 74.1597 1.55445 75.5036 1.74016L79.5136 2.4611C80.7482 2.76696 82.3981 3.12751 83.6219 3.47707L87.4243 4.67866C88.5606 5.11561 90.0903 5.66181 91.2157 6.13154L94.8324 7.7919C95.8922 8.35994 97.3345 9.08096 98.3725 9.68176L101.814 11.8118C102.82 12.5219 104.196 13.4505 105.18 14.1933L108.414 16.804C109.649 17.9401 111.309 19.4476 112.5 20.6383L115.297 23.6861C116.117 24.702 117.231 26.0237 118.007 27.0615L120.422 30.5025C121.143 31.6822 122.126 33.2443 122.804 34.4569L124.782 38.3129C125.382 39.7003 126.213 41.5354 126.748 42.9446L128.201 47.194C128.628 48.8107 129.229 50.9627 129.589 52.5903L130.398 57.1893C130.583 59.0463 130.857 61.526 130.955 63.3939L130.977 68.2332C130.835 70.3196 130.638 73.0942 130.376 75.1697L129.48 80.0964C128.89 82.3248 128.092 85.2961 127.382 87.4809L125.481 92.2764C124.388 94.5049 122.891 97.4543 121.668 99.6063L118.75 104.019C117.625 105.45 116.161 107.395 114.981 108.771L111.364 112.595C109.583 114.2 107.201 116.32 105.322 117.805L101.192 120.7C99.334 121.792 96.8646 123.256 94.9525 124.239L90.5492 126.217C88.7682 126.861 86.3863 127.746 84.5725 128.303L80.1036 129.45C78.4537 129.756 76.2684 130.182 74.6076 130.411L70.2262 130.837C68.7292 130.881 66.7406 130.979 65.2437 130.957L61.0262 130.772C59.6713 130.619 57.8685 130.455 56.5245 130.269L52.5145 129.548C51.2798 129.242 49.63 128.882 48.4062 128.532L44.6038 127.331C43.4675 126.894 41.9378 126.348 40.8124 125.878L37.1958 124.218C36.1359 123.649 34.6936 122.918 33.6556 122.317L30.2029 120.187C29.1867 119.477 27.8209 118.548 26.8376 117.805C25.8542 117.062 27.7772 112.464 32.9235 103.943C39.6651 92.8007 50.4713 77.3545 61.8894 62.2688C62.3592 63.2628 62.9711 64.5846 63.4409 65.5678C74.7934 86.3339 102.874 83.3844 109.659 60.7176C115.647 40.6943 94.8542 20.0921 73.1872 31.8679C70.1278 33.5284 55.2352 42.7917 61.8894 62.2688C50.4713 77.3545 39.6651 92.8007 32.9235 103.943" fill="#F5F5F5"/>
<path d="M32.9017 103.954C27.7554 112.464 25.8323 117.073 26.8157 117.816C25.8433 117.03 24.554 115.992 23.5815 115.205C22.3468 114.069 20.686 112.562 19.495 111.371L16.6979 108.323C15.8784 107.308 14.7639 105.986 13.9882 104.948L11.5734 101.507C10.8523 100.327 9.86891 98.7652 9.19147 97.5526L7.2138 93.6965C6.61285 92.3092 5.78246 90.474 5.24707 89.0648L3.79384 84.8155C3.36772 83.1987 2.76678 81.0577 2.40621 79.4191L1.59765 74.8202C1.4119 72.9632 1.13873 70.4835 1.0404 68.6264L1.01855 63.7872C1.1606 61.7117 1.35728 58.9261 1.61951 56.8616L2.51548 51.9349C3.1055 49.7065 3.90311 46.7461 4.61332 44.5504L6.5145 39.7549C7.60714 37.5264 9.10407 34.5771 10.3278 32.4251L13.2451 28.0118C14.3706 26.5808 15.8347 24.6364 17.0148 23.26L20.6314 19.4367C22.4124 17.8309 24.8053 15.7117 26.6737 14.226L30.8038 11.3312C32.6613 10.2388 35.1416 8.77503 37.0537 7.78097L41.457 5.80377C43.249 5.15927 45.62 4.27446 47.4447 3.70642L51.9136 2.55944C53.5635 2.25357 55.7597 1.82754 57.4205 1.59814L61.8019 1.1721C63.2988 1.1284 65.2874 1.03011 66.7844 1.05195L71.0019 1.23764C72.3568 1.39057 74.1597 1.55445 75.5036 1.74016L79.5136 2.4611C80.7482 2.76696 82.3981 3.12751 83.6219 3.47707L87.4243 4.67866C88.5606 5.11561 90.0903 5.66181 91.2157 6.13154L94.8324 7.7919C95.8922 8.35994 97.3345 9.08096 98.3725 9.68176L101.814 11.8118C102.82 12.5219 104.196 13.4505 105.18 14.1933L108.414 16.804C109.649 17.9401 111.309 19.4476 112.5 20.6383L115.297 23.6861C116.117 24.702 117.231 26.0237 118.007 27.0615L120.422 30.5025C121.143 31.6822 122.126 33.2443 122.804 34.4569L124.782 38.3129C125.382 39.7003 126.213 41.5354 126.748 42.9446L128.201 47.194C128.628 48.8107 129.229 50.9627 129.589 52.5903L130.398 57.1893C130.583 59.0463 130.857 61.526 130.955 63.3939L130.977 68.2332C130.835 70.3196 130.638 73.0942 130.376 75.1697L129.48 80.0964C128.89 82.3248 128.092 85.2961 127.382 87.4809L125.481 92.2764C124.388 94.5049 122.891 97.4543 121.668 99.6063L118.75 104.019C117.625 105.45 116.161 107.395 114.981 108.771L111.364 112.595C109.583 114.2 107.201 116.32 105.322 117.805L101.192 120.7C99.334 121.792 96.8646 123.256 94.9525 124.239L90.5492 126.217C88.7682 126.861 86.3863 127.746 84.5725 128.303L80.1036 129.45C78.4537 129.756 76.2684 130.182 74.6076 130.411L70.2262 130.837C68.7292 130.881 66.7406 130.979 65.2437 130.957L61.0262 130.772C59.6713 130.619 57.8685 130.455 56.5245 130.269L52.5145 129.548C51.2798 129.242 49.63 128.882 48.4062 128.532L44.6038 127.331C43.4675 126.894 41.9378 126.348 40.8124 125.878L37.1958 124.218C36.1359 123.649 34.6936 122.918 33.6556 122.317L30.2029 120.187C29.1867 119.477 27.8209 118.548 26.8376 117.805C25.8542 117.062 27.7772 112.464 32.9235 103.943C39.5231 93.0192 50.0451 77.9662 61.2119 63.1645C61.7036 64.1586 62.3701 65.4695 62.8618 66.4635C75.7768 88.9884 105.595 82.2375 111.834 61.0016C118.204 39.2852 95.6627 16.8805 72.9577 30.1747C63.4081 35.7677 55.3117 47.3687 61.2119 63.1645C50.0451 77.9662 39.5231 93.0192 32.9235 103.943" fill="#F0F0F0"/>
<path d="M32.9017 103.954C27.7554 112.464 25.8323 117.073 26.8157 117.816C25.8433 117.03 24.554 115.992 23.5815 115.205C22.3468 114.069 20.686 112.562 19.495 111.371L16.6979 108.323C15.8784 107.308 14.7639 105.986 13.9882 104.948L11.5734 101.507C10.8523 100.327 9.86891 98.7652 9.19147 97.5526L7.2138 93.6965C6.61285 92.3092 5.78246 90.474 5.24707 89.0648L3.79384 84.8155C3.36772 83.1987 2.76678 81.0577 2.40621 79.4191L1.59765 74.8202C1.4119 72.9632 1.13873 70.4835 1.0404 68.6264L1.01855 63.7872C1.1606 61.7117 1.35728 58.9261 1.61951 56.8616L2.51548 51.9349C3.1055 49.7065 3.90311 46.7461 4.61332 44.5504L6.5145 39.7549C7.60714 37.5264 9.10407 34.5771 10.3278 32.4251L13.2451 28.0118C14.3706 26.5808 15.8347 24.6364 17.0148 23.26L20.6314 19.4367C22.4124 17.8309 24.8053 15.7117 26.6737 14.226L30.8038 11.3312C32.6613 10.2388 35.1416 8.77503 37.0537 7.78097L41.457 5.80377C43.249 5.15927 45.62 4.27446 47.4447 3.70642L51.9136 2.55944C53.5635 2.25357 55.7597 1.82754 57.4205 1.59814L61.8019 1.1721C63.2988 1.1284 65.2874 1.03011 66.7844 1.05195L71.0019 1.23764C72.3568 1.39057 74.1597 1.55445 75.5036 1.74016L79.5136 2.4611C80.7482 2.76696 82.3981 3.12751 83.6219 3.47707L87.4243 4.67866C88.5606 5.11561 90.0903 5.66181 91.2157 6.13154L94.8324 7.7919C95.8922 8.35994 97.3345 9.08096 98.3725 9.68176L101.814 11.8118C102.82 12.5219 104.196 13.4505 105.18 14.1933L108.414 16.804C109.649 17.9401 111.309 19.4476 112.5 20.6383L115.297 23.6861C116.117 24.702 117.231 26.0237 118.007 27.0615L120.422 30.5025C121.143 31.6822 122.126 33.2443 122.804 34.4569L124.782 38.3129C125.382 39.7003 126.213 41.5354 126.748 42.9446L128.201 47.194C128.628 48.8107 129.229 50.9627 129.589 52.5903L130.398 57.1893C130.583 59.0463 130.857 61.526 130.955 63.3939L130.977 68.2332C130.835 70.3196 130.638 73.0942 130.376 75.1697L129.48 80.0964C128.89 82.3248 128.092 85.2961 127.382 87.4809L125.481 92.2764C124.388 94.5049 122.891 97.4543 121.668 99.6063L118.75 104.019C117.625 105.45 116.161 107.395 114.981 108.771L111.364 112.595C109.583 114.2 107.201 116.32 105.322 117.805L101.192 120.7C99.334 121.792 96.8646 123.256 94.9525 124.239L90.5492 126.217C88.7682 126.861 86.3863 127.746 84.5725 128.303L80.1036 129.45C78.4537 129.756 76.2684 130.182 74.6076 130.411L70.2262 130.837C68.7292 130.881 66.7406 130.979 65.2437 130.957L61.0262 130.772C59.6713 130.619 57.8685 130.455 56.5245 130.269L52.5145 129.548C51.2798 129.242 49.63 128.882 48.4062 128.532L44.6038 127.331C43.4675 126.894 41.9378 126.348 40.8124 125.878L37.1958 124.218C36.1359 123.649 34.6936 122.918 33.6556 122.317L30.2029 120.187C29.1867 119.477 27.8209 118.548 26.8376 117.805C25.8542 117.062 27.7772 112.464 32.9235 103.943C39.392 93.2377 49.619 78.5671 60.5454 64.0603C61.0589 65.0653 61.7364 66.398 62.2499 67.392C73.9848 88.8026 106.36 85.4272 113.943 61.9957C121.012 40.1809 97.3236 14.7067 74.3126 27.2909C68.9041 30.2512 51.9354 41.6447 60.5454 64.0493C49.63 78.5561 39.4029 93.2268 32.9235 103.932" fill="#EBEBEB"/>
<path d="M93.6094 59.0371C93.369 60.0093 90.8341 64.1385 89.7524 64.9468C89.1514 65.3947 87.3377 66.7492 82.9453 67.0005C80.17 67.1644 74.7395 64.5426 72.8602 60.2277C72.3357 59.0261 71.3305 54.2415 71.4179 52.6139C71.5272 50.8552 72.4669 48.4847 73.6251 47.163L79.2849 44.2681C80.9894 43.9513 83.5681 43.4707 86.4308 44.7706C90.0802 46.4311 91.0745 48.3973 93.4455 53.1382C94.2431 54.7222 94.0027 57.3111 93.5766 59.0371" fill="white"/>
<path d="M92.7013 59.0798C92.3188 60.631 88.4728 64.8258 88.4291 64.8476C87.5003 65.5358 83.1516 66.1694 83.1079 66.1694C79.8737 66.4643 75.0006 62.9796 74.0063 60.7949C73.8314 60.4235 72.1816 55.3876 72.269 53.1701C72.3345 51.4223 73.4053 49.1501 74.5198 47.7956C74.8367 47.4132 79.688 45.1083 80.4856 44.9554C81.4253 44.7806 83.6433 44.3874 86.353 45.6655C87.8172 46.3537 89.8167 47.2931 92.6139 53.2028C93.3678 54.7977 93.1274 57.3648 92.7013 59.0798Z" fill="white"/>
<path d="M91.8062 57.0698C91.8062 57.6815 92.1122 58.6101 91.7734 59.1126C88.3207 64.214 87.2936 64.4979 86.6708 64.6618C84.5184 65.2407 80.0495 66.4533 75.4713 61.483C74.1602 60.0629 73.1112 53.7599 73.1222 53.7162C73.7887 52.1104 74.1165 49.5651 75.4058 48.4072C75.4385 48.3744 80.6504 45.5889 82.0381 45.6545C83.229 45.7091 86.3867 45.8511 88.4955 48.3089C88.5174 48.3417 91.6751 53.0389 91.7625 53.2574C92.1668 54.3279 91.8172 55.9337 91.8172 57.0698" fill="white"/>
<path d="M90.7465 59.1011C90.2657 60.4447 86.7474 64.41 83.4476 64.5192C82.0709 64.5629 80.1588 64.1479 78.9788 63.416C77.1104 62.269 75.5151 59.6363 75.4932 59.6144C74.7503 58.1179 73.9089 55.9113 74.0291 54.2509C74.1493 52.5905 75.3731 50.4166 76.3018 48.9638C76.3455 48.8873 80.6177 46.9538 80.9564 46.8555C81.765 46.6152 82.9232 46.6042 83.7536 46.7244C86.1792 47.0958 88.5284 49.2915 90.7683 53.2459C91.6315 54.7753 91.3146 57.4406 90.7246 59.0901" fill="white"/>
<path d="M89.7083 59.0587C88.8451 61.3964 83.8627 63.4283 83.666 63.4174C82.322 63.3518 80.4099 63.2207 79.2736 62.4888C77.9624 61.6368 76.7168 59.8235 76.0285 58.4252C75.5258 57.4093 74.8484 55.9127 75.0123 54.7876C75.2527 53.0835 76.3125 50.9315 77.3068 49.5332C77.9078 48.6812 79.4593 48.3425 80.4646 48.0694C81.3387 47.8291 82.5843 47.7199 83.4802 47.851C84.2778 47.9602 85.3705 48.3207 85.9824 48.845C88.561 51.0516 88.9106 51.6852 89.7629 53.2146C90.6151 54.7439 90.3092 57.4093 89.6973 59.0587" fill="white"/>
<path d="M88.2657 59.4625C87.1403 60.4784 85.403 61.7346 83.928 62.0295C82.6496 62.2808 80.9123 61.6035 79.6776 61.1884C79.3389 61.0791 75.8534 57.3104 75.9954 55.3004C76.1156 53.5854 77.3831 51.5099 78.3227 50.068C78.6177 49.6201 79.4263 49.4016 79.9508 49.2924C80.9014 49.0957 82.2781 48.6151 83.185 48.9865C83.9826 49.3142 85.1299 49.5655 85.8292 50.068C86.7688 50.7343 87.785 51.9031 88.517 52.788C89.0415 53.4325 89.1289 58.6869 88.2657 59.4625Z" fill="white"/>
<path d="M84.1796 60.6416C82.945 60.8491 81.1312 60.576 80.0823 59.8987C78.8476 59.1013 77.7003 57.3753 77.0666 56.0645C76.8153 55.5511 79.3174 50.6136 79.3502 50.5808C79.4704 50.4606 82.8575 50.1329 82.8794 50.1438C83.7426 50.406 84.9008 50.8102 85.6656 51.3017C86.2447 51.6731 86.9877 52.3286 87.2499 52.9731C87.9274 54.5898 88.1022 57.2989 87.2499 58.8282C86.7255 59.7568 85.2395 60.4668 84.1796 60.6416Z" fill="white"/>
<path d="M84.4195 59.2537C83.2395 59.4831 81.5459 59.1116 80.4642 58.5982C79.7649 58.2596 78.9126 57.3639 78.8361 56.5883C78.6613 54.8732 80.0599 52.4809 81.4366 51.4541C81.7098 51.2465 82.2342 51.1919 82.562 51.2793C83.4799 51.5414 84.6162 52.1313 85.4794 52.5246C85.534 52.5464 85.5777 52.6229 85.6105 52.6666C86.5065 54.1959 86.4955 57.0252 85.6105 58.5655C85.4029 58.926 84.8129 59.1772 84.4086 59.2537" fill="white"/>
<path d="M2.66934 80.7078L2.38524 79.4407C1.35817 73.5965 1.24892 72.9847 1.01946 68.648C0.986686 62.6727 0.986684 61.7551 1.59856 56.8831C2.68027 50.875 2.87695 49.7936 4.59239 44.572C6.91971 38.6841 7.34581 37.6245 10.3069 32.4466C14.0655 26.7553 14.295 26.4167 17.0047 23.2707L17.5838 22.6152C31.1872 7.42023 60.9178 10.3588 87.0537 30.3711C87.0865 30.393 87.1192 30.4257 87.152 30.4475C87.2176 30.4694 87.3705 30.5568 87.3924 30.6223C41.3596 30.8627 -1.47176 56.6646 2.7349 81.2322" fill="white"/>
<path d="M32.9024 103.955C27.7561 112.465 25.8331 117.075 26.8164 117.817C22.7081 114.508 22.2711 114.158 19.4848 111.383C15.7917 107.363 15.7262 107.287 13.9779 104.971C10.8311 100.481 10.7 100.307 9.18125 97.5756C6.62448 92.5944 6.47153 92.2994 5.23685 89.0988C4.39552 86.63 3.36842 83.2983 2.69098 80.7858C-1.12232 55.9997 41.425 30.6894 86.9988 30.6348C87.0207 30.7222 87.0753 30.8204 87.1737 30.886C68.9813 51.7613 44.7029 84.4562 32.9133 103.966" fill="black"/>
<path d="M68.0414 1.09524C70.2704 1.23725 73.2533 1.48854 75.4713 1.76164C80.7488 2.71201 80.8471 2.73382 83.5896 3.49848C86.9841 4.56901 89.5154 5.45383 91.1834 6.15295C94.4031 7.6313 96.7887 8.81471 98.3402 9.70318C102.875 12.4997 102.962 12.5543 105.158 14.2147L106.043 14.892C105.89 14.7718 105.683 14.7172 105.41 14.7391C104.962 14.7719 104.361 15.0121 103.607 15.4491C103.749 15.5583 103.891 15.6785 104.033 15.7877C103.891 15.6676 103.738 15.5583 103.596 15.4382C102.842 15.8751 101.935 16.5306 100.875 17.3717C99.8153 18.2128 98.6243 19.2615 97.2694 20.5177C97.3459 20.5833 97.4224 20.6379 97.4989 20.7034C97.4224 20.6379 97.3459 20.5833 97.2585 20.5177C95.9146 21.774 94.4176 23.2268 92.7896 24.8872C91.1616 26.5367 89.4024 28.3938 87.5122 30.4365C87.5122 30.4365 87.3592 30.6004 87.3592 30.5894C87.2937 30.5457 87.3155 30.4038 87.3046 30.3491C83.2181 11.593 75.8647 1.30282 68.0195 1.0625" fill="white"/>
<path d="M17.5835 22.6149C22.2272 17.8303 22.708 17.3388 26.6633 14.2364C31.8424 10.6097 32.498 10.1509 37.0434 7.79137C42.5939 5.28982 43.1731 5.02767 47.4343 3.71682C53.2253 2.23119 53.564 2.14381 57.3992 1.60854C63.1246 1.05143 63.3431 1.02958 66.7631 1.06235L67.9978 1.09509C71.1992 1.52112 80.9564 2.81016 87.3046 30.2835C87.2063 30.2835 87.1189 30.3162 87.0534 30.3817C60.9175 10.3694 31.1977 7.4309 17.5835 22.6259" fill="black"/>
<path d="M94.0903 39.001C92.9649 39.6783 91.6319 40.0716 90.2114 40.1808C89.4138 36.9911 88.496 33.8669 87.458 30.8628C87.4908 30.8628 87.5236 30.8519 87.5563 30.8301C89.8837 33.4518 92.0689 36.1936 94.1012 39.001" fill="black"/>
<path d="M96.7007 36.1502C96.4494 36.6746 96.1326 37.1661 95.7283 37.6249C95.2584 38.1602 94.7121 38.619 94.1002 38.9904C94.1002 38.9904 94.1002 38.9904 94.1002 39.0013C92.057 36.183 89.8717 33.4411 87.5444 30.8194C87.5553 30.8194 87.3587 30.6228 87.3696 30.6119C87.3696 30.6009 87.599 30.7648 87.61 30.7429C90.8005 32.4252 93.838 34.2276 96.7007 36.1393" fill="white"/>
<path d="M97.3133 32.4042C97.4444 33.7151 97.2477 34.9931 96.7123 36.1401C96.7123 36.1401 96.7123 36.1401 96.7232 36.1401C93.8605 34.2285 90.823 32.4151 87.6216 30.7438C87.6325 30.711 87.6434 30.6783 87.6325 30.6455C91.0306 31.0825 94.2539 31.6614 97.3133 32.3933" fill="black"/>
<path d="M95.9586 28.4492C96.7125 29.7273 97.1823 31.0818 97.3134 32.4036C97.3134 32.4036 97.3134 32.4036 97.3243 32.4036C94.265 31.6827 91.0308 31.0927 87.6327 30.6667C87.6327 30.6667 87.4032 30.6558 87.3813 30.623C90.3315 29.7382 93.3362 28.9736 95.9586 28.4492Z" fill="white"/>
<path d="M87.5339 30.4594C89.4241 28.4057 91.1942 26.5596 92.8113 24.9102C94.1443 25.9479 95.2916 27.1714 96.0455 28.4494C96.0455 28.4494 96.0346 28.4494 95.969 28.4494C93.3358 28.9847 90.5496 29.6838 87.5994 30.5687C87.5776 30.5359 87.5557 30.5031 87.5229 30.4813C87.5229 30.4813 87.523 30.4812 87.5339 30.4703" fill="black"/>
<path d="M48.7459 127.691C41.1193 125.288 33.591 121.475 26.6855 116.254C26.8385 115.576 27.1554 114.703 27.6361 113.621C35.0333 119.214 43.1079 123.3 51.2808 125.878C50.363 126.73 49.5217 127.33 48.7459 127.691Z" fill="black"/>
<path d="M72.0839 130.631C64.6103 131.155 56.6668 130.183 48.8107 127.714C48.8107 127.714 48.8107 127.714 48.7998 127.714C49.5865 127.354 50.4388 126.753 51.3566 125.879C51.3675 125.879 51.3784 125.879 51.3893 125.879C51.3893 125.879 51.3784 125.89 51.3675 125.901C59.7808 128.544 68.2924 129.593 76.2906 129.025C74.9138 129.822 73.5152 130.347 72.0839 130.62" fill="white"/>
<path d="M99.7492 47.6764C97.5858 48.9873 95.0181 49.741 92.2755 49.9486C91.7074 46.6387 91.019 43.3725 90.2104 40.1827C91.6309 40.0735 92.9639 39.6911 94.0893 39.0029C96.1326 41.8213 98.0119 44.727 99.7492 47.6873" fill="white"/>
<path d="M104.776 42.1922C104.295 43.2081 103.672 44.1585 102.908 45.0433C102.001 46.0811 100.941 46.955 99.7717 47.665C98.0344 44.7156 96.1441 41.8099 94.1118 38.9915C94.7237 38.6201 95.27 38.1722 95.7398 37.6261C96.1441 37.1673 96.461 36.6757 96.7123 36.1514C99.575 38.063 102.274 40.0839 104.787 42.1922" fill="black"/>
<path d="M105.944 34.9833C106.196 37.5176 105.824 39.9864 104.775 42.1821C102.262 40.0738 99.5634 38.0638 96.7007 36.1412C97.247 34.9942 97.4328 33.7161 97.3017 32.4053C100.361 33.1262 103.246 33.9892 105.933 34.9833" fill="white"/>
<path d="M103.345 27.3682C104.798 29.8369 105.683 32.4368 105.935 34.9711C103.247 33.9879 100.362 33.125 97.3029 32.404C97.1718 31.0932 96.7129 29.7386 95.959 28.4605C98.5922 27.9253 101.051 27.5647 103.345 27.379" fill="black"/>
<path d="M97.2695 20.5402C97.346 20.6058 97.4224 20.6604 97.5098 20.7259C99.9683 22.6922 101.924 24.9534 103.345 27.3457C101.061 27.5423 98.6025 27.9028 95.9693 28.4381C95.9693 28.4381 95.9692 28.4381 95.9583 28.4381C95.2044 27.16 94.1445 25.9475 92.8115 24.8988C94.4396 23.2384 95.9255 21.7855 97.2804 20.5293" fill="white"/>
<path d="M46.6691 128.041C39.7745 125.867 32.9347 122.382 26.6848 117.663C26.5318 117.401 26.5209 116.931 26.6848 116.243C33.5902 121.454 41.1185 125.277 48.7451 127.68C48.7451 127.68 48.7451 127.68 48.756 127.68C47.9802 128.041 47.27 128.139 46.6363 127.997" fill="white"/>
<path d="M70.7294 130.806C69.0795 130.872 66.8724 130.97 65.2225 130.97C59.6501 130.719 59.5408 130.708 56.5033 130.271C54.7441 129.954 52.395 129.528 50.6467 129.124C49.3247 128.807 48.0026 128.436 46.6914 128.021C47.3251 128.163 48.0244 128.065 48.8111 127.704C56.6672 130.173 64.6216 131.156 72.0843 130.621C72.0843 130.621 72.0843 130.621 72.0952 130.621C71.6472 130.708 71.1883 130.763 70.7403 130.796" fill="black"/>
<path d="M104.459 56.6777C101.323 58.5785 97.6079 59.6709 93.6417 59.9549C93.303 56.6013 92.8441 53.2586 92.2759 49.9597C95.0184 49.763 97.5861 49.0093 99.7604 47.6875C101.487 50.6369 103.06 53.6409 104.47 56.6668" fill="black"/>
<path d="M111.736 48.7356C111.037 50.1994 110.141 51.5757 109.027 52.8538C107.715 54.3613 106.186 55.6285 104.492 56.6553C104.492 56.6553 104.492 56.6662 104.492 56.6771C103.083 53.6403 101.509 50.6363 99.772 47.6869C100.952 46.9768 102.001 46.103 102.908 45.0543C103.673 44.1695 104.296 43.219 104.776 42.2031C107.278 44.3005 109.606 46.4853 111.725 48.7356" fill="white"/>
<path d="M113.43 38.2906C113.79 41.9501 113.255 45.5221 111.747 48.7119C111.747 48.7119 111.747 48.7119 111.758 48.7228C109.627 46.4725 107.3 44.2877 104.798 42.1795C105.847 39.9729 106.218 37.504 105.967 34.9697C108.655 35.9529 111.146 37.0671 113.441 38.2797" fill="black"/>
<path d="M109.67 27.2687C111.779 30.8407 113.058 34.5985 113.418 38.258C113.418 38.258 113.418 38.258 113.429 38.258C111.135 37.0454 108.632 35.9312 105.945 34.9481C105.693 32.4138 104.808 29.8139 103.355 27.3451C105.639 27.1485 107.747 27.1266 109.67 27.2468" fill="white"/>
<path d="M100.886 17.3957C104.601 20.3014 107.551 23.6768 109.66 27.2489C107.737 27.1178 105.628 27.1506 103.334 27.3472C101.913 24.9549 99.9574 22.6828 97.499 20.7165C97.4225 20.651 97.346 20.5964 97.2695 20.5308C98.6135 19.2855 99.8154 18.2368 100.875 17.3848" fill="black"/>
<path d="M46.4616 127.954C44.7571 127.353 42.4735 126.545 40.8017 125.879C37.5748 124.4 35.1892 123.217 33.645 122.328C29.1105 119.532 29.0231 119.477 26.8269 117.817C26.7723 117.773 26.7286 117.729 26.6958 117.675C32.9348 122.394 39.7419 125.835 46.6364 128.009C46.5818 127.998 46.5162 127.976 46.4616 127.965" fill="black"/>
<path d="M48.3849 128.532L46.4946 127.975C46.5493 127.996 46.6039 128.007 46.6694 128.018C47.9806 128.433 49.2918 128.794 50.6029 129.122L48.3739 128.543" fill="white"/>
<path d="M108.196 65.82C104.176 68.256 99.4117 69.6542 94.32 70.0256C94.2107 66.683 93.9813 63.3184 93.6426 59.9539C97.6088 59.6589 101.324 58.5775 104.46 56.6768C105.869 59.7136 107.115 62.7613 108.196 65.82Z" fill="white"/>
<path d="M117.516 55.6382C116.62 57.5171 115.473 59.2867 114.041 60.9253C112.359 62.8479 110.403 64.4755 108.229 65.7973C107.147 62.7496 105.901 59.6909 104.492 56.6541C106.185 55.6273 107.715 54.3601 109.026 52.8526C110.141 51.5745 111.037 50.1982 111.736 48.7344C113.867 50.9847 115.801 53.2896 117.516 55.6382Z" fill="black"/>
<path d="M119.691 42.2453C120.16 46.9425 119.472 51.5196 117.527 55.616C115.801 53.2674 113.878 50.9625 111.747 48.7231C113.255 45.5333 113.801 41.9612 113.43 38.3018C115.724 39.5143 117.822 40.8471 119.691 42.2562" fill="white"/>
<path d="M114.872 28.1117C117.581 32.6887 119.209 37.517 119.69 42.2142C117.822 40.7941 115.724 39.4724 113.429 38.2598C113.058 34.6004 111.79 30.8317 109.682 27.2705C111.605 27.4016 113.342 27.6856 114.883 28.1226" fill="black"/>
<path d="M103.595 15.4502C103.738 15.5594 103.89 15.6796 104.033 15.7998C108.589 19.4483 112.227 23.654 114.85 28.089C113.32 27.6521 111.583 27.368 109.66 27.2479C107.551 23.6758 104.601 20.3004 100.886 17.3947C101.946 16.5426 102.852 15.8981 103.606 15.4611" fill="white"/>
<path d="M110.895 74.9187C106.087 77.8244 100.405 79.4958 94.3193 79.9436C94.4286 76.6884 94.4395 73.3675 94.3193 70.0358C99.411 69.6644 104.175 68.2661 108.196 65.8301C109.267 68.8778 110.173 71.9146 110.895 74.9187Z" fill="black"/>
<path d="M122.028 62.7708C120.957 65.0101 119.581 67.1294 117.876 69.0847C115.866 71.3896 113.527 73.334 110.927 74.9071C110.927 74.9071 110.927 74.918 110.927 74.9289C110.206 71.914 109.299 68.8771 108.217 65.8185C110.392 64.4967 112.358 62.8691 114.041 60.9356C115.461 59.297 116.62 57.5273 117.516 55.6484C119.231 57.9861 120.739 60.3675 122.028 62.7598" fill="white"/>
<path d="M124.629 46.7685C125.187 52.3833 124.367 57.8452 122.051 62.7282C122.051 62.7282 122.051 62.7282 122.051 62.7391C120.762 60.3468 119.254 57.9654 117.527 55.6168C119.472 51.5204 120.161 46.9433 119.691 42.2461C121.559 43.6662 123.209 45.1627 124.629 46.7467" fill="black"/>
<path d="M118.882 29.88C122.116 35.3528 124.061 41.1096 124.629 46.7244C123.209 45.1405 121.559 43.633 119.69 42.2129C119.221 37.5157 117.582 32.6874 114.883 28.1104C116.413 28.5473 117.756 29.1372 118.882 29.8691" fill="white"/>
<path d="M105.409 14.7402C111.102 19.1862 115.614 24.364 118.848 29.8368C117.723 29.1049 116.379 28.5151 114.849 28.0891C112.216 23.6431 108.589 19.4374 104.021 15.7889C103.879 15.6796 103.737 15.5595 103.595 15.4502C104.349 15.0133 104.95 14.773 105.398 14.7402" fill="black"/>
<path d="M112.533 83.8207C107.059 87.1415 100.492 89.0532 93.5649 89.5557C93.9364 85.3682 94.1659 82.1675 94.2533 79.9536C100.339 79.5057 106.087 77.8344 110.894 74.9287C111.615 77.9437 112.162 80.915 112.533 83.8316" fill="white"/>
<path d="M125.219 69.9705C124.007 72.5266 122.433 74.9408 120.488 77.1692C118.194 79.7909 115.528 82.0084 112.567 83.7999C112.206 80.8833 111.66 77.912 110.928 74.897C113.528 73.324 115.866 71.3796 117.877 69.0747C119.581 67.1194 120.958 65.0001 122.029 62.7607C123.318 65.153 124.389 67.5672 125.219 69.9705Z" fill="black"/>
<path d="M128.18 51.7271C128.825 58.1285 127.874 64.355 125.241 69.9261C124.41 67.5229 123.34 65.1197 122.05 62.7274C124.367 57.8445 125.186 52.3716 124.629 46.7677C124.629 46.7677 124.629 46.7678 124.629 46.7568C126.049 48.3408 127.24 50.0012 128.18 51.7271Z" fill="white"/>
<path d="M121.625 32.4917C125.307 38.7291 127.536 45.2943 128.181 51.6956C127.241 49.9697 126.05 48.3092 124.63 46.7253C124.061 41.1105 122.117 35.3537 118.882 29.8809C120.008 30.6128 120.926 31.4866 121.625 32.5025" fill="black"/>
<path d="M106.033 14.892C110.174 18.3439 110.338 18.4859 112.479 20.6488C116.172 24.6688 116.238 24.7452 117.986 27.0611L119.221 28.7652C120.073 29.9777 120.86 31.2012 121.603 32.4465C120.903 31.4415 119.997 30.5676 118.871 29.8357C115.637 24.3738 111.113 19.196 105.432 14.7391C105.694 14.7172 105.901 14.7718 106.065 14.892" fill="white"/>
<path d="M112.971 92.32C106.951 95.9576 99.8375 98.0549 92.2218 98.6121C92.2218 98.6121 92.2219 98.6121 92.2109 98.6121C92.7682 95.6954 93.2161 92.6586 93.5549 89.5453C100.493 89.0428 106.972 87.1312 112.457 83.8213C112.818 86.727 112.993 89.5781 112.971 92.3309" fill="black"/>
<path d="M126.988 77.1258C125.655 79.9332 123.929 82.5767 121.798 85.0236C119.285 87.9075 116.346 90.3435 113.09 92.3098C113.09 92.3098 113.09 92.3098 113.09 92.3207C113.09 92.3207 113.09 92.3207 113.079 92.3207C113.101 89.5679 112.915 86.7168 112.555 83.8002C115.527 81.9978 118.193 79.7911 120.487 77.1585C122.432 74.93 124.006 72.5159 125.218 69.9707C126.049 72.363 126.639 74.7553 126.988 77.1039" fill="white"/>
<path d="M130.245 57.08C130.944 64.1039 129.906 70.9532 127.011 77.0705C127.011 77.0705 127.011 77.0705 127.011 77.0814C126.661 74.7219 126.071 72.3296 125.241 69.9373C127.885 64.3661 128.825 58.1396 128.191 51.7383C129.131 53.4642 129.819 55.2448 130.256 57.08" fill="black"/>
<path d="M121.963 33.0259L122.783 34.446C125.339 39.4272 125.492 39.7221 126.727 42.9228C127.514 45.2277 128.497 48.3191 129.142 50.6568C129.666 52.7869 130.027 54.9062 130.245 57.0144C129.808 55.1792 129.12 53.3987 128.18 51.6728C127.536 45.2714 125.307 38.7062 121.625 32.4688L121.963 32.9931" fill="white"/>
<path d="M121.941 32.9816C121.832 32.8068 121.723 32.6321 121.614 32.4573C120.881 31.2229 120.095 29.9995 119.253 28.7979C120.073 30.0432 121.176 31.7035 121.952 32.9816" fill="black"/>
<path d="M112.413 100.305C105.988 104.194 98.3942 106.433 90.2759 107.023C91.0626 104.369 91.7073 101.561 92.2754 98.6339C99.8911 98.0768 107.026 95.9903 113.046 92.3418C113.025 95.1055 112.817 97.7709 112.413 100.305Z" fill="white"/>
<path d="M127.284 84.0733C125.864 87.0664 124.017 89.8957 121.744 92.5065C119.057 95.587 115.932 98.1759 112.457 100.284C112.872 97.739 113.08 95.0735 113.091 92.3207C116.347 90.3435 119.275 87.9185 121.799 85.0346C123.93 82.5877 125.656 79.9332 126.989 77.1367C127.339 79.4963 127.437 81.823 127.273 84.0952" fill="black"/>
<path d="M130.682 59.7237L130.944 63.3831C130.944 65.12 130.999 67.4468 130.933 69.1946C130.693 74.3943 129.502 79.4083 127.306 84.04C127.469 81.7679 127.371 79.441 127.021 77.0815C129.917 70.9642 130.955 64.115 130.256 57.091C130.256 57.091 130.256 57.091 130.256 57.0801C130.463 57.954 130.605 58.8389 130.693 59.7346" fill="white"/>
<path d="M129.579 52.5806C129.95 54.6998 130.431 57.5291 130.682 59.6593C130.595 58.7744 130.453 57.9005 130.245 57.0266C130.038 54.9183 129.666 52.7991 129.142 50.6689L129.579 52.5697" fill="black"/>
<path d="M110.567 107.537C103.902 111.568 96.035 113.884 87.5998 114.495C87.5998 114.495 87.5998 114.495 87.5889 114.495C88.5832 112.169 89.4791 109.667 90.2549 107.024C98.3841 106.434 105.978 104.194 112.403 100.316C111.987 102.851 111.386 105.276 110.567 107.537Z" fill="black"/>
<path d="M126.006 90.704C124.531 93.8063 122.618 96.7448 120.258 99.443C117.472 102.633 114.227 105.32 110.621 107.516C110.621 107.516 110.621 107.516 110.61 107.516C111.43 105.244 112.042 102.829 112.446 100.284C115.921 98.1759 119.056 95.576 121.744 92.4955C124.017 89.8847 125.864 87.0554 127.284 84.0732C127.12 86.3454 126.705 88.552 126.006 90.6821" fill="white"/>
<path d="M130.366 75.149C129.23 81.452 129.131 81.9654 127.864 86.0072C127.35 87.5912 126.739 89.1423 126.028 90.6498C126.728 88.5197 127.143 86.3022 127.307 84.03C129.503 79.3983 130.694 74.3843 130.934 69.1846C130.781 70.9761 130.65 73.3684 130.377 75.138" fill="black"/>
<path d="M107.496 113.863C100.765 117.937 92.7999 120.286 84.2773 120.909C84.4085 120.701 84.5287 120.504 84.6598 120.286C85.7306 118.516 86.703 116.583 87.599 114.507C96.0232 113.896 103.901 111.569 110.566 107.549C109.834 109.581 108.938 111.481 107.867 113.251C107.736 113.459 107.616 113.666 107.485 113.874" fill="white"/>
<path d="M124.727 93.8833C123.82 95.6092 122.64 97.9142 121.657 99.5855L120.717 101.093C119.701 102.677 118.554 104.206 117.275 105.67C114.467 108.893 111.179 111.613 107.54 113.819C107.671 113.612 107.802 113.404 107.922 113.196C108.993 111.427 109.889 109.526 110.621 107.494C114.227 105.31 117.472 102.622 120.258 99.4216C122.618 96.7125 124.531 93.785 126.006 90.6826C125.656 91.7641 125.23 92.8346 124.727 93.8724" fill="black"/>
<path d="M127.371 87.4589C126.617 89.3705 125.623 91.9376 124.76 93.8056C125.251 92.7678 125.667 91.7192 126.016 90.6377C126.727 89.1302 127.349 87.5791 127.852 85.9951L127.36 87.4589" fill="white"/>
<path d="M103.333 118.866C96.712 122.875 88.8778 125.18 80.4973 125.792C80.4973 125.792 80.4973 125.792 80.4863 125.792C81.7975 124.437 83.0649 122.821 84.2668 120.909C92.7894 120.286 100.755 117.949 107.485 113.874C106.262 115.786 104.874 117.457 103.333 118.866Z" fill="black"/>
<path d="M114.96 108.76C113.441 110.366 111.431 112.507 109.824 114.025C107.967 115.565 105.388 117.488 103.389 118.843C103.389 118.843 103.389 118.843 103.378 118.843C104.919 117.423 106.306 115.762 107.53 113.84C111.179 111.633 114.457 108.902 117.276 105.679C118.555 104.216 119.691 102.697 120.707 101.113C119.057 103.462 116.861 106.608 114.96 108.76Z" fill="white"/>
<path d="M99.7388 121.584L95.8818 123.747C90.0908 126.74 83.4804 128.488 76.4766 128.991C77.8533 128.193 79.1973 127.123 80.4975 125.779C88.878 125.167 96.7122 122.863 103.334 118.854C102.208 119.891 100.995 120.809 99.7279 121.584" fill="white"/>
<path d="M105.311 117.794C103.672 118.941 101.497 120.492 99.8037 121.552C101.071 120.776 102.273 119.87 103.388 118.832C105.387 117.478 107.966 115.555 109.823 114.015C108.468 115.151 106.731 116.746 105.3 117.794" fill="black"/>
<path d="M85.7529 39.6244C84.6056 39.2202 83.4146 38.8051 81.5571 37.4506C83.502 35.1238 85.3814 32.8954 87.2279 30.7871C87.2607 30.809 87.3153 30.8417 87.3481 30.8526C86.9001 33.6819 86.3756 36.6204 85.7638 39.6353" fill="black"/>
<path d="M90.2107 40.1813C88.7903 40.2797 87.2715 40.1049 85.7637 39.6242C85.7637 39.6242 85.7637 39.6242 85.7637 39.6352C86.3755 36.6202 86.9328 33.4523 87.3698 30.623C87.4026 30.634 87.4573 30.8525 87.4573 30.8525C88.4953 33.8674 89.4131 36.9807 90.2107 40.1704" fill="white"/>
<path d="M83.6993 48.8767C81.4812 48.1011 79.1867 47.3036 75.6138 44.6819C77.6242 42.1913 79.6128 39.7662 81.5577 37.4395C82.5848 38.1604 83.6337 38.9142 85.7534 39.6133C85.1416 42.6282 84.4532 45.7306 83.6883 48.8657" fill="white"/>
<path d="M92.2762 49.947C89.5337 50.1436 86.6054 49.794 83.71 48.8874C84.4639 45.7413 85.1522 42.6499 85.7641 39.624C87.261 40.0937 88.7798 40.2795 90.2111 40.1811C91.0197 43.3709 91.6971 46.648 92.2762 49.947Z" fill="black"/>
<path d="M81.2193 58.4017C77.1765 57.1236 73.1883 55.1027 69.5171 52.339C71.5603 49.7392 73.5926 47.183 75.6031 44.6924C78.138 46.604 80.8914 48.0022 83.6886 48.8871C82.9347 52.0222 82.1043 55.201 81.2193 58.4017Z" fill="black"/>
<path d="M93.6312 59.9533C89.654 60.2373 85.4255 59.7239 81.2407 58.4131C81.2407 58.4131 81.2407 58.424 81.2407 58.4349C82.1258 55.2343 82.9562 52.0445 83.7101 48.8984C86.6056 49.8051 89.5338 50.1656 92.2764 49.969C92.8445 53.268 93.3034 56.6106 93.6422 59.9642" fill="white"/>
<path d="M78.3994 68.0373C73.2094 66.3987 68.0849 63.8098 63.3975 60.2596C65.4298 57.5942 67.473 54.9397 69.5162 52.3398C73.1766 55.1036 77.1756 57.1244 81.2184 58.4025C80.3334 61.6032 79.3937 64.8257 78.3994 68.0373Z" fill="white"/>
<path d="M94.3198 70.0253C89.2281 70.3967 83.754 69.7412 78.3892 68.0481C79.3835 64.8365 80.3341 61.603 81.2191 58.4023C85.4039 59.7132 89.6652 60.2375 93.6424 59.9535C93.9811 63.3071 94.2106 66.6826 94.3198 70.0253Z" fill="black"/>
<path d="M75.2859 77.5737C69.0907 75.6184 62.9719 72.5269 57.3667 68.2885C59.3444 65.6122 61.3658 62.9359 63.3871 60.2705C68.0855 63.8207 73.199 66.4097 78.389 68.0482C77.3947 71.2489 76.3567 74.4386 75.2859 77.5737Z" fill="black"/>
<path d="M94.3086 79.9545C88.2226 80.4024 81.7324 79.6377 75.3295 77.6278L75.2749 77.595C76.3457 74.449 77.4383 71.2702 78.4326 68.0586C83.7975 69.7409 89.2279 70.4072 94.3305 70.0358C94.4398 73.3785 94.4398 76.6884 94.3305 79.9437" fill="white"/>
<path d="M71.9419 86.8702C64.8835 84.6418 57.9234 81.1025 51.5205 76.2741C53.4217 73.6415 55.3666 70.9761 57.3552 68.2998C62.9604 72.5382 69.0792 75.6297 75.2745 77.585C75.2745 77.585 75.2744 77.585 75.2854 77.585C74.2036 80.7311 73.0892 83.8334 71.9528 86.8593" fill="white"/>
<path d="M93.6308 89.5465C86.6925 90.049 79.2954 89.1532 71.9966 86.8592C73.1329 83.8333 74.2474 80.731 75.3291 77.585C81.732 79.5949 88.2222 80.3815 94.3082 79.9445C94.1989 83.2107 93.9695 86.4223 93.6308 89.5465Z" fill="black"/>
<path d="M68.4559 95.6639C60.6982 93.217 53.0388 89.3391 46.0132 84.0411C47.7833 81.5068 49.6298 78.9069 51.52 76.2852C57.912 81.1135 64.883 84.6418 71.9414 86.8703C70.8051 89.8853 69.636 92.8347 68.4559 95.6749" fill="black"/>
<path d="M92.2979 98.6672C84.6713 99.2243 76.4874 98.1865 68.4675 95.6632C68.4675 95.6632 68.4675 95.6632 68.4675 95.6741C68.4675 95.6741 68.4675 95.6741 68.4565 95.6741C69.6366 92.8339 70.8057 89.8735 71.953 86.8477C79.2518 89.1416 86.6489 90.0483 93.5872 89.5349C93.2485 92.6591 92.8661 95.685 92.3088 98.6016" fill="white"/>
<path d="M64.8942 103.91C56.6229 101.3 48.4281 97.1158 40.9326 91.4573C42.5388 89.065 44.2433 86.5853 46.0134 84.04C53.0391 89.349 60.6984 93.2269 68.4561 95.6629C68.4561 95.6629 68.4561 95.6629 68.4671 95.6629C67.2761 98.514 66.1398 101.245 64.9269 103.856" fill="white"/>
<path d="M90.2545 107.056C82.1252 107.645 73.4606 106.597 64.9053 103.91C66.1181 101.31 67.2763 98.5023 68.4673 95.6621C76.4872 98.1855 84.6492 99.2342 92.2649 98.6771C92.2649 98.6771 92.2649 98.6771 92.2758 98.6771C91.7186 101.605 91.0412 104.412 90.2654 107.067" fill="black"/>
<path d="M61.2671 111.263C52.6899 108.554 44.1236 104.228 36.355 98.3511C37.7645 96.1554 39.3051 93.8396 40.9113 91.4473C48.3959 97.1058 56.6234 101.301 64.8947 103.9C63.6928 106.5 62.4799 108.958 61.2671 111.252" fill="black"/>
<path d="M87.5882 114.508C79.153 115.119 70.0841 113.994 61.2119 111.209C61.2119 111.209 61.2884 111.241 61.2884 111.252C61.2884 111.252 61.2884 111.252 61.2775 111.252C62.4903 108.958 63.7031 106.49 64.905 103.89C73.4604 106.577 82.125 107.637 90.2542 107.047C89.4784 109.701 88.5825 112.203 87.5882 114.518" fill="white"/>
<path d="M57.6396 117.587C48.964 114.856 40.3868 110.52 32.5308 104.577C32.651 104.37 32.7821 104.162 32.9023 103.954C33.9731 102.185 35.1422 100.317 36.3987 98.3506C44.1674 104.217 52.6462 108.51 61.2234 111.219C61.2234 111.219 61.2344 111.219 61.2453 111.219C60.1636 113.272 59.0819 115.195 58.022 116.965C57.8909 117.172 57.7707 117.38 57.6396 117.587Z" fill="white"/>
<path d="M84.2775 120.898C75.7549 121.521 66.5877 120.396 57.6172 117.577C57.7374 117.37 57.8903 117.119 58.0105 116.911C59.0813 115.142 60.1302 113.263 61.2119 111.209C70.0841 113.995 79.153 115.109 87.5773 114.497C87.5773 114.497 87.5773 114.497 87.5882 114.497C86.6922 116.573 85.7089 118.506 84.649 120.276C84.5179 120.483 84.3977 120.691 84.2666 120.898" fill="black"/>
<path d="M54.2634 122.514C45.7299 119.827 37.3057 115.556 29.5698 109.722C30.3784 108.215 31.3618 106.5 32.52 104.577C40.376 110.509 48.9423 114.845 57.6178 117.576C56.4378 119.488 55.3233 121.127 54.2634 122.514Z" fill="black"/>
<path d="M80.4321 125.77C72.0407 126.382 63.1138 125.289 54.2853 122.525C54.2853 122.525 54.2853 122.525 54.2744 122.525C55.3343 121.138 56.4487 119.5 57.6288 117.588C66.5993 120.406 75.6901 121.51 84.2127 120.898C83.0108 122.809 81.7433 124.426 80.4321 125.781" fill="white"/>
<path d="M51.3132 125.89C51.3132 125.89 51.2913 125.89 51.2804 125.879C43.1075 123.301 35.0329 119.215 27.6357 113.622C28.1165 112.53 28.7612 111.23 29.5806 109.723C37.3056 115.556 45.7407 119.827 54.2742 122.514C54.2742 122.514 54.2851 122.514 54.2961 122.514C53.2362 123.902 52.2528 125.016 51.3241 125.879" fill="white"/>
<path d="M76.411 128.969C76.411 128.969 76.3127 128.969 76.2581 128.969C76.2471 128.969 76.2362 128.98 76.2253 128.991C68.2272 129.548 59.7155 128.51 51.3022 125.866C52.231 125.004 53.2144 123.889 54.2742 122.502C63.1027 125.277 72.0405 126.358 80.421 125.746C80.421 125.746 80.421 125.746 80.4319 125.746C79.1317 127.09 77.7877 128.15 76.411 128.958" fill="black"/>
<path d="M94.9308 124.229C89.3802 126.731 88.8011 126.993 84.5508 128.304C82.5185 128.828 79.7978 129.517 77.7327 129.921C75.8971 130.249 74.0177 130.489 72.1056 130.62C72.1056 130.62 72.1057 130.62 72.0947 130.62C73.5152 130.347 74.9247 129.822 76.3014 129.025C76.3123 129.025 76.3232 129.014 76.3342 129.003C76.3888 129.003 76.4325 129.003 76.4871 129.003C83.5018 128.49 90.1014 126.742 95.8924 123.76L94.9418 124.24" fill="black"/>
<path d="M74.5863 130.422L70.7402 130.815C71.1991 130.783 71.6471 130.717 72.0951 130.641C74.0072 130.509 75.8866 130.269 77.7222 129.941L74.5754 130.433" fill="white"/>
</g>
<path d="M66.38 130.818C102.237 130.818 131.305 101.757 131.305 65.9091C131.305 30.0608 102.237 1 66.38 1C30.5232 1 1.45557 30.0608 1.45557 65.9091C1.45557 101.757 30.5232 130.818 66.38 130.818Z" stroke="black" stroke-linecap="round" stroke-linejoin="round"/>
</svg>
