<svg width="130" height="130" viewBox="0 0 130 130" fill="none" xmlns="http://www.w3.org/2000/svg">
<path d="M64.6997 129.625C100.424 129.625 129.385 100.665 129.385 64.94C129.385 29.2154 100.424 0.254883 64.6997 0.254883C28.9751 0.254883 0.0146484 29.2154 0.0146484 64.94C0.0146484 100.665 28.9751 129.625 64.6997 129.625Z" fill="white"/>
<path d="M7.39261 56.8218C12.4002 21.4529 42.1174 -3.58493 73.7671 0.899997C38.3982 -4.10757 5.65463 20.4927 0.647067 55.8738C-4.3605 91.2428 20.2397 123.986 55.6209 128.994C23.9711 124.509 2.38504 92.203 7.39261 56.834V56.8218Z" fill="black"/>
<path d="M73.7669 0.899861C105.417 5.38479 127.003 37.6909 121.995 73.0598C116.988 108.429 87.2704 133.467 55.6206 128.982C90.9896 133.989 123.733 109.389 128.741 74.0079C133.748 38.6389 109.148 5.89526 73.7669 0.887695V0.899861Z" fill="black"/>
<path d="M115.249 72.1114C120.257 36.7424 101.685 4.86171 73.7669 0.899414C97.966 4.32692 113.524 35.7822 108.516 71.1512C103.509 106.52 79.8198 132.421 55.6206 128.981C83.539 132.944 110.242 107.468 115.262 72.0992L115.249 72.1114Z" fill="black"/>
<path d="M20.8711 58.7294C25.8787 23.3604 49.5674 -2.54034 73.7666 0.899323C45.8482 -3.06297 19.1453 22.4124 14.1256 57.7814C9.11801 93.1503 27.6898 125.031 55.6081 128.993C31.409 125.566 15.8514 94.1105 20.8589 58.7416L20.8711 58.7294Z" fill="black"/>
<path d="M98.4041 69.717C103.412 34.348 92.3877 3.53689 73.7673 0.899414C84.9371 2.47947 89.9326 32.4398 84.9128 67.8087C79.9053 103.178 66.7787 130.573 55.6089 128.993C74.2292 131.631 93.3843 105.098 98.3919 69.7291L98.4041 69.717Z" fill="black"/>
<path d="M44.475 62.0725C49.4826 26.7035 62.6092 -0.692247 73.779 0.88781C55.1586 -1.74967 36.0035 24.7831 30.996 60.1521C25.9884 95.5211 37.0124 126.332 55.6327 128.97C44.463 127.39 39.4675 97.4293 44.4872 62.0603L44.475 62.0725Z" fill="black"/>
<path d="M71.5982 65.9554C76.6133 30.5846 77.6617 1.48309 73.9399 0.955378C70.218 0.427669 63.1353 28.6736 58.1202 64.0444C53.1051 99.4152 52.0567 128.517 55.7785 129.044C59.5004 129.572 66.5831 101.326 71.5982 65.9554Z" fill="black"/>
</svg>
