<svg width="131" height="130" viewBox="0 0 131 130" fill="none" xmlns="http://www.w3.org/2000/svg">
<mask id="mask0_208_193" style="mask-type:luminance" maskUnits="userSpaceOnUse" x="0" y="0" width="131" height="130">
<path d="M33.9726 122.065C32.555 121.257 30.6305 120.442 29.2524 119.563C28.4446 119.048 27.4388 118.027 26.6784 117.441C25.8389 116.799 24.7143 115.96 23.8986 115.295C23.0986 114.638 22.0612 113.727 21.285 113.038C20.2633 112.144 18.9803 110.845 18.0299 109.871C17.2062 109.016 16.1292 107.852 15.3847 106.926C14.1888 105.461 12.6444 103.466 11.5514 101.922C9.99915 99.7362 8.20924 96.6244 6.98166 94.249C5.62736 91.6281 4.25722 88.3105 3.32268 85.4996C2.40397 82.7362 1.44571 78.9593 0.938835 76.0851C0.487402 73.5196 0.091381 70.0516 0.0201021 67.4466C-0.0590967 64.3902 0.0993164 60.3045 0.431951 57.264C0.606189 55.72 0.930886 53.6613 1.2556 52.141C1.66744 50.2011 2.32478 47.6357 2.88709 45.7354C3.78996 42.7186 5.4848 38.8626 6.78366 35.9962C7.55981 34.2859 8.7795 32.0848 9.83284 30.5328C10.6882 29.2739 11.7732 27.5478 12.6919 26.3284C13.8086 24.8477 15.4005 22.9474 16.6043 21.538C17.5706 20.4057 18.9803 18.9884 20.0732 17.9749C21.4434 16.7001 23.3679 15.1006 24.8014 13.8892C26.322 12.6065 28.5237 11.1258 30.2107 10.0806C32.5866 8.59997 35.8734 6.82635 38.4236 5.68615C42.5102 3.8571 45.7733 2.90692 47.1592 2.5031C48.2918 2.17055 52.3626 1.05411 57.1541 0.476096C58.4371 0.325654 60.1557 0.151474 61.4467 0.0960476C62.3575 0.0564576 63.5772 0.00895347 64.4879 0.00103547C65.3987 -0.00688253 66.6976 0.0327055 67.648 0.0485415C67.6638 0.0485415 69.6517 0.0960244 72.8275 0.46817C74.6333 0.674038 75.9163 0.911598 77.3973 1.18081C79.4327 1.55296 82.7829 2.36849 85.6815 3.34241C86.5369 3.63537 87.9783 4.11835 89.7523 4.85473C92.358 5.92366 93.9974 6.77092 94.0132 6.77884C96.4922 8.05364 97.0782 8.36244 98.6226 9.29676C100.23 10.2707 101.482 11.0625 103.565 12.5669C104.42 13.1845 105.529 14.0475 106.344 14.7126C107.144 15.3698 108.174 16.2884 108.958 16.9614C109.742 17.6344 110.756 18.6637 111.508 19.408C112.562 20.4532 113.884 21.9418 114.85 23.0661C115.642 23.9846 116.624 25.2753 117.369 26.2333C118.604 27.8169 120.03 30.0894 121.083 31.7918C121.796 32.9399 122.628 34.5393 123.253 35.7349C123.911 36.9939 124.687 38.7201 125.241 40.0265C125.796 41.333 126.445 43.1462 126.92 44.4922C127.894 47.2398 128.781 51.0404 129.312 53.8988C129.787 56.4722 130.088 59.9561 130.239 62.569C130.413 65.6175 130.199 69.719 129.827 72.7516C129.447 75.8634 128.52 79.9412 127.76 82.9817C127.277 84.9216 126.39 87.4395 125.606 89.2765C124.481 91.9132 122.85 95.3971 121.4 97.8754C118.874 102.199 116.363 105.326 114.874 107.092C113.908 108.232 112.562 109.713 111.492 110.766C110.162 112.08 108.372 113.83 106.891 114.97C105.735 115.865 104.23 117.1 103.034 117.932C101.45 119.024 99.3275 120.489 97.6247 121.384C95.7239 122.39 93.1975 123.759 91.2096 124.599C88.8336 125.604 85.5944 126.816 83.1076 127.497C81.1989 128.027 78.6407 128.653 76.6845 128.985C75.6153 129.167 74.1898 129.397 73.1127 129.524C71.8296 129.674 70.111 129.801 68.8201 129.904C67.9093 129.975 66.6897 129.991 65.7789 129.999C64.8681 130.007 63.5692 129.975 62.6188 129.951C60.5755 129.888 58.6826 129.674 57.4313 129.532C56.7106 129.452 55.7523 129.326 55.0395 129.199C53.7407 128.977 52.0062 128.661 50.7232 128.368C50.0975 128.225 49.258 128.035 48.6403 127.861C48.0225 127.687 47.2067 127.473 46.5969 127.291C45.9871 127.109 45.1793 126.847 44.5774 126.657C43.4369 126.293 43.1597 126.182 40.4986 125.145C39.865 124.9 39.0413 124.527 38.4236 124.25C37.299 123.759 35.0893 122.667 33.9647 122.033C37.4257 123.918 42.0668 123.585 47.6582 121.384C42.0351 123.823 37.4257 123.918 33.9647 122.033L33.9726 122.065Z" fill="white"/>
</mask>
<g mask="url(#mask0_208_193)">
<path d="M112.72 72.9971C99.8656 93.5839 64.5271 88.8648 59.894 59.9245C56.0449 35.8538 84.9999 21.7202 103.216 33.0904C113.337 39.409 122.548 57.2561 112.72 72.9971Z" fill="#EDEDED"/>
<path d="M111.191 71.6509C98.2259 93.4096 64.4318 85.7054 60.9629 60.2094C57.4465 34.3571 86.8055 24.523 102.883 35.5052C115.982 44.4526 117.392 61.2388 111.183 71.6589" fill="#F1F1F1"/>
<path d="M106.162 74.9455C88.5247 93.0381 64.7017 78.5482 61.9218 60.4714C58.3896 37.5092 86.2121 25.6242 102.495 37.8734C114.082 46.5911 115.904 64.953 106.162 74.9455Z" fill="#F5F5F5"/>
<path d="M105.006 74.0668C92.5002 89.0556 66.5151 80.8367 62.8798 60.7408C59.0783 39.7344 85.4357 25.9096 102.044 40.1857C113.86 50.3366 112.387 65.2224 105.006 74.0668Z" fill="#FAFAFA"/>
<path d="M103.929 73.2747C92.049 87.3291 67.6953 79.8783 63.8304 61.0097C60.512 44.7857 78.6882 27.0969 98.4483 40.0111C110.835 48.1033 111.556 64.2482 103.929 73.2747Z" fill="white"/>
<path d="M102.812 72.4815C91.3436 85.8867 68.5977 79.196 64.7803 61.2934C62.2064 49.2422 69.659 43.4462 74.5931 39.6139C74.6723 39.5505 84.3186 34.4355 93.8067 38.7271C102.764 42.7811 105.742 51.6492 106.439 54.2622C109.203 64.6189 103.477 71.7055 102.819 72.4815" fill="white"/>
<path d="M101.672 71.6981C96.1594 78.1195 88.5959 80.0278 79.1792 77.3832C76.9537 76.7576 74.1026 75.1345 72.6057 73.3767C71.1722 71.6901 66.7925 66.5513 65.7313 61.5867C63.4503 50.9529 70.0555 44.373 70.1268 44.3176C74.1342 41.219 79.0842 39.1472 84.9766 38.102C87.5426 37.6427 91.0511 39.0917 93.4191 40.1844C102.083 44.1751 104.618 53.067 104.642 53.1541C106.534 60.3911 105.426 67.3273 101.664 71.706" fill="white"/>
<path d="M100.491 70.9154C92.7854 80.124 83.1786 77.5585 79.5672 76.5846C77.3179 75.9829 74.4826 74.2805 72.9462 72.5306C70.792 70.0681 67.1884 64.1454 66.6815 61.873C63.2047 46.2745 78.9969 34.0333 93.0785 41.4129C93.1577 41.4525 101.379 46.4329 102.788 52.0309C103.881 56.37 105.901 64.4464 100.491 70.9154Z" fill="white"/>
<path d="M99.5176 70.2808C93.6807 77.9137 84.7549 77.0111 79.9555 75.7838C77.6825 75.2058 74.863 73.4163 73.2949 71.6743C71.901 70.1303 67.8064 62.8458 67.648 62.1648C65.0582 50.9371 71.4813 45.5212 72.2178 44.9432C76.748 41.388 82.2285 40.3982 84.3827 40.1369C86.9804 39.8202 90.5206 41.1584 92.8016 42.4411C95.3122 43.8426 98.2662 46.5426 99.7948 48.9814C100.753 50.5095 101.284 51.3568 103.089 58.8155C103.105 58.8709 103.066 65.6487 99.5176 70.2887" fill="white"/>
<path d="M98.694 69.7667C92.7462 77.4075 83.868 75.9664 80.3278 74.9925C78.0469 74.367 75.1799 72.6171 73.6197 70.8356C73.5721 70.7881 68.844 64.0973 68.4084 61.4211C67.8619 58.0717 66.5868 50.233 73.6355 44.9833C73.683 44.9517 80.6129 41.4598 84.0502 41.1827C86.6637 40.9768 90.2197 42.1566 92.4848 43.4868C92.5244 43.5106 98.3772 49.0848 99.3038 50.5338C100.603 52.5529 101.363 55.7676 101.909 58.1034C101.925 58.1588 102.424 64.9604 98.6782 69.7667" fill="white"/>
<path d="M97.8623 69.2515C95.027 72.8225 92.7619 73.4797 89.3247 74.4615C88.8732 74.5882 81.0642 74.3427 80.7078 74.1844C78.5299 73.2104 75.2827 71.9753 73.9443 70.0037C70.4833 64.8649 68.2024 61.476 68.6063 56.2263C69.3666 46.3763 77.0805 44.1118 82.7195 42.4648C85.0638 41.776 92.1125 44.5077 92.1758 44.5394C93.6172 45.1649 94.8528 47.0494 95.9061 48.2213C105.489 58.966 98.6701 68.23 97.8623 69.2515Z" fill="white"/>
<path d="M97.0144 68.7455C96.3808 69.5294 93.9969 72.182 89.8944 73.3776C87.3601 74.114 83.5031 74.4623 81.0955 73.3934C78.9016 72.4195 75.6466 71.1606 74.2844 69.1811C72.7162 66.9086 69.0493 61.5798 69.4532 56.4964C70.0314 49.2435 75.5278 46.0763 75.5832 46.0526C77.9038 45.1261 80.9291 43.115 83.4239 43.2496C83.4952 43.2496 90.6706 44.1285 93.2842 46.9869C98.4083 52.6087 99.0974 54.1923 99.525 56.6944C100.365 61.5798 99.525 65.6338 97.0144 68.7376" fill="white"/>
<path d="M96.1511 68.2295C96.1511 68.2295 91.621 71.9272 90.4488 72.2835C87.859 73.0515 83.9308 73.6929 81.4598 72.6002C79.2501 71.6183 75.995 70.3356 74.6011 68.3561C73.6428 66.9942 72.3598 65.1415 71.7817 63.5816C71.0609 61.6259 70.269 58.8704 70.3165 56.788C70.4907 50.0022 76.692 46.5024 76.7554 46.4708C78.5848 45.5998 81.0954 44.1904 83.1229 44.2142C85.7523 44.2458 89.3717 45.1564 91.5418 46.6371C91.5972 46.6767 97.7906 53.7395 98.2816 56.012C98.7251 58.1024 99.9131 63.6529 96.1511 68.2374" fill="white"/>
<path d="M95.2724 67.7232C95.2724 67.7232 91.9302 70.7321 89.6889 71.413C87.4317 72.1019 83.9865 72.7512 81.8244 71.801C79.5989 70.8113 76.3439 69.5048 74.9262 67.5253C74.1976 66.5118 73.2393 65.1261 72.8274 63.9543C72.1226 61.9589 71.1959 59.2035 71.2435 57.0894C71.3939 50.2957 77.8724 46.9147 77.9358 46.8831C79.3376 46.218 81.27 45.0778 82.8223 45.1649C85.4517 45.2995 89.0949 46.0754 91.2491 47.5799C91.2966 47.6115 96.6742 53.6133 97.2682 56.5668C97.8622 59.5281 98.67 63.5821 95.2724 67.7312" fill="white"/>
<path d="M92.0727 68.9342C90.9955 69.5756 89.4987 70.4149 88.2711 70.6762C86.4812 71.0483 83.7647 71.9193 82.1887 71.0008C80.0661 69.7735 76.7002 68.665 75.2429 66.6934C72.8115 63.3916 72.1621 57.4452 72.1621 57.3977C72.1938 55.6162 72.8511 53.1695 73.8649 51.6967C75.0291 50.0102 77.2466 48.1812 79.1078 47.3023C80.0899 46.8351 81.4442 46.0037 82.5213 46.1146C85.1348 46.3838 88.7938 47.0093 90.948 48.5137C94.314 50.8653 101.592 63.2966 92.0727 68.9342Z" fill="white"/>
<path d="M92.9123 67.1376C85.9903 71.2629 83.2342 70.5265 82.5531 70.2018C80.3276 69.1408 77.0567 67.8265 75.5678 65.8628C74.1343 63.9704 73.0889 57.7626 73.0889 57.7151C73.1126 55.9336 73.7858 53.4711 74.8313 52.03C76.0509 50.3435 78.4031 48.6253 80.2801 47.7385C80.8345 47.4772 81.6107 46.9704 82.2126 47.0654C84.8024 47.493 88.4851 47.9443 90.6393 49.4567C90.6789 49.4883 94.6785 52.3705 95.7318 60.5656C95.9377 62.1492 93.6013 66.7179 92.9123 67.1297" fill="white"/>
<path d="M85.4039 69.2436C84.6752 69.4257 83.5902 69.7108 82.9091 69.402L75.8921 64.9996C74.8229 63.123 74.023 60.2092 73.9993 58.0476C73.9834 56.2661 74.7517 53.8273 75.7812 52.3704C75.805 52.3308 81.1667 48.1342 81.8954 48.0313C84.501 47.6829 87.9145 49.3536 90.3221 50.4067C92.5318 51.3806 94.6543 60.5734 94.6463 60.6526C94.5592 62.4262 93.696 64.9283 92.3971 66.1398C90.7181 67.6996 87.6293 68.6894 85.4039 69.2436Z" fill="white"/>
<path d="M83.9464 68.5479C82.4416 68.9122 76.3987 63.7813 76.375 63.718C75.6859 62.2056 74.8623 60.0282 74.9177 58.3654C74.9731 56.5839 75.6938 54.1531 76.7393 52.7041C77.7688 51.2788 79.7726 49.6319 81.4912 49.2756C81.5545 49.2597 89.5378 50.3762 90.5515 52.0627C91.8583 54.2402 93.3314 57.4786 93.4581 60.0203C93.5531 61.7939 92.5077 64.2723 91.2406 65.5233C89.5536 67.1861 86.2511 67.9937 83.9464 68.5479Z" fill="white"/>
<path d="M83.7414 67.5019C81.1991 67.1773 77.8411 64.8098 76.8511 62.4502C76.3997 61.3734 75.7344 59.8689 75.8373 58.705C75.9957 56.9313 76.6452 54.5005 77.6906 53.0594C78.4192 52.0617 79.8211 50.9137 81.0249 50.6603C83.5988 50.106 87.6063 50.8028 89.6021 52.5289C91.2811 53.9779 92.1761 57.2006 92.2553 59.4176C92.3265 61.1991 91.3366 63.6854 90.0773 64.9364C88.62 66.3854 85.7768 67.7711 83.7414 67.5177" fill="white"/>
<path d="M84.2792 66.2358C81.7131 65.9191 78.3551 63.5357 77.3176 61.1762C77.0483 60.5744 76.6286 59.7034 76.7394 59.0542C77.0404 57.2964 77.579 54.8576 78.6323 53.4165C79.0521 52.8464 79.8599 52.1893 80.5568 52.0388C83.1229 51.4846 87.1462 52.1338 89.1341 53.852C90.3379 54.8972 91.0823 57.2093 91.0507 58.8087C91.0111 60.5903 90.1636 63.0844 88.9044 64.3434C87.851 65.4044 85.7681 66.4179 84.2871 66.2358" fill="white"/>
<path d="M84.818 64.9605C82.2361 64.6438 78.886 62.2525 77.7851 59.9009C77.2545 58.7686 79.5513 53.8199 79.5829 53.7803C79.6938 53.6298 79.8997 53.4636 80.0819 53.424C82.6479 52.8618 86.6633 53.4715 88.6512 55.1817C89.3878 55.8152 89.9263 57.2404 89.8233 58.2144C89.6333 59.988 88.968 62.498 87.7166 63.7649C87.0593 64.4379 85.7525 65.0793 84.818 64.9684" fill="white"/>
<path d="M85.3488 63.6854C84.0658 63.527 82.2284 62.3631 81.8799 61.112C81.4047 59.3938 82.5531 56.4563 84.1213 55.6169C85.2142 55.0389 87.2179 55.6961 88.1604 56.5038C88.4296 56.7413 88.6831 57.2718 88.596 57.6202C88.1683 59.3542 87.7723 61.9118 86.5289 63.1865C86.2596 63.4637 85.729 63.725 85.3488 63.6775" fill="white"/>
<path d="M47.6658 121.416C44.6958 124.734 42.4703 125.969 41.0131 125.375C40.2369 125.05 39.1915 124.615 38.4153 124.274L37.5283 123.871C40.1419 124.694 42.1219 124.94 47.6658 121.416Z" fill="white"/>
<path d="M47.666 121.416C43.8644 123.744 41.1003 125.177 37.5285 123.871C36.4514 123.34 34.3288 122.224 33.2676 121.661C36.7286 123.546 41.7419 123.696 47.658 121.416" fill="black"/>
<path d="M47.6659 121.416C47.1353 125.494 47.2065 127.505 47.7767 127.655L46.5967 127.315C45.9473 127.109 45.084 126.848 44.4346 126.634C44.8702 126.792 45.9314 125.13 47.658 121.416" fill="white"/>
<path d="M47.6656 121.416C45.9391 125.122 44.8778 126.792 44.4422 126.634L42.5652 125.969L41.0684 125.391C42.5177 125.977 44.7194 124.734 47.6656 121.408" fill="black"/>
<path d="M47.666 121.416C49.5985 126.222 52.0536 128.748 54.8018 129.184C53.7247 128.994 52.2833 128.724 51.2141 128.503C49.5826 128.146 48.3471 125.85 47.6739 121.416" fill="white"/>
<path d="M47.6657 121.416C48.3468 125.85 49.5823 128.154 51.2058 128.503L50.6989 128.392C49.8198 128.178 48.6477 127.893 47.7765 127.655C47.1984 127.505 47.135 125.494 47.6657 121.416Z" fill="black"/>
<path d="M47.666 121.416C52.4971 127.069 57.8193 129.841 63.1414 129.991C62.1435 129.936 60.8209 129.88 59.8309 129.801L58.7855 129.706C54.8097 129.318 50.9924 126.634 47.666 121.416Z" fill="white"/>
<path d="M47.666 121.416C50.9844 126.634 54.8018 129.318 58.7855 129.706C57.6609 129.572 56.164 129.389 55.0473 129.223L54.6276 129.152C51.6418 128.257 49.7569 126.903 47.666 121.416Z" fill="black"/>
<path d="M47.666 121.416C56.362 128.123 65.557 130.625 74.1342 129.421L71.9642 129.682C70.8317 129.77 69.3189 129.904 68.1864 129.96C61.3436 130.292 54.2633 127.56 47.666 121.416Z" fill="white"/>
<path d="M47.666 121.416C54.2633 127.56 61.3436 130.292 68.1864 129.96L65.3273 130.023L63.1414 129.991C57.8193 129.833 52.4971 127.062 47.666 121.416Z" fill="black"/>
<path d="M47.666 121.416C62.4049 129.556 77.714 130.308 90.4571 124.948C85.23 126.935 84.9132 127.054 81.4918 127.964C70.9029 130.712 59.0231 128.78 47.666 121.408" fill="white"/>
<path d="M47.666 121.416C59.0231 128.78 70.9029 130.712 81.4918 127.972L80.3513 128.257C78.5298 128.637 76.0904 129.112 74.253 129.405C65.6441 130.633 56.4095 128.13 47.6739 121.416" fill="black"/>
<path d="M47.666 121.415C72.4236 131.36 97.9652 125.619 113.243 108.96L110.558 111.715C105.925 115.864 105.442 116.3 101.648 118.921L101.323 119.135C86.6397 128.874 66.8321 130.434 47.6739 121.407" fill="white"/>
<path d="M47.666 121.416C66.8242 130.435 86.6397 128.883 101.315 119.144C96.2703 122.232 95.6209 122.627 91.2174 124.631L90.4571 124.955C77.714 130.308 62.4049 129.556 47.666 121.424" fill="black"/>
<path d="M47.666 121.415C82.2838 131.107 117.963 113.782 127.696 82.7676C127.609 83.3773 127.475 83.979 127.292 84.565C126.342 87.2254 124.98 90.741 123.831 93.3223C111.247 119.475 78.9575 132.002 47.666 121.415Z" fill="white"/>
<path d="M47.6661 121.416C78.9655 132.003 111.247 119.476 123.832 93.3232V93.339C120.679 99.2617 120.489 99.6101 117.979 103.149C116.64 104.852 114.858 107.132 113.425 108.755C98.1633 125.549 72.5108 131.377 47.6582 121.416" fill="black"/>
<path d="M47.6661 121.415C81.7058 127.021 116.918 106.403 126.651 75.3799C127.158 76.6705 127.498 77.9374 127.673 79.1726C117.939 110.187 82.2681 129.119 47.6582 121.415" fill="white"/>
<path d="M47.666 121.415C82.268 129.12 117.939 110.188 127.681 79.1729C127.855 80.4081 127.863 81.6116 127.696 82.7676C117.963 113.774 82.2838 131.099 47.666 121.415Z" fill="black"/>
<path d="M47.666 121.417C78.9179 122.549 111.888 98.3276 121.614 67.2891C122.762 68.651 123.76 70.0049 124.592 71.3431C114.858 102.374 80.5652 124.79 47.666 121.409" fill="white"/>
<path d="M47.666 121.416C80.5652 124.797 114.866 102.381 124.592 71.3506C125.431 72.6966 126.112 74.0189 126.627 75.3254C116.894 106.348 81.6898 126.99 47.666 121.424" fill="black"/>
<path d="M47.666 121.415C74.0551 117.979 103.113 90.0759 112.823 59.0215C114.589 60.3913 116.213 61.7769 117.678 63.1547C107.96 94.2011 76.7478 120.267 47.6739 121.415" fill="white"/>
<path d="M47.666 121.416C76.7399 120.268 107.952 94.2018 117.67 63.1553C119.143 64.5409 120.458 65.9187 121.614 67.2964C111.888 98.335 78.9179 122.556 47.666 121.424" fill="black"/>
<path d="M47.666 121.416C67.1489 113.474 90.6393 81.9286 100.317 50.8584C102.67 52.1649 104.879 53.4951 106.946 54.8491C97.2524 85.9114 70.8158 115.675 47.666 121.416Z" fill="white"/>
<path d="M47.6661 121.415C70.8159 115.675 97.2525 85.9109 106.946 54.8486C109.021 56.2026 111.049 57.4537 112.823 58.8314C102.567 90.836 74.0076 117.939 47.6582 121.415" fill="black"/>
<path d="M47.666 121.415C58.8647 109.53 75.6707 74.8097 85.325 43.7236C87.9148 44.7688 90.465 45.8932 92.9677 47.0809C83.2975 78.159 63.086 111.383 47.666 121.415Z" fill="white"/>
<path d="M47.666 121.415C63.086 111.383 83.2975 78.1592 92.9677 47.0811C95.1457 48.1183 97.284 49.2031 99.3749 50.3433C99.6917 50.5175 100.008 50.6917 100.317 50.858C90.6313 81.9282 67.1489 113.466 47.666 121.415Z" fill="black"/>
<path d="M47.666 121.415C50.042 106.514 59.7359 69.3625 69.3585 38.2686C72.0196 39.0208 74.6728 39.8442 77.3101 40.7469C67.6716 71.8409 54.4296 107.884 47.666 121.423" fill="white"/>
<path d="M47.6661 121.416C54.4376 107.876 67.6797 71.8332 77.3102 40.7393C79.9634 41.6419 82.6007 42.6238 85.1984 43.6769C75.9401 74.5966 58.7936 109.499 47.6582 121.416" fill="black"/>
<path d="M47.6661 121.416C41.2431 104.535 43.8566 65.7845 53.4476 34.6826C56.0533 35.1181 58.6906 35.6327 61.3437 36.2345C51.7369 67.3364 45.6149 105.39 47.6661 121.416Z" fill="white"/>
<path d="M47.6663 121.415C45.6071 105.389 51.7371 67.3353 61.3439 36.2334C64.005 36.8352 66.8482 37.5161 69.5252 38.2763C59.9025 69.3702 50.0422 106.514 47.6742 121.415" fill="black"/>
<path d="M47.6665 121.416C32.8246 103.632 28.6429 64.1684 38.2022 33.0586C40.6019 33.1536 43.0729 33.3357 45.5914 33.6049C36.0163 64.7147 36.9033 103.933 47.6665 121.416Z" fill="white"/>
<path d="M47.6662 121.416C36.9031 103.933 36.016 64.7153 45.5912 33.6055C48.1255 33.8747 50.7074 34.2231 53.321 34.6586C43.73 65.7605 41.1798 104.511 47.6662 121.408" fill="black"/>
<path d="M47.6662 121.415C25.3242 103.9 15.0996 64.6508 24.6352 33.5489C26.7181 33.2876 28.896 33.1134 31.1611 33.0342C21.6177 64.144 28.9356 103.615 47.6741 121.415" fill="white"/>
<path d="M47.666 121.416C28.9276 103.616 21.6096 64.1452 31.153 33.0354C33.426 32.9562 35.7782 32.9642 38.2017 33.0592C28.6424 64.169 32.8241 103.632 47.666 121.416Z" fill="black"/>
<path d="M47.6661 121.416C19.107 105.414 3.86916 67.3755 13.3809 36.2816C14.9887 35.6402 16.7311 35.0939 18.5922 34.6426C9.07254 65.7445 21.982 104.511 47.6661 121.424" fill="white"/>
<path d="M47.6654 121.416C21.9812 104.503 9.07183 65.7443 18.5915 34.6345C20.4606 34.1832 22.4406 33.8189 24.5314 33.5576C14.9959 64.6674 25.268 103.909 47.6654 121.416Z" fill="black"/>
<path d="M47.6658 121.416C14.9092 108.058 -3.71046 72.1579 5.78547 41.0719C6.68834 40.1375 7.76542 39.2744 9.03261 38.4668C-0.471251 69.5608 16.6991 106.625 47.6658 121.416Z" fill="white"/>
<path d="M47.6663 121.416C16.6996 106.625 -0.470748 69.5606 9.03311 38.4666C10.0706 37.8094 11.2348 37.1918 12.5258 36.6376C12.8029 36.5188 13.0881 36.4 13.3811 36.2812C3.86934 67.3832 19.0993 105.413 47.6663 121.416Z" fill="black"/>
<path d="M47.666 121.416C15.4162 112.215 -4.22512 82.8395 0.954485 53.7171C1.46136 51.3892 2.15833 48.2932 2.80776 45.997C3.00575 45.3477 3.26709 44.7143 3.58389 44.0967C-5.91204 75.1827 13.6897 109.729 47.666 121.416Z" fill="white"/>
<path d="M47.666 121.416C13.6897 109.737 -5.91201 75.1825 3.58392 44.0964C4.13039 43.0433 4.85109 42.0457 5.74603 41.1113C-3.55982 72.2291 14.8856 108.082 47.666 121.416Z" fill="black"/>
<path d="M47.6658 121.416C25.9812 117.726 10.1176 104.345 3.86881 87.0993C2.53035 82.9423 1.14437 78.6508 0.399902 72.4668C3.09266 95.4369 21.1183 115.359 47.6658 121.408" fill="white"/>
<path d="M47.6658 121.416C21.1183 115.366 3.06097 95.7298 0.368208 72.7597L0.399871 72.4509C-0.178281 64.9605 -0.304989 62.1892 0.954272 53.709C-4.22533 82.8314 15.4239 112.207 47.6658 121.408" fill="black"/>
<path d="M47.666 121.415C33.3627 120.805 21.9422 115.041 14.6242 106.022C13.6897 104.803 12.4304 103.188 11.5434 101.929C10.8227 100.804 9.82477 99.3316 9.13574 98.1914C16.5487 110.694 30.0997 119.515 47.658 121.415" fill="white"/>
<path d="M47.6659 121.415C30.0996 119.507 16.5566 110.694 9.14357 98.1917C6.26865 92.9658 6.21318 92.8708 5.00144 89.9728L3.95605 87.3203C10.2444 104.471 26.0684 117.757 47.6659 121.415Z" fill="black"/>
<path d="M47.6659 121.415C38.2175 122.555 30.3926 120.465 24.6586 115.912L23.8983 115.302C22.6787 114.249 21.0551 112.832 19.875 111.731C26.5198 118.177 36.0316 121.795 47.6659 121.423" fill="white"/>
<path d="M47.6663 121.416C36.032 121.788 26.5202 118.17 19.8754 111.725L18.0301 109.872C17.0005 108.724 15.6145 107.203 14.6245 106.016C21.9346 115.034 33.363 120.799 47.6663 121.408" fill="black"/>
<path d="M47.6659 121.415C41.6943 123.751 36.7681 123.664 33.0695 121.566C31.8815 120.861 30.3134 119.911 29.1492 119.167L29.0938 119.127C33.814 122.255 40.1024 123.197 47.6659 121.415Z" fill="white"/>
<path d="M47.6661 121.415C40.1026 123.197 34.2814 122.999 29.5533 119.871C28.2227 118.945 26.0131 116.942 24.7222 115.968C30.4482 120.505 38.2414 122.571 47.6661 121.415Z" fill="black"/>
<path d="M127.712 82.657C127.736 82.5857 127.752 82.5223 127.776 82.4511C128.647 79.6244 129.28 76.7897 129.676 73.9551C128.465 80.7171 128.441 80.8438 127.372 84.3198L127.292 84.5652C127.49 83.9476 127.625 83.3062 127.712 82.657Z" fill="black"/>
<path d="M121.479 67.1299C121.479 67.1299 121.448 67.0902 121.424 67.0664C121.44 67.0902 121.456 67.1061 121.479 67.1299Z" fill="white"/>
<path d="M127.72 82.6259C128.322 77.978 126.168 72.6254 121.487 67.1303C121.511 67.0591 121.527 66.9957 121.551 66.9245C126.912 49.6236 123.935 33.8747 114.898 23.1221C116.062 24.5948 117.607 26.5585 118.7 28.0867C120.664 31.1351 123.103 34.9278 125.257 40.0508C128.005 47.3512 128.702 49.6712 129.859 57.5971C130.247 62.6092 130.587 66.9324 129.708 73.7973C129.312 76.6794 128.679 79.5616 127.792 82.4279C127.768 82.4992 127.752 82.5625 127.728 82.6338" fill="white"/>
<path d="M100.46 50.9374C100.294 50.8424 100.119 50.7474 99.9531 50.6523C100.127 50.7474 100.294 50.8424 100.46 50.9374Z" fill="black"/>
<path d="M121.479 67.1297C121.479 67.1297 121.448 67.0901 121.424 67.0663C116.807 61.6583 109.742 56.1078 100.452 50.9294C100.476 50.8582 100.492 50.7949 100.516 50.7236C107.287 28.862 105.37 13.0497 96.8882 8.29102C98.1633 9.03531 99.8502 10.0567 101.094 10.8485C104.301 13.0814 104.491 13.2081 106.345 14.7125C109.663 17.5709 110.011 17.8718 112.205 20.1284C113.013 21.0232 114.106 22.195 114.882 23.1056C123.911 33.8583 126.889 49.5992 121.535 66.908C121.511 66.9793 121.495 67.0426 121.472 67.1138" fill="black"/>
<path d="M100.46 50.9378C100.293 50.8428 100.119 50.7478 99.9528 50.6528C99.7628 50.5499 99.5727 50.4469 99.3826 50.3361C90.1164 45.2923 79.8443 41.2304 69.5405 38.3086C69.5643 38.2373 69.5801 38.174 69.6039 38.1028C76.6525 15.3465 81.6579 2.15503 82.8776 2.48759L83.6616 2.71724C85.4674 3.28733 86.8138 3.73598 87.7008 4.06326C90.4173 5.11635 90.4648 5.14012 91.8429 5.75772C94.6782 7.09587 94.7891 7.15132 96.2859 7.96688L96.8958 8.29942C105.378 13.0581 107.295 28.8624 100.523 50.732C100.499 50.8032 100.483 50.8666 100.46 50.9378Z" fill="white"/>
<path d="M69.5329 38.316C69.4933 38.308 69.4536 38.2922 69.414 38.2843C58.6984 35.2596 47.9511 33.4622 38.2651 33.0663C38.2889 32.9951 38.3047 32.9318 38.3285 32.8605C44.9495 11.4819 56.3383 -0.347626 67.6083 0.0641104C68.4637 0.111618 69.5962 0.167069 70.4436 0.238331C72.5609 0.454757 74.1528 0.647413 75.2193 0.81633C77.1518 1.15416 78.5985 1.43129 79.5594 1.64771C80.5573 1.89317 81.8879 2.22573 82.8778 2.49494C81.6503 2.16239 76.6449 15.3617 69.6041 38.1101C69.5803 38.1814 69.5645 38.2447 69.5408 38.316" fill="black"/>
<path d="M13.3891 36.2725C13.3891 36.2725 13.3413 36.2884 13.3174 36.3043C13.3413 36.2963 13.3652 36.2884 13.3891 36.2725Z" fill="white"/>
<path d="M38.1942 33.0586C28.5082 32.6706 19.8755 33.6841 13.3892 36.2733C13.4129 36.202 13.4288 36.1387 13.4525 36.0674C18.252 20.5719 28.3023 9.74003 40.689 4.72793C45.8607 2.84345 46.2804 2.68511 49.9394 1.78246C54.6042 0.808548 54.9844 0.729329 58.3107 0.357183C62.4608 0.024627 62.54 0.0246251 64.9397 0.00878906L67.5532 0.0562951C56.2674 -0.347523 44.8707 11.482 38.2497 32.8527C38.2259 32.9239 38.2101 32.9873 38.1863 33.0586" fill="white"/>
<path d="M13.3891 36.2739C13.3891 36.2739 13.3415 36.2897 13.3178 36.3055C13.0485 36.4164 12.7871 36.5193 12.5337 36.638C7.16401 38.9659 3.97233 42.2044 2.80811 46.0051L2.88728 45.7517C5.17613 39.2985 5.31077 38.9105 7.29074 35.0149C10.6012 29.211 10.7993 28.8626 13.4049 25.4103C17.5153 20.4695 17.848 20.0657 21.0793 17.0568C25.8154 13.0503 26.3064 12.6386 30.2188 10.089C35.5251 7.001 35.731 6.8822 39.0811 5.40945L40.7047 4.72852C28.3101 9.74061 18.2598 20.5724 13.4682 36.068C13.4445 36.1392 13.4287 36.2026 13.4049 36.2739" fill="black"/>
</g>
</svg>
