<svg width="128" height="128" viewBox="0 0 128 128" fill="none" xmlns="http://www.w3.org/2000/svg">
<mask id="mask0_208_2" style="mask-type:luminance" maskUnits="userSpaceOnUse" x="0" y="0" width="128" height="128">
<path d="M98.9031 116.301C98.4839 116.584 98.2856 116.709 98.2856 116.709C98.1553 116.794 98.025 116.879 97.8947 116.964C97.6794 117.105 97.4584 117.241 97.2375 117.377C97.0166 117.513 96.8013 117.649 96.5803 117.785C96.0818 118.085 95.8212 118.238 95.7929 118.255C95.2433 118.578 94.5068 118.997 93.9516 119.297C92.7846 119.926 91.204 120.736 89.9973 121.285C88.9039 121.784 87.4309 122.424 86.3035 122.849C84.9439 123.364 83.1083 124.015 81.709 124.423C80.202 124.865 78.1795 125.392 76.6499 125.72C75.2053 126.032 73.2564 126.36 71.7948 126.559C70.3388 126.757 68.3843 126.932 66.917 127.012C65.427 127.091 63.4385 127.068 61.9485 127.091C61.9089 127.091 57.6826 127.091 52.2213 126.111C50.7766 125.851 48.8674 125.437 47.4511 125.069C46.0347 124.701 44.1822 124.089 42.7829 123.664C39.514 122.679 32.9196 119.603 29.5375 117.326C25.6454 114.71 24.4104 113.877 21.5834 111.385C19.306 109.374 16.5187 106.412 14.5358 104.112C14.5018 104.073 11.5559 100.38 10.3152 98.3692C9.49373 97.0381 8.39469 95.271 7.64687 93.9004C6.91039 92.5467 5.98125 90.7172 5.3864 89.3012C4.21369 86.5259 2.83703 82.7311 2.06655 79.8142C1.68698 78.3755 1.26208 76.4328 0.995809 74.9658C0.735207 73.5102 0.468966 71.5561 0.316004 70.0835C0.0893929 67.9199 -0.131561 64.4649 0.0950499 60.2962C0.253678 57.3793 0.820205 53.5109 1.36974 50.6449C1.64167 49.2063 2.14586 47.3202 2.55376 45.9155C2.96166 44.5109 3.63585 42.6814 4.09473 41.2938C4.55929 39.9004 5.42039 38.1389 5.99259 36.7909C6.21353 36.2642 8.27004 31.9709 10.8194 28.2611C11.6749 27.0207 12.8136 25.3554 13.788 24.2057C15.5782 22.1043 18.0596 19.3744 20.0368 17.4373C20.49 16.9898 22.048 15.5908 23.9572 14.0956C24.4557 13.7047 25.4981 12.8948 26.5349 12.1415C27.311 11.5751 27.447 11.4788 28.0532 11.0654C28.2118 10.9521 29.0049 10.4253 29.0163 10.4253C29.1636 10.3291 29.3109 10.2328 29.4582 10.1365C29.6961 9.98355 29.9284 9.8363 30.1663 9.68903C32.0472 8.5166 33.0839 7.97853 34.6022 7.17425C35.8316 6.5229 37.9164 5.5147 38.1827 5.41841C40.6754 4.5405 42.9699 3.20381 47.689 2.08801C49.1223 1.74818 51.0372 1.28373 52.4875 1.02319C53.9605 0.756988 55.9376 0.422827 57.4333 0.326541C58.9289 0.230254 60.8495 0.0603192 62.3168 0.0263356C63.7841 -0.00764798 65.7556 -0.0303009 67.2229 0.0999695C70.1292 0.366174 73.9929 0.875952 76.8765 1.36305C78.3211 1.6066 80.2077 2.13332 81.6127 2.54679C83.0177 2.96026 84.8759 3.57198 86.2469 4.0874C87.6179 4.60282 89.4534 5.40707 90.8018 5.97346C92.1501 6.53986 93.8043 7.54805 95.113 8.22206C96.4274 8.90173 98.0816 9.98922 99.311 10.8162C100.546 11.6487 102.121 12.8608 103.316 13.7444C103.35 13.767 106.953 16.5254 110.67 20.6091C112.755 22.8973 115.106 26.239 116.851 28.7991C117.729 30.0905 118.953 31.852 119.661 33.2453C120.833 35.5562 122.267 38.7053 123.252 41.0955C123.269 41.1351 124.997 45.5474 126.023 50.6902C127.19 56.558 127.235 60.4208 127.235 60.4605C127.246 61.9274 127.371 63.8928 127.269 65.3598C127.167 66.8211 127.082 68.7751 126.924 70.2308C126.765 71.6864 126.504 73.6235 126.21 75.0564C125.621 77.9167 124.55 81.6776 123.689 84.4699C123.252 85.8745 122.431 87.6587 121.887 89.0237C121.394 90.2584 119.275 94.6027 117.242 97.6725C116.409 98.9299 115.321 100.623 114.364 101.79C112.562 103.993 110.069 106.865 108.075 108.898C108.064 108.91 106.659 110.331 103.974 112.501C102.127 113.99 100.427 115.27 98.9144 116.301H98.9031Z" fill="white"/>
</mask>
<g mask="url(#mask0_208_2)">
<path d="M102.087 30.1925C116.698 53.1088 93.2269 78.0697 70.7584 71.6751C44.3696 64.1648 45.0211 31.4103 65.9599 20.0711C76.6163 14.2995 93.6744 16.9899 102.093 30.1925" fill="#EDEDED"/>
<path d="M100.433 31.2066C113.786 52.3897 92.4563 76.3651 71.9764 70.8768C43.3327 63.2022 47.9726 30.1928 67.5971 21.459C79.6754 16.0839 93.4874 20.1846 100.439 31.2066" fill="#F1F1F1"/>
<path d="M101.35 37.8046C108.608 60.7322 84.332 77.0443 65.9142 67.7102C47.1905 58.2287 49.2073 30.5661 69.1831 22.8688C82.2132 17.8449 97.2432 24.8285 101.356 37.8046" fill="#F5F5F5"/>
<path d="M97.5096 34.6668C99.8494 39.2376 101.26 42.0016 101.135 45.1451C100.739 55.04 96.5408 59.9053 96.4955 59.9506C90.1731 66.6397 79.8849 73.3118 66.7925 67.1381C48.0857 58.3137 50.6012 30.2376 70.6392 24.2282C89.0854 18.6945 97.4246 34.5026 97.504 34.6668" fill="#FAFAFA"/>
<path d="M98.4334 39.6232C101.43 48.7817 98.7336 57.1134 90.4227 64.3972C85.8904 68.3676 75.6703 70.1801 67.6766 66.5665C48.9019 58.0649 51.7345 30.391 71.8915 25.435C82.8765 22.7333 95.0342 29.2355 98.4334 39.6288" fill="white"/>
<path d="M97.1245 40.4439C98.5578 45.3602 99.5322 54.8926 89.9522 63.5131C84.7572 68.1858 74.5767 68.5937 68.6905 66.0279C51.3434 58.4835 52.2499 36.9776 65.9258 29.1784C78.5934 21.9512 93.918 29.4616 97.1188 40.4439" fill="white"/>
<path d="M95.7876 41.2831C96.8414 44.9986 98.337 54.514 89.4822 62.6248C85.4032 66.3573 75.115 67.8356 69.4384 65.4228C51.4682 57.7764 54.4028 36.7236 66.7588 30.0912C77.6588 24.2403 92.5811 29.9949 95.7876 41.2831Z" fill="white"/>
<path d="M93.9011 40.9772C98.6486 50.4246 92.0542 58.6373 88.9949 61.7298C87.318 63.4233 84.2644 64.9412 81.919 65.3321C81.8454 65.3434 73.1945 66.0344 70.3165 64.8449C52.1763 57.3742 55.4905 37.4655 67.5859 31.0143C68.8266 30.3516 77.0582 27.8935 81.2505 29.485C89.7428 32.7021 91.397 35.9929 93.9067 40.9772" fill="white"/>
<path d="M93.6233 42.6424C95.1019 47.3774 94.6827 48.867 93.2947 53.8116C93.1418 54.3554 88.8928 60.5914 88.5076 60.8406L81.4373 64.5108C73.521 64.575 68.0333 63.4139 64.974 61.0275C57.0993 54.8764 58.3683 45.1175 58.8272 43.8544C60.5834 39.0854 63.6427 30.8557 76.3555 30.0798C78.9502 29.9212 90.1845 31.66 93.6176 42.6424" fill="white"/>
<path d="M92.7509 43.1967C92.7622 43.242 93.9632 47.8921 92.6319 52.6384C91.9294 55.1475 90.2298 58.5969 88.0374 60.0015C86.0205 61.2986 83.3975 63.7227 81.0011 63.785C72.2879 64.0059 70.2144 64.0569 65.6935 60.5679C57.8584 54.5245 59.0878 45.6491 60.1359 43.0154C62.6173 36.7908 65.6255 31.6083 77.381 31.2231C82.2304 31.0645 90.5018 35.2388 92.7509 43.1967Z" fill="white"/>
<path d="M91.867 43.7519C91.8783 43.7916 92.3485 50.0276 91.952 51.4606C91.2381 54.032 89.8388 57.7702 87.5954 59.2145C85.5729 60.5115 82.9668 62.947 80.5647 63.049C76.4348 63.2189 70.7808 63.4568 66.4129 60.0981C63.0251 57.4983 57.8753 51.7098 61.4388 42.1717C62.6247 38.9999 65.3403 36.0509 69.5854 33.3247C71.421 32.1466 74.6049 32.3901 76.786 32.3165C84.0036 32.0786 90.411 38.037 91.867 43.7519Z" fill="white"/>
<path d="M90.9717 44.318C90.983 44.3519 91.4929 49.1946 90.8244 51.6527C90.2182 53.8843 89.0851 57.1751 87.142 58.4268C85.1138 59.7295 82.5191 62.165 80.117 62.3123C71.9534 62.805 68.1067 60.3865 67.1209 59.6332C59.0422 53.4596 60.9967 47.0197 62.7246 41.3331C63.5971 38.4671 63.6481 38.2916 70.2142 34.0776C71.4605 33.279 73.619 33.4375 75.0976 33.3866C87.5952 32.9674 90.5128 42.4149 90.9717 44.318Z" fill="white"/>
<path d="M90.0657 44.8902C91.4934 50.9223 86.7346 57.6 86.6779 57.6397C84.6498 58.9424 82.0664 61.3779 79.6586 61.5761C73.7667 62.0519 67.8635 59.203 67.8239 59.1746C61.2068 54.1451 61.7847 48.804 61.796 48.753C61.813 48.668 63.8638 40.1608 64.538 39.3339C65.9997 37.5327 68.8096 35.9695 70.8435 34.8537C71.5176 34.4856 72.611 34.5252 73.3758 34.4912C73.4438 34.4912 80.6841 34.5082 82.3553 35.5504C85.9584 37.7989 88.8024 39.5718 90.0601 44.8958" fill="white"/>
<path d="M89.1533 45.4681C89.9804 49.0024 87.2271 56.1956 86.2187 56.8469C84.1849 58.1553 81.6185 60.5851 79.2107 60.8287C75.432 61.2138 68.7187 58.6481 68.6677 58.6197C67.0417 57.7022 65.2005 55.8218 64.2884 54.1905C63.3763 52.5593 62.5718 49.9596 62.8041 48.0905C63.11 45.604 63.6822 42.1264 65.1156 40.0704L71.489 35.6072C71.8686 35.4599 81.2842 36.1623 81.3352 36.1906C85.1139 38.2976 87.8389 39.8155 89.159 45.4624" fill="white"/>
<path d="M87.4708 44.3348C87.7031 44.8502 88.298 45.5072 88.2186 46.068C87.1139 53.5783 86.6777 55.3511 85.7486 56.0648C83.8281 57.5374 81.1597 59.803 78.7576 60.0975C77.2393 60.2844 69.6252 58.0698 69.5799 58.0415C67.9313 57.1353 65.9428 55.3681 65.0364 53.7143C64.1186 52.0321 63.5747 49.3587 63.8013 47.4556C64.0449 45.411 64.4528 42.4997 65.6935 40.8515C67.1042 38.9767 69.8745 37.051 72.1349 36.4166C74.4803 35.7539 78.0778 35.7823 80.2419 36.8981C83.6033 38.6312 86.0168 41.1101 87.4822 44.3348" fill="white"/>
<path d="M87.2385 46.6859C87.2442 46.7539 85.5106 55.1195 85.2783 55.2668C85.1083 55.3744 78.2873 59.2825 78.259 59.2881C75.8909 59.6393 72.5994 58.5802 70.4863 57.4474C68.8264 56.5581 66.8038 54.8023 65.9144 53.1371C65.025 51.4719 64.5774 48.7193 64.7927 46.8049C64.974 45.202 65.2346 42.8684 66.2656 41.628C67.7726 39.8156 70.4976 37.8502 72.7694 37.2215C74.6106 36.7117 77.3016 37.0176 79.1202 37.601C81.001 38.2013 83.0802 39.9628 84.7344 41.0446C86.281 42.0585 87.0572 44.8451 87.2272 46.6859" fill="white"/>
<path d="M86.2472 47.3207C86.4285 49.456 85.947 52.5598 84.6723 54.2817C83.222 56.23 80.0607 57.9009 77.6757 58.3597C75.7721 58.7278 73.1718 57.629 71.3929 56.8644C69.6593 56.1224 67.6708 54.2477 66.7927 52.5711C65.8919 50.8493 65.6766 48.108 65.7899 46.1652C65.8579 44.9985 66.0505 43.2653 66.8493 42.41C68.4696 40.6825 71.1209 38.6152 73.421 38.0375C78.1629 36.8481 83.7772 41.5774 83.8225 41.6284C85.0462 43.0217 86.0886 45.4686 86.2472 47.315" fill="white"/>
<path d="M85.2502 47.955C85.3748 49.5862 85.0179 51.9537 84.0491 53.2677C82.6102 55.2274 79.5112 57.612 77.0865 57.4194C75.6135 57.3061 73.574 57.0116 72.2937 56.2753C70.6564 55.3351 68.549 53.6755 67.6652 52.0047C66.7531 50.2659 66.8267 47.4905 66.7757 45.5251C66.7587 44.8002 67.008 43.792 67.4272 43.2029C68.8039 41.2659 71.8858 39.8216 74.0613 38.8644C74.8374 38.5245 76.0611 38.8077 76.8769 39.0343C78.8427 39.5837 81.4941 40.7334 82.8878 42.2231C84.1624 43.5767 85.1029 46.1029 85.2445 47.955" fill="white"/>
<path d="M84.2415 48.6007C84.3208 49.7221 84.0716 51.3477 83.4144 52.2653C81.9924 54.242 78.9162 56.6265 76.4858 56.4905C75.4717 56.4339 74.0497 56.2413 73.1886 55.6976C71.591 54.6838 69.4042 53.1205 68.5374 51.444C68.5147 51.3987 67.3024 45.1457 68.0049 44.0072C69.2569 41.9739 72.6051 40.8524 74.7012 39.7027C74.9732 39.5554 75.4377 39.6857 75.738 39.765C77.7491 40.2917 80.5138 41.3226 81.9528 42.8235C83.2444 44.1659 84.1112 46.7429 84.2415 48.6007Z" fill="white"/>
<path d="M83.2218 49.2467C83.2615 49.864 83.1312 50.7476 82.7743 51.2517C81.3636 53.2397 78.2874 55.1598 75.8853 55.5506C73.6928 55.9075 69.4439 50.9289 69.4099 50.8779C68.4298 49.4336 68.0276 46.6583 68.781 45.0837C69.8235 42.9201 73.1773 40.9943 75.5737 40.8527C77.3753 40.7451 79.7943 42.0931 81.0067 43.4242C82.2191 44.7552 83.1028 47.3832 83.2218 49.2467Z" fill="white"/>
<path d="M82.2024 49.9037C82.2081 50.0113 82.2137 50.1869 82.1231 50.2492C80.1062 51.6198 77.6815 54.2139 75.2794 54.616C74.8149 54.6953 70.3053 50.3681 70.277 50.3228C69.6538 49.3996 69.3876 47.6324 69.8804 46.6299C70.9512 44.4663 74.3503 42.5745 76.7581 42.4556C77.8515 42.4046 79.4094 43.1522 80.0553 44.0358C81.16 45.5481 82.0891 48.0346 82.2024 49.9037Z" fill="white"/>
<path d="M79.9698 47.014C79.2616 49.3419 75.8171 51.8736 73.3867 51.749C72.1007 51.6867 70.3898 49.3475 70.9677 48.1978C72.0554 46.0285 75.5056 44.1877 77.9303 44.0857C79.001 44.0404 80.2814 45.9888 79.9698 47.014Z" fill="white"/>
<path d="M62.7645 104.226C62.7078 104.266 62.6512 104.3 62.5946 104.339C62.9741 104.674 63.3537 105.002 63.7333 105.325C63.7333 105.325 63.7276 105.325 63.7219 105.331C63.3424 105.008 62.9628 104.679 62.5832 104.345C62.5266 104.385 62.4699 104.419 62.4133 104.458C56.9179 108.129 52.2441 111.289 48.4993 113.872C44.7263 116.472 41.8936 118.482 40.0977 119.819C40.6076 120.062 41.1231 120.295 41.6443 120.521C41.6443 120.521 41.6387 120.527 41.633 120.533C41.1175 120.306 40.6019 120.068 40.0864 119.83C38.4831 121.031 37.7183 121.688 37.8713 121.756C35.3219 120.521 31.9737 118.754 29.5207 117.327C25.8836 114.827 23.2322 112.847 21.5666 111.385C18.311 108.285 15.9618 105.861 14.519 104.113C13.4313 102.68 11.947 100.799 10.9329 99.3155C10.8423 99.1853 11.7544 98.4036 13.5899 97.033C13.454 96.8347 13.3236 96.6365 13.1877 96.4326C13.1877 96.4326 13.199 96.4269 13.2047 96.4212C13.335 96.6195 13.4709 96.8234 13.6069 97.0216C17.8672 93.8328 27.079 87.4722 40.2224 78.6931C40.2847 78.6478 40.3527 78.6082 40.415 78.5629C40.2847 78.3646 40.1487 78.1607 40.0184 77.9625C40.0241 77.9625 40.0298 77.9568 40.0354 77.9512C40.1657 78.1551 40.3017 78.3533 40.432 78.5515C40.5 78.5062 40.568 78.4609 40.6359 78.4156C47.4683 88.7126 55.1334 97.5144 62.7645 104.22" fill="black"/>
<path d="M122.816 67.439C122.816 67.439 122.816 67.439 122.811 67.439C122.799 66.8783 122.782 66.3232 122.754 65.7625C122.663 65.8135 122.573 65.8701 122.477 65.9268C119.769 67.524 116.126 69.7556 111.848 72.4233C107.441 75.1759 102.353 78.3987 96.9204 81.8877C97.096 82.3521 97.2717 82.8166 97.4417 83.2754C97.4303 83.281 97.419 83.2924 97.4077 83.298C97.2377 82.8392 97.0621 82.3748 96.8864 81.9103C91.4308 85.4107 85.6182 89.1715 79.783 92.989C74.027 96.7498 68.2542 100.562 62.7702 104.226C55.1447 97.5145 47.4739 88.7127 40.6416 78.4214C53.8134 69.631 68.4015 60.1042 81.3296 51.8122C81.1993 51.6083 81.069 51.4101 80.9387 51.2062C80.9557 51.1949 80.9727 51.1835 80.9897 51.1722C81.12 51.3761 81.2503 51.5744 81.3806 51.7783C94.1558 43.5882 105.305 36.6102 111.865 32.7418C111.979 32.6738 112.086 32.6115 112.194 32.5492C112.064 32.3453 111.939 32.1414 111.809 31.9432C111.809 31.9432 111.814 31.9432 111.82 31.9375C118.148 42.597 122.199 52.254 122.822 67.4447" fill="white"/>
<path d="M122.816 67.4385C122.816 67.4385 122.822 67.4385 122.828 67.4326C122.828 67.4326 122.822 67.4326 122.816 67.4385Z" fill="white"/>
<path d="M127.236 63.3947C127.236 63.9667 127.224 64.5445 127.213 65.1165C127.23 64.5445 127.236 63.9667 127.236 63.3947C126.941 63.406 125.491 64.165 122.777 65.7566C122.805 66.3173 122.822 66.878 122.834 67.4331C122.834 67.4331 122.828 67.4331 122.822 67.4387C122.579 55.4199 118.993 43.0612 111.82 31.9316C111.82 31.9316 111.832 31.9259 111.837 31.9203C111.968 32.1242 112.098 32.3224 112.223 32.5263C115.758 30.4533 117.497 29.5584 117.599 29.7283C118.738 31.7163 120.25 34.3727 121.264 36.4231C123.021 40.5653 124.208 43.7107 124.828 45.8592C125.882 50.1449 126.544 53.379 126.816 55.5615C127.015 57.912 127.241 61.0555 127.292 63.4174C127.292 63.3947 127.275 63.3834 127.236 63.3834" fill="black"/>
<path d="M13.1933 96.4325C13.3236 96.6307 13.4596 96.8346 13.5956 97.0329C11.7657 98.4036 10.8536 99.1852 10.9386 99.3155L10.3097 98.3696C7.94539 94.4086 6.30249 91.3841 5.38093 89.296C3.73423 85.1273 2.62758 81.9631 2.06106 79.8032C1.11307 75.5062 0.529564 72.2645 0.310507 70.0783L0.134885 67.9543C0.123554 67.8014 0.922344 67.1273 2.45763 65.9775C3.36408 76.2859 6.80856 86.6509 12.9667 96.087C13.0404 96.2003 13.1197 96.3192 13.1933 96.4325Z" fill="black"/>
<path d="M2.4579 65.9767L2.57688 66.2033C1.04159 67.3531 0.118149 67.8006 0.12948 67.9535C0.067162 65.6539 0.0104996 62.5897 0.0841482 60.2958C0.488271 55.9799 0.913167 52.7609 1.35884 50.6388C2.41258 46.4362 3.3228 43.3192 4.0895 41.2877C5.77775 37.2814 7.16198 34.3248 8.24216 32.418C11.6243 26.9523 11.6866 26.8447 13.7828 24.2109C17.6692 19.6798 17.9014 19.4079 20.6887 16.8365C21.4309 16.1795 21.5442 16.0775 22.3034 15.4375C7.76628 27.9831 0.769642 46.9006 2.45223 65.9881" fill="black"/>
<path d="M2.46887 65.9717C2.46887 65.9207 2.45752 65.8753 2.45752 65.8242C2.45752 65.8753 2.4632 65.9207 2.46887 65.9717Z" fill="white"/>
<path d="M11.1936 59.6391C7.27319 62.3408 4.34424 64.8046 2.48036 66.198C0.843098 47.1558 7.82273 27.9381 22.3202 15.4265C23.0283 14.8431 24.0934 13.9652 25.708 12.7588C12.8761 22.7953 7.87371 40.6423 11.1936 59.6391Z" fill="white"/>
<path d="M40.0241 77.9618C40.1544 78.1657 40.2904 78.364 40.4207 78.5622C40.3584 78.6075 40.2904 78.6472 40.2281 78.6925C27.0846 87.4716 17.8729 93.8322 13.6126 97.0209C13.4767 96.8227 13.3464 96.6245 13.2104 96.4206C13.1367 96.3073 13.0574 96.1884 12.9838 96.0751C6.82564 86.639 3.38116 76.2797 2.47472 65.9713C2.47472 65.9203 2.46338 65.875 2.46338 65.824C4.32725 64.4307 7.27885 62.3407 11.1992 59.639C11.2049 59.6843 11.2162 59.7297 11.2219 59.775C15.1253 57.0846 19.9917 53.7882 25.7137 49.9707C25.7703 49.9311 25.827 49.8971 25.8836 49.8574C28.9655 58.6762 33.645 68.1802 39.8032 77.6163C39.8768 77.7296 39.9562 77.8486 40.0298 77.9618" fill="white"/>
<path d="M25.8836 49.852C25.8836 49.852 25.8836 49.852 25.8779 49.852C25.8212 49.8917 25.7646 49.9257 25.7079 49.9653C19.986 53.7828 15.1195 57.0792 11.2162 59.7696C11.2105 59.7243 11.1991 59.6789 11.1935 59.6336C7.87363 40.6368 12.8761 22.7841 25.7079 12.7533C26.3877 12.2492 27.0846 11.7281 27.906 11.1674C27.957 11.1334 28.008 11.0994 28.059 11.0654C28.059 11.0654 28.059 11.0654 28.0647 11.0654C19.969 16.7747 19.5951 31.8747 25.8836 49.8634" fill="black"/>
<path d="M43.7179 37.9179C37.673 41.8713 31.5999 45.8758 25.844 49.7216C19.6008 31.7896 19.986 16.7462 28.0591 11.0596C28.3197 10.884 28.5973 10.7027 28.8749 10.5215C28.127 11.3767 34.0813 22.2288 43.7179 37.9236" fill="white"/>
<path d="M80.9332 51.2061C81.0635 51.41 81.1938 51.6082 81.3241 51.8121C68.3959 60.1041 53.8078 69.6308 40.6361 78.4212C40.5681 78.4666 40.5001 78.5119 40.4321 78.5572C40.3018 78.3589 40.1659 78.155 40.0356 77.9568C39.9619 77.8435 39.8826 77.7246 39.8089 77.6113C33.6508 68.1752 28.9713 58.6655 25.8837 49.8524C25.8667 49.8127 25.8554 49.7674 25.8384 49.7278C31.5943 45.8876 37.6618 41.8776 43.7123 37.9241C43.735 37.9581 43.7576 37.9978 43.7803 38.0318C49.8535 34.0613 55.904 30.1476 61.5806 26.5C67.971 33.1495 74.5427 41.4244 80.7009 50.8605C80.7745 50.9738 80.8539 51.0928 80.9275 51.2061" fill="black"/>
<path d="M61.5975 26.4943C61.5975 26.4943 61.5975 26.4943 61.5918 26.4943C55.9095 30.1362 49.8647 34.0556 43.7915 38.026C43.7688 37.992 43.7462 37.9524 43.7235 37.9184C34.0869 22.2293 28.1327 11.3716 28.8805 10.5163C29.1581 10.3351 29.43 10.1595 29.6906 9.98957C36.2454 6.11544 48.556 12.9235 61.5975 26.4886" fill="black"/>
<path d="M77.0694 16.5372C72.4862 19.4032 67.1948 22.7562 61.5409 26.3755C48.5221 12.8783 36.2454 6.1156 29.6851 9.99539C29.94 9.83114 30.1836 9.67822 30.3932 9.54795C43.31 1.64111 61.099 4.90351 77.0694 16.5372Z" fill="white"/>
<path d="M111.803 31.9368C111.934 32.1407 112.064 32.3389 112.189 32.5428C112.081 32.6051 111.973 32.6731 111.86 32.7354C105.3 36.6038 94.1503 43.5818 81.3751 51.7719C81.2448 51.568 81.1145 51.3697 80.9842 51.1658C80.9106 51.0526 80.8313 50.9336 80.7577 50.8203C74.5995 41.3842 68.0278 33.1149 61.6317 26.4654C61.6034 26.4315 61.5693 26.4031 61.541 26.3691C67.195 22.7442 72.4807 19.3912 77.0696 16.5309C77.1092 16.5592 77.1432 16.5875 77.1829 16.6102C81.6358 13.8292 85.4315 11.507 88.2528 9.84179C88.3491 9.78515 88.4454 9.72851 88.5417 9.67188C97.4362 14.7637 105.43 22.1438 111.588 31.58C111.662 31.6932 111.741 31.8122 111.815 31.9254" fill="white"/>
<path d="M88.5361 9.67769C88.4398 9.73433 88.3491 9.79096 88.2472 9.8476C85.4258 11.5128 81.6358 13.8294 77.1772 16.616C77.1376 16.5877 77.1036 16.5594 77.0639 16.5367C61.0992 4.90299 43.3102 1.64058 30.3877 9.54743L30.6257 9.40016L30.8353 9.27554C31.1015 9.11695 31.3621 8.95838 31.6284 8.79979L31.8833 8.64685C49.3211 -1.50858 70.7188 -0.511717 88.5304 9.68336" fill="black"/>
<path d="M88.5588 9.66654C88.5191 9.64384 88.4738 9.62114 88.4341 9.59277C88.4738 9.61547 88.5191 9.63817 88.5588 9.66654Z" fill="white"/>
<path d="M93.0624 7.14002C92.7508 7.20799 91.3628 8.02925 88.5415 9.68312C70.7639 -0.438326 49.3038 -1.49184 31.9058 8.63527C34.7157 7.04937 35.4522 6.59628 38.1489 5.44084C43.5366 3.12996 44.0578 3.0733 47.6836 2.09344C51.9552 1.14567 55.2033 0.55852 57.4279 0.331963C58.9518 0.235676 61.1669 0.0940891 62.6909 0.0601056C73.2906 -0.155124 83.6241 2.25768 93.0567 7.14565" fill="white"/>
<path d="M112.217 32.532C112.087 32.3281 111.962 32.1242 111.832 31.926C111.758 31.8127 111.684 31.6937 111.605 31.5805C105.447 22.1444 97.6856 14.9059 88.7911 9.81398C88.7514 9.79133 88.5758 9.72335 88.5361 9.69503C91.3574 8.04116 92.7624 7.15195 93.0684 7.14062C93.1137 7.16328 93.159 7.18593 93.1986 7.20859C93.2156 7.20859 93.227 7.20856 93.2383 7.21422L95.4648 8.29038C101.073 11.751 100.937 11.7397 103.532 13.7957C108.608 18.1626 108.387 18.1173 110.665 20.6094C115.084 25.8599 115.123 25.9392 117.027 28.8504L117.599 29.7283C117.491 29.5584 115.758 30.4477 112.223 32.5263" fill="black"/>
<path d="M93.1983 7.20844C93.153 7.18578 93.1077 7.16313 93.068 7.14048C83.8449 2.36012 73.5625 -0.0867153 63.2007 0.00957155L67.223 0.100179C71.5362 0.50043 74.7578 0.923366 76.888 1.36893C81.0916 2.41864 84.2113 3.32676 86.247 4.09328C88.3658 4.98252 91.1815 6.20024 93.2436 7.21974C93.2323 7.21974 93.221 7.21407 93.204 7.21407" fill="black"/>
<path d="M98.3027 116.68C98.5067 116.562 98.705 116.437 98.9033 116.307C98.8296 116.358 98.7503 116.409 98.6767 116.46C98.6087 116.505 98.5407 116.55 98.4727 116.596L98.3934 116.646C98.3934 116.646 98.3367 116.68 98.3027 116.686" fill="white"/>
<path d="M98.3031 116.681C98.3371 116.67 98.3654 116.659 98.3938 116.642C98.3598 116.664 98.3144 116.693 98.2804 116.715C98.2181 116.755 98.1558 116.8 98.0878 116.84C98.0312 116.874 97.9575 116.925 97.9009 116.959C98.0368 116.874 98.1671 116.778 98.2974 116.681" fill="black"/>
<path d="M98.3027 116.681C99.4415 115.973 100.524 115.208 101.555 114.387C100.41 115.242 99.7927 115.701 98.9033 116.301C98.705 116.431 98.5067 116.556 98.3027 116.675" fill="black"/>
<path d="M98.3029 116.681C98.1726 116.777 98.0423 116.873 97.9064 116.958H97.8951C97.8214 117.015 97.7478 117.06 97.6684 117.111C97.5778 117.168 97.4928 117.224 97.4022 117.281L97.2549 117.372C97.6061 117.151 97.9574 116.919 98.3029 116.681Z" fill="white"/>
<path d="M98.3027 116.681C97.9571 116.919 97.6059 117.151 97.2546 117.372C97.198 117.406 97.1186 117.457 97.062 117.491C96.9034 117.593 96.7391 117.689 96.5805 117.785C96.3538 117.921 96.0536 118.102 95.8213 118.238L98.3027 116.681Z" fill="black"/>
<path d="M98.3028 116.681C97.4814 117.23 96.6542 117.751 95.8158 118.244L95.7874 118.261C92.088 120.357 90.0485 121.342 86.2924 122.854C80.2136 124.939 80.0946 124.978 76.6388 125.726L76.4575 125.766C84.015 124.18 91.4195 121.183 98.2971 116.686" fill="white"/>
<path d="M41.6386 120.532C59.8015 128.518 80.9726 127.799 98.3027 116.675C91.4307 121.172 84.0262 124.168 76.4631 125.754C73.5908 126.241 69.7384 126.745 66.8378 127.011C62.4831 127.076 59.218 126.998 57.0425 126.779C52.7445 126.179 49.5436 125.607 47.4399 125.063C43.2816 123.813 40.2034 122.758 38.2055 121.897L37.8712 121.75C37.7183 121.682 38.4831 121.025 40.0863 119.824C40.5962 120.067 41.1118 120.3 41.633 120.526" fill="black"/>
<path d="M98.3029 116.681C80.9728 127.799 59.813 128.513 41.6501 120.526C41.1346 120.3 40.6191 120.062 40.1035 119.824C41.8937 118.482 44.7321 116.477 48.5051 113.877C65.2177 123.862 84.0094 125.624 98.3029 116.681Z" fill="white"/>
<path d="M63.7275 105.33C77.0579 116.641 90.1503 121.484 98.3026 116.681C84.0035 125.619 65.2174 123.863 48.5049 113.877C52.2553 111.295 56.9291 108.128 62.4188 104.464C62.4754 104.424 62.5321 104.39 62.5887 104.351C62.9683 104.685 63.3479 105.013 63.7275 105.336" fill="black"/>
<path d="M98.3031 116.681C90.1508 121.484 77.064 116.635 63.7393 105.324C63.3597 105.001 62.9802 104.673 62.6006 104.339C62.6572 104.299 62.7139 104.265 62.7705 104.226C68.2545 100.567 74.0331 96.7548 79.7833 92.9883C89.8505 107.414 97.1361 116.85 98.3031 116.675" fill="white"/>
<path d="M97.4074 83.3037C103.367 99.4402 104.143 112.331 98.3025 116.681C97.1298 116.857 89.8442 107.415 79.7827 92.9947C85.6179 89.1828 91.4249 85.4163 96.8862 81.916C97.0618 82.3805 97.2375 82.8449 97.4074 83.3037Z" fill="black"/>
<path d="M98.3027 116.681C104.155 112.32 103.39 99.4174 97.4416 83.2808C97.2717 82.822 97.096 82.3576 96.9204 81.8932C102.353 78.4098 107.441 75.1814 111.848 72.4287C115.1 91.2273 110.591 108.225 98.3027 116.681Z" fill="white"/>
<path d="M98.3027 116.681C100.478 115.151 103.328 113.027 105.379 111.328C104.574 112.002 103.356 113.022 101.555 114.387C100.524 115.202 99.4415 115.973 98.3027 116.681Z" fill="white"/>
<path d="M122.811 67.4441C123.207 87.047 114.698 105.744 98.3027 116.681C110.591 108.224 115.1 91.2269 111.848 72.4284C116.126 69.755 119.768 67.5291 122.476 65.9319C122.573 65.8752 122.663 65.8242 122.754 65.7676C122.782 66.3283 122.799 66.889 122.811 67.4441Z" fill="black"/>
<path d="M127.207 65.1164C126.652 73.4254 124.969 98.7148 98.3027 116.681C114.709 105.738 123.224 87.0414 122.828 67.4329C122.816 66.8722 122.799 66.3171 122.771 65.7564C125.485 64.1649 126.935 63.4059 127.23 63.3945C127.23 63.9666 127.218 64.5443 127.207 65.1164Z" fill="white"/>
<path d="M98.3027 116.681C116.528 104.775 126.64 85.229 127.207 65.1164C127.224 64.5443 127.23 63.9666 127.23 63.3945C127.269 63.3945 127.286 63.4059 127.286 63.4285L127.252 65.3656C126.946 69.6928 126.593 72.9251 126.193 75.0622C125.23 79.2913 124.388 82.4329 123.666 84.487C122.065 88.5349 120.745 91.5254 119.706 93.4587C116.437 99.015 116.375 99.1226 114.347 101.796C110.404 106.605 110.251 106.792 107.611 109.335C107.027 109.878 106.421 110.445 105.396 111.317C103.328 112.999 100.495 115.169 98.3027 116.681Z" fill="black"/>
</g>
</svg>
