<svg width="210" height="42" viewBox="0 0 210 42" xmlns="http://www.w3.org/2000/svg">
    <g fill-rule="nonzero" fill="none">
        <path d="M106.723 11.2v8.268h1.63v-9.55l-2.034.574.404.708zm.881-4.363c-.517 0-1.151.364-1.151.938 0 .517.403.88.902.88.52 0 1.133-.363 1.133-.938a.868.868 0 0 0-.884-.88zm-8.22-1.301h-2.171l.444.746v13.186h6.895l.48-1.263h-5.647V5.535zm17.614 12.63c-.442.268-.98.344-1.498.344a3.957 3.957 0 0 1-2.747-1.129V11.91c.614-.575 1.172-.804 2.016-.804 2.171 0 3.823 1.78 3.823 3.923 0 1.205-.538 2.488-1.594 3.138zm-1.307-8.247c-1.133 0-2.035.42-2.938 1.052V5.305l-2.036.575.403.708v12.38c.135.04.5.117.615.117.116 0 .154-.383.23-.383.058 0 .077.057.135.096.135.095.289.19.442.267.75.403 1.575.631 2.42.631.787 0 1.555-.208 2.248-.593l.75-.42c1.477-.823 2.284-2.431 2.284-4.095 0-2.547-1.96-4.67-4.553-4.67zm19.515 7.806c-.115.116-.366.364-.5.44-.385.232-1.037.345-1.478.345-2.171 0-3.784-1.798-3.784-3.922 0-1.206.537-2.488 1.593-3.14.443-.268.942-.343 1.46-.343 2.172 0 3.804 1.798 3.804 3.923a3.95 3.95 0 0 1-1.095 2.697zm-1.978-7.806c-.865 0-1.654.21-2.403.63-.247.134-.498.288-.747.422-1.48.84-2.305 2.353-2.305 4.057 0 2.62 2.092 4.668 4.724 4.668.864 0 1.672-.228 2.421-.65.25-.134.48-.287.73-.42 1.478-.862 2.305-2.336 2.305-4.038 0-2.641-2.093-4.67-4.725-4.67zm-8.318.535c-.305.191-.824.537-1.037.822V9.92l-2.015.573.402.708v8.268h1.633v-7.12c.48-.765.98-1.186 1.902-1.186.577 0 .998.172 1.537.364l.422-1.378a2.326 2.326 0 0 0-1.018-.23c-.73 0-1.21.153-1.826.536zm-35.868-.147v9.08h1.151V9.402l-1.435.404.284.5zm-6.947 5.114c.095-.663.46-1.377 1.043-1.727.298-.19.663-.217 1.015-.217 1.152 0 2.14.796 2.303 1.944h-4.36zm2.479-2.767c-.893 0-1.328.283-2.074.73a3.298 3.298 0 0 0-1.624 2.872c0 1.876 1.504 3.293 3.374 3.293.69 0 1.38-.19 1.975-.527.406-.229.787-.431 1.124-.742l-.27-.485c-.785.58-1.246.931-2.276.931-1.137 0-2.179-.702-2.559-1.782-.067-.201-.149-.459-.149-.674 0-.027.028-.067.04-.094h5.364c0-.432.026-.838-.082-1.255-.337-1.322-1.462-2.267-2.843-2.267zm-31.967-.005c-.005-.385.2-.96.563-1.137.133-.077.517-.121.67-.123.807-.01 1.656.402 2.278.91l.522-1.363a4.008 4.008 0 0 0-2.373-.738c-.48.006-.939.144-1.359.38l-.744.43c-.762.429-1.194 1.238-1.185 2.1.04 3.233 4.458 1.631 4.49 4.31.01.784-.462 1.382-1.268 1.392-1 .012-1.87-.456-2.645-1.04l-.54 1.403a4.497 4.497 0 0 0 2.603.811 2.971 2.971 0 0 0 1.455-.4l.724-.428c.8-.47 1.31-1.297 1.298-2.236-.04-3.31-4.459-1.764-4.49-4.271zm9.737 6.085c-1.133.014-2.16-.664-2.175-1.87-.007-.592.235-1.322.767-1.655.668-.41 2.453-.524 3.24-.554l.034 2.852c-.453.637-1.023 1.218-1.866 1.227zm3.496-1.514-.056-4.573c-.02-1.723-1.28-2.57-2.913-2.55-1.44.016-2.337.43-3.559 1.132l.278.705a5.255 5.255 0 0 1 2.394-.64c1.076-.013 2.003.511 2.095 1.66.06.228.025.498.066.745-1.113.052-2.494.22-3.467.805l-.743.45c-.935.566-1.386 1.355-1.372 2.448.019 1.585 1.298 2.51 2.815 2.493 1-.013 2.332-.795 2.997-1.51.204 1.05.843 1.31 1.841 1.298l.538-.005.427-1.135c-1.018.012-1.328-.309-1.34-1.323zm-20.878 1.718c-1.134.014-2.16-.664-2.175-1.87-.008-.592.234-1.322.768-1.655.666-.41 2.453-.525 3.239-.554l.034 2.852c-.453.637-1.023 1.217-1.866 1.227zm3.496-1.515-.056-4.573c-.02-1.721-1.28-2.568-2.913-2.55-1.44.018-2.337.43-3.559 1.133l.278.706a5.275 5.275 0 0 1 2.394-.642c1.075-.012 2.004.512 2.094 1.66.061.23.025.496.067.746-1.114.05-2.495.221-3.466.807l-.745.448c-.934.566-1.385 1.356-1.372 2.447.02 1.588 1.298 2.51 2.816 2.494 1-.014 2.334-.794 2.997-1.51.204 1.05.843 1.31 1.842 1.299l.538-.006.428-1.134c-1.018.01-1.33-.31-1.343-1.325zm29.859.736c-.392.392-.88.553-1.422.553-1.53 0-2.695-1.268-2.695-2.765 0-.85.392-1.754 1.139-2.213.31-.19.676-.244 1.028-.244.731 0 1.436.298 1.95.824v3.845zm0-7.852v2.832a2.801 2.801 0 0 0-1.557-.485c-.555 0-1.111.148-1.599.432l-.514.297c-1.03.593-1.625 1.687-1.625 2.873 0 1.807 1.394 3.293 3.223 3.293.826 0 1.421-.31 2.086-.756v.594h1.137V9.402l-1.449.404.298.5zM35.8 19.008a6.233 6.233 0 0 1-6.3-6.146c-.024-2.01.93-4.088 2.685-5.16.82-.508 1.76-.673 2.7-.683 1.44-.017 2.674.313 3.912 1.063l.577-1.556c-1.198-.56-2.47-.814-3.794-.798-1.286.016-2.474.392-3.6 1.018-.266.156-.514.293-.78.45a6.96 6.96 0 0 0-3.461 6.126c.049 3.942 3.333 7.005 7.25 6.958 2.094-.024 2.973-.398 4.709-1.434l-.146-.877c-1.201.702-2.35 1.022-3.752 1.04z" fill="#004D43"/>
        <path d="M24.686 21.339s.12 1.262.038 1.784c-.04.239-3.588 4.957-10.058 4.963-3.537.004-5.255-2.424-10.036-2.211-1.631.073-3.318.684-4.443 1.57-.135-.374-.231-.75-.166-1.02.432-.783 1.1-1.462 1.854-1.992 2.036-3.142 3.286-14.896 2.448-22.87C5.03.847 5.936.234 6.898 0c0 0 .383.708.432 1.773.178 3.77-1.23 15.87-3.303 21.531 0 0 1.796-.463 3.378-.244 2.868.401 5.134 2.996 8.952 2.854 5.389-.2 8.33-4.575 8.33-4.575" fill="#EBAA20"/>
        <path d="m21.097 21.297.01-.02c-.274.106-.548.208-.823.308-.34.124-.683.264-1.037.339-.408.086-.816.168-1.219.275-.069.018-.139.036-.207.062a.898.898 0 0 0-.293.203.769.769 0 0 0-.177.817c.11.293.4.515.718.536.245.015.48-.078.7-.174.23-.1.46-.21.672-.342a4.2 4.2 0 0 0 .754-.61c.396-.4.708-.878.913-1.399a.084.084 0 0 1-.011.005" fill="#EBAA20"/>
        <g fill="#EBAA20">
            <path d="m69.513 25.588 2.22 6.56c.04.12.093.303.161.548.068.245.106.46.114.644l.684-.036-.036.927H69.44l.048-.795c.224 0 .382-.046.474-.138a.495.495 0 0 0 .132-.38 1.966 1.966 0 0 0-.102-.541l-.204-.662-2.627.048-.228.566c-.04.104-.102.259-.186.463a4.115 4.115 0 0 1-.246.512l.888-.036-.06.963h-2.567l.048-.83a.776.776 0 0 0 .545-.193c.14-.129.262-.297.366-.506.104-.209.208-.433.312-.674l2.675-6.44h.804zm-.828 2.119a6.573 6.573 0 0 1-.192.614c-.096.272-.22.597-.372.975l-.611 1.564h2.015l-.468-1.504c-.08-.29-.156-.58-.228-.873a5.957 5.957 0 0 1-.144-.776zM78.834 34.363c-.336 0-.61-.076-.822-.229a1.32 1.32 0 0 1-.468-.644 2.89 2.89 0 0 1-.15-.98c0-.297.026-.622.078-.976l.156-1.059c.052-.353.078-.674.078-.963 0-.136-.022-.222-.066-.259a.202.202 0 0 0-.126-.054c-.088 0-.18.069-.276.205-.096.136-.196.385-.3.746l-.647-.192a2.89 2.89 0 0 1 .186-.578c.092-.217.214-.423.365-.62.152-.197.332-.36.54-.488.208-.128.448-.192.72-.192.448 0 .75.12.906.361.156.24.234.574.234.999 0 .24-.016.512-.048.813-.032.3-.068.607-.108.92-.04.313-.076.608-.108.885a6.224 6.224 0 0 0-.048.692c0 .12.012.219.036.295.024.076.06.13.108.163a.34.34 0 0 0 .192.048c.136 0 .278-.089.426-.265a3.12 3.12 0 0 0 .425-.716c.136-.301.26-.634.372-1a9.51 9.51 0 0 0 .27-1.119 6.15 6.15 0 0 0 .102-1.077c0-.112-.002-.26-.006-.445a3.187 3.187 0 0 0-.03-.422h1.548c.016.169.026.287.03.355.004.069.006.143.006.223 0 .169-.01.371-.03.608a28.657 28.657 0 0 1-.186 1.583c-.024.216-.05.425-.078.626l-.078.56a9.763 9.763 0 0 0-.054.457 3.647 3.647 0 0 0-.018.307c0 .128.018.212.054.253.036.04.074.06.114.06.088 0 .18-.069.276-.205.096-.136.196-.385.3-.746l.647.192a4.563 4.563 0 0 1-.156.578 2.684 2.684 0 0 1-.3.62c-.128.197-.283.36-.467.488a1.144 1.144 0 0 1-.672.192c-.256 0-.488-.076-.696-.229-.208-.152-.312-.44-.312-.866 0-.16.008-.297.024-.41.016-.112.028-.236.036-.373h-.012c-.184.482-.384.859-.6 1.132-.216.273-.44.465-.671.578a1.584 1.584 0 0 1-.696.168zM89.03 34.363c-.44 0-.737-.12-.893-.361-.156-.24-.234-.574-.234-.999 0-.24.016-.512.048-.813.032-.3.066-.607.102-.92l.102-.885c.032-.277.048-.508.048-.692 0-.12-.012-.219-.036-.295a.292.292 0 0 0-.108-.163.34.34 0 0 0-.192-.048c-.144 0-.294.089-.45.265a3.115 3.115 0 0 0-.45.716c-.144.301-.272.634-.384 1a9.51 9.51 0 0 0-.27 1.119 6.15 6.15 0 0 0-.09 1.516c.008.189.016.331.024.428H84.7a11.51 11.51 0 0 1-.03-.355 3.822 3.822 0 0 1-.006-.223c0-.169.01-.367.03-.596.02-.229.046-.477.078-.746a453.678 453.678 0 0 1 .174-1.433l.078-.577c.024-.18.042-.34.054-.476.012-.136.018-.24.018-.313 0-.136-.018-.222-.054-.259a.16.16 0 0 0-.114-.054c-.088 0-.18.069-.276.205-.096.136-.196.385-.3.746l-.66-.192c.04-.169.096-.361.168-.578.072-.217.172-.423.3-.62s.284-.36.468-.488c.184-.128.408-.192.672-.192.176 0 .34.032.491.096a.798.798 0 0 1 .372.331c.096.157.144.38.144.668 0 .153-.008.277-.024.373a7.52 7.52 0 0 0-.048.35h.012c.192-.482.402-.855.63-1.12.228-.265.464-.447.708-.548.244-.1.482-.15.714-.15.343 0 .62.076.827.229.208.152.362.367.462.644.1.276.15.603.15.98 0 .29-.024.61-.072.964-.048.353-.098.706-.15 1.059a6.731 6.731 0 0 0-.078.975c0 .128.02.212.06.253.04.04.08.06.12.06.088 0 .18-.069.276-.205.096-.136.196-.385.3-.746l.648.192a2.89 2.89 0 0 1-.186.578 2.803 2.803 0 0 1-.366.62c-.152.197-.332.36-.54.488a1.342 1.342 0 0 1-.72.192zM94.38 28.08c.448 0 .854.104 1.218.313.364.208.654.513.87.915.216.4.324.886.324 1.456 0 .634-.122 1.226-.366 1.776a3.26 3.26 0 0 1-1.038 1.324c-.448.333-.983.5-1.607.5-.536 0-.984-.123-1.344-.368a2.21 2.21 0 0 1-.804-.993 3.497 3.497 0 0 1-.263-1.372c0-.642.122-1.232.365-1.77a3.174 3.174 0 0 1 1.044-1.294c.452-.325.986-.487 1.602-.487zm-.18.794c-.24-.008-.45.099-.63.32-.18.22-.32.515-.42.884-.099.37-.149.774-.149 1.216 0 .24.014.493.042.758.028.265.08.512.156.74.076.229.176.416.3.56a.597.597 0 0 0 .474.217c.208 0 .384-.08.527-.241a1.88 1.88 0 0 0 .354-.62c.092-.253.16-.52.204-.8.044-.281.07-.546.078-.795.008-.216 0-.453-.024-.71a4.26 4.26 0 0 0-.132-.734 1.45 1.45 0 0 0-.288-.572.62.62 0 0 0-.491-.223zM99.73 34.363a3.22 3.22 0 0 1-1.06-.168 1.918 1.918 0 0 1-.787-.488c-.2-.213-.3-.46-.3-.74 0-.249.074-.452.222-.608a.722.722 0 0 1 .546-.235c.216 0 .392.072.528.217a.744.744 0 0 1 .204.53.892.892 0 0 1-.018.174 1.21 1.21 0 0 1-.054.187c.04.08.146.156.318.228.172.073.318.109.438.109.352 0 .597-.077.737-.229a.745.745 0 0 0 .21-.518.555.555 0 0 0-.174-.403 2.4 2.4 0 0 0-.45-.343c-.183-.112-.38-.229-.587-.349a9.71 9.71 0 0 1-.936-.602 1.945 1.945 0 0 1-.546-.584 1.453 1.453 0 0 1-.174-.728c0-.28.088-.554.264-.818.176-.265.434-.484.774-.656.34-.173.754-.26 1.242-.26.32 0 .633.053.941.157.308.105.564.255.768.452a.958.958 0 0 1 .306.716.832.832 0 0 1-.204.554.686.686 0 0 1-.552.24.664.664 0 0 1-.522-.222.748.748 0 0 1-.198-.512.864.864 0 0 1 .072-.349.515.515 0 0 0-.294-.187 1.393 1.393 0 0 0-.365-.054.978.978 0 0 0-.672.283.478.478 0 0 0-.132.343c0 .113.026.21.078.295.052.084.158.18.318.289.16.108.4.259.72.451.263.153.533.317.81.494.275.176.507.383.695.62.188.237.282.523.282.86 0 .362-.108.683-.324.963-.216.281-.508.5-.876.656a3.16 3.16 0 0 1-1.247.235zM108.992 25.143c-.024.249-.05.491-.078.728l-.078.68-.072.638a777.552 777.552 0 0 0-.39 3.497c-.044.413-.08.76-.108 1.041-.028.28-.048.514-.06.698a7.42 7.42 0 0 0-.018.47c0 .144.018.238.054.282.036.045.074.067.114.067.096 0 .192-.069.288-.205.096-.136.196-.385.3-.746l.647.192c-.048.201-.118.412-.21.632-.092.221-.21.426-.353.614a1.681 1.681 0 0 1-.534.458 1.534 1.534 0 0 1-.75.174c-.288 0-.54-.088-.756-.265-.216-.176-.324-.473-.324-.89 0-.29.01-.606.03-.951a44.058 44.058 0 0 1 .192-2.281 561.056 561.056 0 0 1 .348-3.021c.028-.205.058-.396.09-.572-.128.008-.278.014-.45.018-.172.004-.302.01-.39.018l.048-.915c.368 0 .676-.02.924-.06.248-.04.444-.088.588-.145.144-.056.244-.108.3-.156h.648zM111.703 28.08c.416 0 .705.126.87.379.163.253.245.592.245 1.017 0 .193-.02.454-.06.783-.04.329-.084.674-.132 1.035l-.132.987a5.47 5.47 0 0 0-.06.65c0 .128.02.212.06.253.04.04.08.06.12.06.096 0 .192-.069.288-.205.096-.136.196-.385.3-.746l.648.192a2.89 2.89 0 0 1-.186.578 2.803 2.803 0 0 1-.366.62c-.152.197-.334.36-.546.488a1.373 1.373 0 0 1-.725.192c-.44 0-.742-.12-.906-.361-.164-.24-.246-.574-.246-.999 0-.233.02-.51.06-.83.04-.322.086-.65.138-.988.052-.337.098-.652.138-.945.04-.292.06-.535.06-.728 0-.136-.02-.222-.06-.259a.193.193 0 0 0-.132-.054c-.088 0-.18.069-.276.205-.096.136-.196.385-.3.746l-.648-.192c.032-.169.096-.361.192-.578a2.86 2.86 0 0 1 .378-.62c.156-.197.34-.36.552-.488.212-.128.454-.192.726-.192zm.42-3.033c.263 0 .477.096.641.288.164.193.238.43.222.71-.008.273-.1.504-.276.693a.865.865 0 0 1-.66.283.823.823 0 0 1-.653-.283.972.972 0 0 1-.234-.692c.016-.281.12-.518.312-.71.192-.193.408-.29.648-.29zM116.777 25.143c-.032.233-.064.51-.096.83-.032.321-.062.632-.09.933l-.066.692-.042.464c-.02.22-.044.461-.072.722-.028.26-.062.5-.102.716h.012c.136-.265.28-.487.432-.668.152-.18.308-.325.468-.433.16-.108.314-.189.462-.24a1.25 1.25 0 0 1 .413-.08c.408 0 .738.11.99.326.252.217.436.5.552.848.116.35.174.725.174 1.126 0 .538-.06 1.047-.18 1.529a3.85 3.85 0 0 1-.564 1.276 2.66 2.66 0 0 1-1.002.866c-.411.209-.913.313-1.505.313a6.995 6.995 0 0 1-1.236-.132 4.034 4.034 0 0 1-.683-.193c.024-.642.048-1.226.072-1.751.024-.526.05-1.035.078-1.529a371.092 371.092 0 0 1 .198-3.268c.008-.136.02-.31.036-.524a9.84 9.84 0 0 1 .06-.583c-.128.008-.276.014-.444.018-.168.004-.296.01-.384.018l.048-.915c.368 0 .676-.02.923-.06a3.14 3.14 0 0 0 .594-.145 1.1 1.1 0 0 0 .306-.156h.648zm.84 4.044c-.152 0-.3.075-.444.223a2.176 2.176 0 0 0-.396.62c-.12.265-.226.578-.318.939-.092.36-.166.752-.222 1.173-.056.422-.088.861-.096 1.318.064.032.158.059.282.079.124.02.226.03.306.03a.965.965 0 0 0 .654-.223c.172-.148.312-.345.42-.59.108-.245.188-.513.24-.806.051-.293.085-.582.101-.867.016-.285.024-.54.024-.764 0-.434-.058-.73-.173-.891-.116-.16-.242-.24-.378-.24zM121.455 34.23a11.51 11.51 0 0 1-.03-.354 3.822 3.822 0 0 1-.006-.223c0-.169.01-.371.03-.608.02-.237.046-.491.078-.764l.096-.807.114-.824c.036-.261.064-.492.084-.692.02-.201.03-.35.03-.446 0-.136-.018-.222-.054-.259a.16.16 0 0 0-.114-.054c-.088 0-.18.069-.276.205-.096.136-.196.385-.3.746l-.66-.192c.04-.169.097-.361.169-.578.072-.217.172-.423.3-.62.127-.197.283-.36.467-.488.184-.128.408-.192.672-.192.256 0 .488.076.696.229.208.152.312.44.312.866 0 .129-.01.281-.03.458-.02.176-.05.38-.09.614h.012c.216-.61.438-1.07.666-1.379.228-.309.453-.517.677-.626.224-.108.432-.162.624-.162.304 0 .548.082.732.247.184.164.276.387.276.668a.836.836 0 0 1-.222.565.737.737 0 0 1-.582.253.714.714 0 0 1-.468-.168.531.531 0 0 1-.192-.458c-.136-.016-.274.062-.414.235-.14.173-.271.41-.395.71a8.43 8.43 0 0 0-.336 1.005c-.1.37-.18.747-.24 1.132a7.13 7.13 0 0 0-.078 1.534c.008.189.016.331.024.428h-1.572zM129.253 28.08c.448 0 .853.104 1.217.313.364.208.654.513.87.915.216.4.324.886.324 1.456 0 .634-.122 1.226-.366 1.776a3.26 3.26 0 0 1-1.038 1.324c-.448.333-.983.5-1.607.5-.536 0-.984-.123-1.344-.368a2.21 2.21 0 0 1-.803-.993 3.497 3.497 0 0 1-.264-1.372c0-.642.122-1.232.366-1.77a3.174 3.174 0 0 1 1.043-1.294c.452-.325.986-.487 1.602-.487zm-.18.794c-.24-.008-.45.099-.63.32-.18.22-.32.515-.42.884-.1.37-.15.774-.15 1.216 0 .24.014.493.042.758.028.265.08.512.156.74.076.229.176.416.3.56a.597.597 0 0 0 .474.217c.208 0 .384-.08.528-.241a1.88 1.88 0 0 0 .354-.62c.091-.253.16-.52.203-.8.044-.281.07-.546.078-.795.008-.216 0-.453-.024-.71a4.26 4.26 0 0 0-.132-.734 1.45 1.45 0 0 0-.287-.572.62.62 0 0 0-.492-.223zM134.603 34.363a3.22 3.22 0 0 1-1.062-.168 1.918 1.918 0 0 1-.786-.488c-.2-.213-.3-.46-.3-.74 0-.249.075-.452.223-.608a.722.722 0 0 1 .545-.235c.216 0 .392.072.528.217a.744.744 0 0 1 .204.53.892.892 0 0 1-.018.174 1.21 1.21 0 0 1-.054.187c.04.08.146.156.318.228.172.073.318.109.438.109.352 0 .598-.077.738-.229a.745.745 0 0 0 .21-.518.555.555 0 0 0-.174-.403 2.4 2.4 0 0 0-.45-.343c-.184-.112-.38-.229-.588-.349a9.71 9.71 0 0 1-.936-.602 1.945 1.945 0 0 1-.546-.584 1.453 1.453 0 0 1-.174-.728c0-.28.088-.554.264-.818.176-.265.434-.484.774-.656.34-.173.754-.26 1.242-.26.32 0 .634.053.941.157.308.105.564.255.768.452a.958.958 0 0 1 .306.716.832.832 0 0 1-.204.554.686.686 0 0 1-.552.24.664.664 0 0 1-.522-.222.748.748 0 0 1-.197-.512.864.864 0 0 1 .072-.349.515.515 0 0 0-.294-.187 1.393 1.393 0 0 0-.366-.054.978.978 0 0 0-.672.283.478.478 0 0 0-.132.343c0 .113.026.21.078.295.052.084.158.18.318.289.16.108.4.259.72.451.264.153.533.317.81.494.275.176.507.383.695.62.188.237.282.523.282.86 0 .362-.108.683-.324.963-.216.281-.508.5-.876.656a3.16 3.16 0 0 1-1.247.235zM143.06 34.363c-.4 0-.732-.102-.996-.307a1.813 1.813 0 0 1-.587-.824 3.34 3.34 0 0 1-.192-1.168c0-.762.118-1.444.353-2.046.236-.602.6-1.075 1.092-1.42.492-.346 1.118-.518 1.877-.518.056 0 .152.002.288.006.136.004.232.01.288.018.04-.37.07-.662.09-.879.02-.216.038-.389.054-.517a6.09 6.09 0 0 1 .048-.325c-.128.008-.278.014-.45.018-.172.004-.302.01-.39.018l.048-.915c.376 0 .688-.02.936-.06a3.14 3.14 0 0 0 .594-.145 1.1 1.1 0 0 0 .306-.156h.648c-.072.642-.146 1.284-.222 1.926-.076.642-.15 1.284-.222 1.926a67.175 67.175 0 0 1-.18 1.577c-.064.505-.116.958-.156 1.36-.04.4-.06.722-.06.963 0 .144.02.238.06.282.04.045.08.067.12.067.088 0 .18-.069.276-.205.096-.136.196-.385.3-.746l.66.192a3.683 3.683 0 0 1-.169.578c-.08.217-.183.423-.311.62s-.286.36-.474.488a1.172 1.172 0 0 1-.678.192c-.256 0-.48-.076-.672-.229-.192-.152-.288-.44-.288-.866a4.643 4.643 0 0 1 .048-.722h-.012c-.192.473-.404.842-.635 1.107-.232.265-.468.45-.708.554-.24.104-.468.156-.684.156zm.444-1.095c.2 0 .382-.1.546-.301.164-.2.312-.48.443-.837.132-.357.246-.768.342-1.233.056-.29.104-.596.144-.921.04-.325.076-.66.108-1.005a1.32 1.32 0 0 0-.3-.067 2.602 2.602 0 0 0-.335-.03c-.272 0-.5.079-.684.235-.184.157-.332.36-.444.608a3.881 3.881 0 0 0-.258.806c-.06.29-.1.568-.12.837-.02.269-.03.5-.03.692 0 .41.054.714.162.915.108.2.25.3.426.3zM151.193 28.08a2.6 2.6 0 0 1 .936.156c.272.105.484.27.636.494.152.225.228.513.228.867 0 .329-.098.607-.294.836a2.192 2.192 0 0 1-.768.56 5.839 5.839 0 0 1-1.038.355c-.376.092-.74.162-1.091.21 0 .458.054.809.162 1.054.108.245.246.413.413.505.168.093.336.139.504.139.136 0 .298-.026.486-.079a1.48 1.48 0 0 0 .57-.33c.192-.169.36-.418.504-.747l.672.325c-.224.522-.476.923-.756 1.204-.28.28-.572.473-.876.578a2.827 2.827 0 0 1-.924.156c-.735.008-1.32-.205-1.751-.638-.432-.433-.648-1.095-.648-1.986 0-.385.06-.79.18-1.216.12-.425.302-.822.546-1.191.244-.37.558-.67.942-.903.384-.233.84-.35 1.367-.35zm-.132.794a.833.833 0 0 0-.66.29 1.94 1.94 0 0 0-.383.727 4.892 4.892 0 0 0-.18.885c.432-.08.775-.188 1.031-.325.256-.136.442-.293.558-.47a.921.921 0 0 0 .162-.553c-.008-.2-.068-.343-.18-.427a.572.572 0 0 0-.348-.127zM158.979 34.363c-.4 0-.732-.102-.996-.307a1.813 1.813 0 0 1-.588-.824 3.34 3.34 0 0 1-.192-1.168c0-.762.118-1.444.354-2.046.236-.602.6-1.075 1.092-1.42.492-.346 1.117-.518 1.877-.518.056 0 .152.002.288.006.136.004.232.01.288.018.04-.37.07-.662.09-.879.02-.216.038-.389.054-.517a6.09 6.09 0 0 1 .048-.325c-.128.008-.278.014-.45.018-.172.004-.302.01-.39.018l.048-.915c.376 0 .688-.02.936-.06a3.14 3.14 0 0 0 .594-.145 1.1 1.1 0 0 0 .305-.156h.648a315.37 315.37 0 0 1-.222 1.926c-.076.642-.15 1.284-.222 1.926a67.174 67.174 0 0 1-.18 1.577c-.064.505-.116.958-.156 1.36-.04.4-.06.722-.06.963 0 .144.02.238.06.282.04.045.08.067.12.067.088 0 .18-.069.276-.205.096-.136.196-.385.3-.746l.66.192a3.683 3.683 0 0 1-.168.578c-.08.217-.184.423-.312.62s-.286.36-.474.488a1.172 1.172 0 0 1-.677.192c-.256 0-.48-.076-.672-.229-.192-.152-.288-.44-.288-.866a4.643 4.643 0 0 1 .048-.722h-.012c-.192.473-.404.842-.636 1.107-.232.265-.468.45-.708.554-.24.104-.468.156-.683.156zm.443-1.095c.2 0 .382-.1.546-.301.164-.2.312-.48.444-.837s.246-.768.342-1.233c.056-.29.104-.596.144-.921.04-.325.076-.66.108-1.005a1.32 1.32 0 0 0-.3-.067 2.602 2.602 0 0 0-.336-.03c-.272 0-.5.079-.684.235-.184.157-.332.36-.444.608a3.881 3.881 0 0 0-.257.806c-.06.29-.1.568-.12.837-.02.269-.03.5-.03.692 0 .41.054.714.162.915.108.2.25.3.425.3zM165.624 28.08c.416 0 .706.126.87.379.164.253.246.592.246 1.017 0 .193-.02.454-.06.783-.04.329-.084.674-.132 1.035l-.132.987a5.47 5.47 0 0 0-.06.65c0 .128.02.212.06.253.04.04.08.06.12.06.096 0 .192-.069.288-.205.096-.136.196-.385.3-.746l.648.192a2.89 2.89 0 0 1-.186.578 2.804 2.804 0 0 1-.366.62c-.152.197-.334.36-.546.488a1.373 1.373 0 0 1-.726.192c-.44 0-.742-.12-.905-.361-.164-.24-.246-.574-.246-.999 0-.233.02-.51.06-.83.04-.322.086-.65.138-.988.052-.337.097-.652.137-.945.04-.292.06-.535.06-.728 0-.136-.02-.222-.06-.259a.193.193 0 0 0-.131-.054c-.088 0-.18.069-.276.205-.096.136-.196.385-.3.746l-.648-.192c.032-.169.096-.361.192-.578a2.86 2.86 0 0 1 .378-.62c.156-.197.34-.36.552-.488.211-.128.453-.192.725-.192zm.42-3.033c.264 0 .478.096.642.288.164.193.238.43.222.71-.008.273-.1.504-.276.693a.865.865 0 0 1-.66.283.823.823 0 0 1-.654-.283.972.972 0 0 1-.234-.692c.016-.281.12-.518.312-.71.192-.193.408-.29.648-.29zM170.399 34.363a3.22 3.22 0 0 1-1.062-.168 1.918 1.918 0 0 1-.786-.488c-.2-.213-.3-.46-.3-.74 0-.249.074-.452.222-.608a.722.722 0 0 1 .546-.235c.216 0 .392.072.528.217a.744.744 0 0 1 .204.53.892.892 0 0 1-.018.174 1.21 1.21 0 0 1-.054.187c.04.08.146.156.318.228.172.073.318.109.438.109.352 0 .597-.077.737-.229a.745.745 0 0 0 .21-.518.555.555 0 0 0-.174-.403 2.4 2.4 0 0 0-.45-.343c-.183-.112-.38-.229-.587-.349a9.71 9.71 0 0 1-.936-.602 1.945 1.945 0 0 1-.546-.584 1.453 1.453 0 0 1-.174-.728c0-.28.088-.554.264-.818.176-.265.434-.484.774-.656.34-.173.754-.26 1.242-.26.32 0 .633.053.941.157.308.105.564.255.768.452a.958.958 0 0 1 .306.716.832.832 0 0 1-.204.554.686.686 0 0 1-.552.24.664.664 0 0 1-.522-.222.748.748 0 0 1-.198-.512.864.864 0 0 1 .072-.349.515.515 0 0 0-.294-.187 1.393 1.393 0 0 0-.365-.054.978.978 0 0 0-.672.283.478.478 0 0 0-.132.343c0 .113.026.21.078.295.052.084.158.18.318.289.16.108.4.259.72.451.263.153.533.317.81.494.275.176.507.383.695.62.188.237.282.523.282.86 0 .362-.108.683-.324.963-.216.281-.508.5-.876.656a3.16 3.16 0 0 1-1.247.235zM176.505 26.395l-.24 1.817h1.5l-.073.83-1.5.025c-.031.289-.067.6-.107.933-.04.333-.074.658-.102.975-.028.317-.052.602-.072.854-.02.253-.03.448-.03.584 0 .104.012.219.036.343.024.125.076.23.156.32.08.087.208.132.384.132.064 0 .158-.018.282-.055.123-.036.257-.106.401-.21.144-.105.276-.27.396-.494l.612.385c-.272.514-.604.897-.996 1.15-.391.253-.811.38-1.26.38-.439 0-.769-.093-.989-.278a1.323 1.323 0 0 1-.438-.728 3.663 3.663 0 0 1-.096-.945l.06-.969c.024-.373.056-.766.096-1.18.04-.413.08-.808.12-1.185l-.96.012.109-.879c.591 0 1.03-.156 1.313-.47.284-.312.482-.761.594-1.347h.804zM182.25 28.08c.225 0 .486.022.786.066.3.044.614.106.942.187-.04.297-.092.662-.156 1.095-.064.433-.126.877-.186 1.33-.06.453-.11.87-.15 1.252-.04.381-.06.676-.06.885 0 .144.018.238.054.282.036.045.074.067.114.067.096 0 .196-.069.3-.205.104-.136.208-.385.312-.746l.648.192a3.683 3.683 0 0 1-.168.578 2.93 2.93 0 0 1-.318.62c-.132.197-.296.36-.492.488a1.23 1.23 0 0 1-.69.192c-.256 0-.48-.076-.671-.229-.192-.152-.288-.44-.288-.866a5.66 5.66 0 0 1 .048-.698h-.012a4.553 4.553 0 0 1-.462.866 2.643 2.643 0 0 1-.504.554 1.637 1.637 0 0 1-.528.289c-.18.056-.362.084-.546.084-.44 0-.815-.178-1.127-.536-.312-.357-.468-.908-.468-1.655 0-.553.08-1.075.24-1.564.16-.49.396-.925.708-1.306.311-.382.691-.68 1.14-.897.447-.217.959-.325 1.535-.325zm-.443.794a.992.992 0 0 0-.618.217c-.188.144-.352.357-.492.638-.14.28-.246.63-.318 1.047a8.661 8.661 0 0 0-.108 1.457c0 .329.04.587.12.776.08.189.192.283.336.283.176 0 .34-.09.492-.271.152-.18.29-.425.414-.734.124-.31.232-.654.324-1.035.092-.382.168-.77.228-1.168.06-.397.098-.776.114-1.137a1.783 1.783 0 0 0-.492-.072zM190.468 34.363c-.44 0-.738-.12-.894-.361-.156-.24-.234-.574-.234-.999 0-.24.016-.512.048-.813.032-.3.066-.607.102-.92l.102-.885c.032-.277.048-.508.048-.692 0-.12-.012-.219-.036-.295a.292.292 0 0 0-.108-.163.34.34 0 0 0-.192-.048c-.144 0-.294.089-.45.265a3.115 3.115 0 0 0-.45.716c-.143.301-.271.634-.383 1a9.51 9.51 0 0 0-.27 1.119 6.15 6.15 0 0 0-.09 1.516c.008.189.016.331.024.428h-1.548a11.51 11.51 0 0 1-.03-.355 3.823 3.823 0 0 1-.006-.223c0-.169.01-.367.03-.596.02-.229.046-.477.078-.746a453.585 453.585 0 0 1 .174-1.433l.078-.577c.024-.18.042-.34.054-.476.012-.136.018-.24.018-.313 0-.136-.018-.222-.054-.259a.16.16 0 0 0-.114-.054c-.088 0-.18.069-.276.205-.096.136-.196.385-.3.746l-.66-.192c.04-.169.097-.361.169-.578.072-.217.172-.423.3-.62.127-.197.283-.36.467-.488.184-.128.408-.192.672-.192.176 0 .34.032.492.096a.798.798 0 0 1 .372.331c.096.157.144.38.144.668 0 .153-.008.277-.024.373a7.52 7.52 0 0 0-.048.35h.012c.192-.482.402-.855.63-1.12.228-.265.463-.447.707-.548.244-.1.482-.15.714-.15.344 0 .62.076.828.229.208.152.362.367.462.644.1.276.15.603.15.98 0 .29-.024.61-.072.964-.048.353-.098.706-.15 1.059a6.73 6.73 0 0 0-.078.975c0 .128.02.212.06.253.04.04.08.06.12.06.088 0 .18-.069.276-.205.096-.136.196-.385.3-.746l.647.192a2.89 2.89 0 0 1-.186.578 2.803 2.803 0 0 1-.366.62c-.152.197-.331.36-.54.488a1.342 1.342 0 0 1-.72.192zM195.746 28.08c.368 0 .698.06.99.18.292.12.524.287.696.5.171.213.257.467.257.764 0 .241-.07.438-.21.59a.759.759 0 0 1-.557.24c-.272.009-.464-.073-.576-.246-.112-.172-.168-.327-.168-.463a1.18 1.18 0 0 1 .12-.506c-.032-.072-.1-.134-.204-.186a.82.82 0 0 0-.372-.079.83.83 0 0 0-.63.26 1.788 1.788 0 0 0-.384.655 4.328 4.328 0 0 0-.198.837c-.04.293-.063.56-.071.8-.016.433.024.783.12 1.047.095.265.223.458.383.578.16.12.324.189.492.205.152.008.324-.014.516-.066.192-.053.388-.169.588-.35.2-.18.38-.459.54-.836l.683.337c-.224.522-.475.93-.755 1.228-.28.297-.576.503-.888.62a2.758 2.758 0 0 1-.972.174c-.703-.008-1.271-.225-1.703-.65-.432-.425-.648-1.083-.648-1.974 0-.385.06-.79.18-1.216.12-.425.302-.822.546-1.191.244-.37.55-.67.918-.903.367-.233.803-.35 1.307-.35zM200.065 28.08c.415 0 .705.126.87.379.163.253.245.592.245 1.017 0 .193-.02.454-.06.783-.04.329-.084.674-.132 1.035l-.132.987a5.47 5.47 0 0 0-.06.65c0 .128.02.212.06.253.04.04.08.06.12.06.096 0 .192-.069.288-.205.096-.136.196-.385.3-.746l.648.192a2.89 2.89 0 0 1-.186.578 2.803 2.803 0 0 1-.366.62c-.152.197-.334.36-.546.488a1.373 1.373 0 0 1-.726.192c-.44 0-.741-.12-.905-.361-.164-.24-.246-.574-.246-.999 0-.233.02-.51.06-.83.04-.322.086-.65.138-.988.052-.337.098-.652.138-.945.04-.292.06-.535.06-.728 0-.136-.02-.222-.06-.259a.193.193 0 0 0-.132-.054c-.088 0-.18.069-.276.205-.096.136-.196.385-.3.746l-.648-.192c.032-.169.096-.361.192-.578a2.86 2.86 0 0 1 .378-.62c.156-.197.34-.36.552-.488.212-.128.454-.192.726-.192zm.42-3.033c.263 0 .477.096.641.288.164.193.238.43.222.71-.008.273-.1.504-.276.693a.865.865 0 0 1-.66.283.823.823 0 0 1-.653-.283.972.972 0 0 1-.234-.692c.016-.281.12-.518.312-.71.192-.193.408-.29.647-.29zM206.362 28.08c.224 0 .486.022.786.066.3.044.614.106.942.187-.04.297-.092.662-.156 1.095a89.22 89.22 0 0 0-.186 1.33c-.06.453-.11.87-.15 1.252-.04.381-.06.676-.06.885 0 .144.018.238.054.282.036.045.074.067.114.067.096 0 .196-.069.3-.205.104-.136.208-.385.312-.746l.648.192a3.683 3.683 0 0 1-.168.578 2.93 2.93 0 0 1-.318.62c-.132.197-.296.36-.492.488a1.23 1.23 0 0 1-.69.192c-.256 0-.48-.076-.672-.229-.192-.152-.288-.44-.288-.866a5.66 5.66 0 0 1 .048-.698h-.012a4.553 4.553 0 0 1-.461.866 2.643 2.643 0 0 1-.504.554 1.637 1.637 0 0 1-.528.289c-.18.056-.362.084-.546.084-.44 0-.816-.178-1.127-.536-.312-.357-.468-.908-.468-1.655 0-.553.08-1.075.24-1.564.16-.49.395-.925.707-1.306.312-.382.692-.68 1.14-.897.448-.217.96-.325 1.535-.325zm-.443.794a.992.992 0 0 0-.618.217c-.188.144-.352.357-.492.638-.14.28-.246.63-.318 1.047a8.661 8.661 0 0 0-.108 1.457c0 .329.04.587.12.776.08.189.192.283.336.283.176 0 .34-.09.492-.271.152-.18.29-.425.414-.734.124-.31.232-.654.324-1.035.092-.382.168-.77.227-1.168.06-.397.098-.776.114-1.137a1.783 1.783 0 0 0-.492-.072z"/>
        </g>
    </g>
</svg>
